<svg xmlns="http://www.w3.org/2000/svg" xmlns:xlink="http://www.w3.org/1999/xlink" viewBox="0 0 75.15 93.22"><defs><style>.cls-1{isolation:isolate;}.cls-2{fill:#ba9765;}.cls-3{fill:#fff;}.cls-3,.cls-5,.cls-6,.cls-7{opacity:0.2;}.cls-4{fill:#48331b;opacity:0.1;}.cls-4,.cls-5,.cls-6,.cls-7{mix-blend-mode:multiply;}.cls-5{fill:url(#linear-gradient);}.cls-6{fill:url(#linear-gradient-2);}.cls-7{fill:url(#linear-gradient-3);}</style><linearGradient id="linear-gradient" x1="58.33" y1="14.78" x2="20.53" y2="14.78" gradientUnits="userSpaceOnUse"><stop offset="0" stop-color="#6b5938"/><stop offset="1" stop-color="#6b5938" stop-opacity="0"/></linearGradient><linearGradient id="linear-gradient-2" x1="24.24" y1="15.14" x2="24.24" y2="37.3" gradientTransform="translate(34.83 -7.88) rotate(60)" xlink:href="#linear-gradient"/><linearGradient id="linear-gradient-3" x1="23.89" y1="75.91" x2="36.09" y2="88.11" gradientUnits="userSpaceOnUse"><stop offset="0" stop-color="#6b5938"/><stop offset="0.5" stop-color="#6b5938" stop-opacity="0"/><stop offset="1" stop-color="#6b5938"/></linearGradient></defs><g class="cls-1"><g id="Layer_2" data-name="Layer 2"><g id="Layer_3" data-name="Layer 3"><rect class="cls-2" x="19.46" y="68.96" width="17.46" height="21.82" transform="translate(-53.71 58.29) rotate(-55.8)"/><path class="cls-3" d="M17.61,76l-.07.1a1.85,1.85,0,0,0,.54.15A1.67,1.67,0,0,1,17.61,76Zm13.24,5c-2.22-1.75-7.07-3.39-12-6.83l-.23.33C23.07,78.07,29.38,79.85,30.85,81Zm3.26,3.62c-.53-.32-1.38-2.7-2.88-3.44C32.32,82.09,33.14,84.23,34.11,84.63ZM23.36,76.3c-.53-.92-2.73-1.43-3.76-2.39C20.53,75.31,23,75.81,23.36,76.3Zm.31.25c3.75,1,7.83,2.8,9.83,6.57C31.43,78.42,27.79,77,23.67,76.55Zm-3.56-4.21-.3.44a14.61,14.61,0,0,0,4.53,3.3A40.71,40.71,0,0,1,20.11,72.34Zm-.56.83.62.57-.61-.59Zm3.74,5.66c-1.07-1.39-3.06-2.5-5.14-3.61l-.18.27A20.49,20.49,0,0,1,23.29,78.83Zm-4.05,3.52c1.18.24,2.64,1.37,3.53,1.32C22.25,83.63,20.67,82.36,19.24,82.35Zm-4.39-2.26a12,12,0,0,1,1.06,1.25,10.52,10.52,0,0,0-.9-1.49Zm14.79,9.68C27.16,87.54,21.08,85.24,15.7,80,19.49,85.44,28,88.27,29.64,89.77ZM24.81,84.7c1.33.5,2.75,2.25,3.81,2.32C28,86.88,26.5,84.92,24.81,84.7Zm-8.34-7-.17.25a9,9,0,0,0,2.89,2.17A20.61,20.61,0,0,1,16.47,77.69Zm3.09,2.56c1.35.43,2.85,2.1,3.92,2.12C22.86,82.27,21.26,80.39,19.56,80.25Zm13.31,5.81c-2.39-1.74-10.93-8.14-15.27-9.55C24.1,79.76,30.6,85.11,32.87,86.06Zm-5.6-14.72c-1.09-.47-2.29-1.9-3.16-2C24.61,69.46,25.89,71.05,27.27,71.34Zm6.55,4.23c.61.16,2,2.17,3.72,2.45C36.24,77.48,34.88,75.68,33.82,75.57Zm-1.65,7.37c-.69-1.24-2.58-2-2.87-2.43C29.69,81.3,31.39,82,32.17,82.94Zm-2-12.1a52.11,52.11,0,0,0-6.31-4l-.26.38C26.55,68.91,29.29,70.06,30.16,70.84Zm-5,.87c2.47,2.22,6.27,2.66,11.66,7.87C33.06,74.17,26.86,73.21,25.19,71.71Zm9.05,3.72c-4.06-2.58-6.52-6.34-11.27-7.3l-.08.13C28,69.77,30.15,74.09,34.24,75.43ZM23.3,67.65l-.08.11a1.89,1.89,0,0,0,.69.13A1.89,1.89,0,0,1,23.3,67.65Zm7.2,7.87c1.09.46,2.32,1.86,3.19,2C33.18,77.36,31.88,75.79,30.5,75.52Zm-8.16-6.45-.05.07c.56.25,1.16.5,1.82.74Q23.17,69.49,22.34,69.07ZM33.75,80.74c.39.35.9,2.39,2,3.24C35,83.07,34.47,81.23,33.75,80.74Zm-6.66-4.08c-1.83-.86-4.11-3.21-5.51-3.52C22.41,73.43,24.86,76.05,27.09,76.66Zm-6.44-5.12-.11.17a4.56,4.56,0,0,0,1.62,1.22A12.85,12.85,0,0,1,20.65,71.54Zm8.78,2c-1.57-1.66-4.67-2.71-7.5-3.9l-.2.29C24.43,71.09,27.48,72,29.43,73.57Zm-5.28-.8a9.77,9.77,0,0,0-2.86-2.17l-.14.21A12.42,12.42,0,0,1,24.15,72.77ZM23.27,71c2.92,3.51,12.1,8.54,14.6,10.12C36.14,79.39,28.27,75.13,23.27,71ZM27,85.34c-2.33-2.63-8.29-3.94-11.31-6.45l-.1.15C18.37,81.81,24,82.74,27,85.34Zm7.41-5.61c1.13.37,2.46,1.66,3.34,1.7C37.21,81.34,35.78,79.89,34.38,79.73ZM21,71.25c5.36,5.92,12.78,7,16.52,13.16C33.8,77,26,76.23,21,71.25ZM39.33,82.88a7.51,7.51,0,0,1-1.57-1.34,4.32,4.32,0,0,0,1.41,1.57Zm-1.06,1.56.21-.3a12,12,0,0,1-1.89-3.09A7.32,7.32,0,0,0,38.27,84.44ZM37.19,86l.17-.25c-2.41-2-3.58-2.85-4.12-5.31C33.58,81.88,33.47,83.34,37.19,86Zm-2-3.88c.47.33,1.07,2.47,2.29,3.46l.05-.07C36.66,84.47,36.05,82.58,35.19,82.15Zm2.6,3a4,4,0,0,1-.31-.41,4.34,4.34,0,0,0,.28.46Zm3.59-5.29.29-.42a15.63,15.63,0,0,0-4-1.19A26.63,26.63,0,0,1,41.38,79.86Zm-1-2.28-.13-.09-1.5-.22C39.28,77.36,39.83,77.47,40.35,77.58ZM30.51,90.84c-1.14-.37-2.47-1.66-3.35-1.71C27.67,89.23,29.1,90.68,30.51,90.84Zm.43-18.48c3.84,2.82,7.38,5.88,10.93,6.8v0C38.4,77.72,34.64,74.6,30.94,72.36Zm8.93,9.74a32.37,32.37,0,0,1-2.79-2.42,15.5,15.5,0,0,0,2.54,2.78Zm-5.81,1.8a7,7,0,0,0,2.64,2.86l.18-.26A7.81,7.81,0,0,1,34.06,83.9Zm6.12-2.27.16-.22a3.9,3.9,0,0,0-1.62-.85A6.25,6.25,0,0,1,40.18,81.63Zm.58-.84.18-.28a9.8,9.8,0,0,0-4-1.34A11.63,11.63,0,0,1,40.76,80.79Zm-11.48-10a51.54,51.54,0,0,1,8.39,4.92l-6.29-4.28A19.21,19.21,0,0,0,29.28,70.84Zm4.29,20.52.08-.11a3.07,3.07,0,0,0-.6-.49A3.94,3.94,0,0,1,33.57,91.36ZM21.46,84c2.87.92,8.87,5.07,9.79,7.11C30,87.8,24.07,84.42,21.46,84Zm2.32-1.37c5.67,2.27,6.39,7.18,9.55,9.12h0C29.6,88,29.23,84.15,23.78,82.6Zm9,9.94.18-.27a9.81,9.81,0,0,0-3.72-1.2A11.36,11.36,0,0,1,32.77,92.54Zm-2.31-.72a5,5,0,0,0,1.95,1.25l.11-.17A10.79,10.79,0,0,1,30.46,91.82ZM14.26,81l.23.16-.21-.2Zm1.42.7A9,9,0,0,1,17,82.84l1.39.94.29.1C17.65,83.34,16.53,81.84,15.68,81.66Zm13.4,2.45a17.61,17.61,0,0,0,6.3,4.59l.25-.37A19.87,19.87,0,0,1,29.08,84.11ZM34,90.79a6.75,6.75,0,0,1-1.81-2A6.36,6.36,0,0,0,33.82,91Zm-10.36-12c6.6,5.16,7.07,4.74,10.83,7.51C31.26,83.3,28.57,82.27,23.6,78.76ZM33.78,85.3c.44.12,1.49,1.34,2.67,1.83l0-.08C35.54,86.46,34.53,85.4,33.78,85.3Zm2.32,2.35.17-.26a11.09,11.09,0,0,0-3.33-1A12.32,12.32,0,0,1,36.1,87.65Zm-1.72,2.52.17-.24a4.41,4.41,0,0,0-1.89-1.22A7.86,7.86,0,0,1,34.38,90.17ZM17,76.89l-.13.2c4.91,4.23,11.5,6.3,15,10.42-.49-.2-1-.41-1.6-.62,2,1.14,3.52,1.82,4.64,2.49l.17-.25a18.79,18.79,0,0,0-3.21-1.62C28.08,82.74,21.72,80.48,17,76.89ZM34.27,85.1c-2.43-1.68-5.92-5.35-10.3-6.65C29.71,81.44,32,84.2,34.27,85.1Z"/><path class="cls-4" d="M21.8,82.11c-.5-.15-1.76-1.75-3.13-2.06C19.75,80.54,20.94,82,21.8,82.11Zm4.32,2.8c-.53-.92-2.73-1.43-3.76-2.39C23.29,83.92,25.73,84.42,26.12,84.91Zm-3.19-2.56a18.37,18.37,0,0,0-6.55-4.52l-.25.37C18.32,79.32,20.09,79.62,22.93,82.35ZM18.29,75l-.19.27a27.56,27.56,0,0,0,3.26,2.26C20.12,76.5,19.11,75.71,18.29,75Zm.4-.6-.16.24a3.92,3.92,0,0,0,1.16,1.2A6.19,6.19,0,0,1,18.69,74.43Zm.37,6.4c4.12,5.13,12.79,7.41,14.56,8.79C31,87.57,24.77,85.66,19.06,80.83Zm-1.68-4.48-.11.17a4.33,4.33,0,0,0,1.6.81A7.78,7.78,0,0,1,17.38,76.35Zm8.67,11.09c-2.22-2.88-8.4-4.59-11.12-7.47l-.09.13C17.35,83.28,23.19,84.56,26.05,87.44ZM17.54,83.1c1.12.39,2.42,1.72,3.3,1.78C20.33,84.77,18.94,83.29,17.54,83.1ZM16,82.1l.43.3A4.79,4.79,0,0,0,15,80.8,7.37,7.37,0,0,1,16,82.1ZM32.34,93.18l-.49-.46.47.49ZM14.26,81l.62.42c-.18-.19-.35-.38-.52-.58Zm17.93,1.22c-2.81-3-10.55-4-12.81-7.4C21.51,78.75,28.66,79.28,32.19,82.18Zm-16.72-3-.1.16c1,.84,1.87,2.05,2.68,2.21C17.58,81.36,16.66,79.93,15.47,79.16Zm5.71-8.38-.07.09c1.11.76,2.21,2.2,3.13,2.33C23.71,73,22.58,71.39,21.18,70.78Zm6.31,3.29c-.47-.22-1.49-2-2.79-2.52C25.69,72.19,26.66,73.8,27.49,74.07Zm-4.87-5.42-.1.14a13.18,13.18,0,0,0,1.39.45C23.49,69.07,23.05,68.87,22.62,68.65Zm6.29,6.84A10.09,10.09,0,0,0,22.38,69l-.23.34A12.92,12.92,0,0,1,28.91,75.49Zm-9.83-1.63c.13.19.26.38.38.58l-.34-.63Zm4.4-6.48v0l.14,0A.56.56,0,0,1,23.48,67.38Zm10.37,6.16A5.14,5.14,0,0,1,35,74l-.5-.34A2.71,2.71,0,0,0,33.85,73.54Zm-9.48-4.49c1.36.39,2.91,2,4,2C27.73,71,26.07,69.14,24.37,69.05Zm-1.23,6.14c1.18.23,2.65,1.36,3.54,1.31C26.15,76.46,24.57,75.19,23.14,75.19Zm6.56,1.49c-3.43-2.44-4.71-5.3-8-6.71l-.15.23C25.37,72.13,26.84,75.54,29.7,76.68Zm-2.83,1.81c-3.36-1.42-5.7-3-7.29-5.37l-.2.3C20.29,74.93,22.23,76.75,26.87,78.49Zm-6.64-6.33-.09.14c.95,1.11,2.6,1.8,2.86,2.25C22.68,73.73,21.22,73,20.23,72.16Zm.2,13a109.32,109.32,0,0,1,12.15,7.67l.17-.25C29.14,90,23.63,86.2,20.4,85.13Zm12.49-5.7c-2.2-2-7.25-4-12.13-8.1l-.19.28C24.78,75.81,31.46,78.14,32.92,79.45Zm-2.41-6.93c-.69-1.29-1.65-3.56-7.27-4.78l-.07.1A12.28,12.28,0,0,1,30.51,72.52ZM26.36,87.37A69.85,69.85,0,0,0,33,92.14l.21-.3C31.36,90.61,29.24,89.41,26.36,87.37Zm11.94-3,.18-.26c-1.59-1.08-3.19-2.21-4.77-3.17C35.28,82.13,36.81,83.32,38.3,84.4Zm.68-1,.29-.43A19.5,19.5,0,0,0,32,79.45,42,42,0,0,1,39,83.4ZM20.72,73.72c1,.61,2,2.18,2.88,2.41C23.12,75.93,22,74.18,20.72,73.72Zm18.8,8.89.08-.12c-3.08-2.66-9-4.59-10.57-7.83C30.47,78.42,36.08,80,39.52,82.61ZM37.8,85.14l.15-.23a3,3,0,0,0-1.37-.73A5,5,0,0,1,37.8,85.14ZM26.87,77.92c.5.15,1.78,1.73,3.16,2C28.94,79.47,27.74,78.05,26.87,77.92ZM38.1,76.05l-.84-.57a7.41,7.41,0,0,0-1.19-.32A13,13,0,0,1,38.1,76.05ZM27.35,72c3.5,4.58,8.63,6.91,12.79,9.71l.17-.24C36,78.18,30.75,76,27.35,72Zm2.93.86c.49.18,1.68,1.85,3,2.22C32.25,74.52,31.14,73,30.28,72.84ZM28,80.32c2.08,1.87,5.11,2.48,9.23,5.73l.23-.34C33.77,82.43,29.32,81.55,28,80.32Zm2.35-9.1c2.78,4,8.08,6.54,11.37,8.22l.14-.2C38.8,77.41,34.35,75.13,30.3,71.22Zm-2.41.28c1.18.77,2.21,2.81,3.23,3.1C30.55,74.33,29.47,72.07,27.89,71.5Zm12.79,9.4.27-.4C38.26,78.75,35.11,77,32,75,35.88,77.83,38.46,79.5,40.68,80.9ZM24.27,76.54c6.1,1.07,8.29,6,12.73,7.5C32.55,81.21,30,77,24.27,76.54ZM34.38,90.18l.06-.1A3.4,3.4,0,0,0,34,89.8,4.6,4.6,0,0,1,34.38,90.18Zm-10-8.43c.83.29,3.28,2.91,5.51,3.52C28,84.41,25.74,82.05,24.34,81.75Zm10.42,7.87.15-.24c-2.13-2.86-5.14-3.87-8.48-4.22C29.4,86,32.57,87.26,34.76,89.62Zm-1.5-5.49c1.1.46,2.32,1.86,3.19,2C35.94,86,34.64,84.4,33.26,84.13Zm.26,7.3.22-.32a21.62,21.62,0,0,0-7-4A46.08,46.08,0,0,1,33.52,91.43ZM15.9,78.53l-.18.28c2,1.06,3.08,1.81,3.92,3.75C19.11,81.4,18.92,80.14,15.9,78.53ZM34,90.74l.1-.15c-.81-.69-1.82-1.16-2-1.47A6.73,6.73,0,0,0,34,90.74ZM17.73,75.84l-.14.21c2.55,2.21,6.66,2.87,9.33,5.33C24.82,78.9,20.48,77.9,17.73,75.84Zm-.87,1.28c4.49,1.94,6.44,6.07,10.24,7.57C23.41,82,21.19,78.36,17,77Zm19.53,10.1.22-.33A120.79,120.79,0,0,1,26,79.64C28,82,32.71,85,36.39,87.22ZM23.81,79.86c3.6,4,8.14,5.78,11.87,8.4l.31-.45C32.11,84.76,27.29,83.33,23.81,79.86Zm-4.44-2.27c1,.58,2.11,2.11,3,2.31C21.84,79.71,20.71,78,19.37,77.59ZM22,79.24c1,.57,2.12,2.1,3,2.3C24.44,81.35,23.3,79.66,22,79.24Z"/><rect class="cls-2" x="14.91" y="14.76" width="21.82" height="17.46" transform="matrix(0.5, -0.87, 0.87, 0.5, -7.43, 34.1)"/><path class="cls-3" d="M22.75,34.32l.1.06a1.52,1.52,0,0,0,.12-.55A1.57,1.57,0,0,1,22.75,34.32Zm4-13.58c-1.58,2.35-2.86,7.31-5.93,12.47l.35.2C24.4,28.72,25.71,22.3,26.76,20.74Zm3.37-3.51c-.28.56-2.59,1.57-3.22,3.12C27.73,19.21,29.81,18.23,30.13,17.23ZM22.61,28.57c-.88.59-1.22,2.83-2.11,3.92C21.83,31.46,22.15,29,22.61,28.57Zm.23-.33c.77-3.83,2.22-8,5.83-10.29C24.14,20.36,23,24.09,22.84,28.24ZM18.9,32.09l.46.27a14.43,14.43,0,0,0,3-4.76A40.73,40.73,0,0,1,18.9,32.09Zm.87.51c.17-.22.34-.44.53-.67l-.55.65Zm5.37-4.16c-1.31,1.18-2.27,3.24-3.22,5.4l.27.15A21.09,21.09,0,0,1,25.14,28.44ZM29,32.23C29.1,31,30.12,29.49,30,28.61,30,29.14,28.85,30.8,29,32.23ZM27,36.78a12.74,12.74,0,0,1,1.17-1.15,9.71,9.71,0,0,0-1.41,1Zm8.57-15.46c-2,2.63-3.89,8.86-8.68,14.61C32,31.76,34.21,23.09,35.58,21.32Zm-4.7,5.18c.4-1.36,2-2.9,2-4C32.82,23.15,31,24.8,30.88,26.5ZM24.5,35.33l.27.15a8.79,8.79,0,0,0,1.94-3A19.77,19.77,0,0,1,24.5,35.33Zm2.33-3.27c.33-1.37,1.89-3,1.83-4.06C28.6,28.62,26.84,30.36,26.83,32.06Zm4.82-13.69c-1.56,2.5-7.31,11.49-8.41,15.92C26,27.57,30.87,20.7,31.65,18.37ZM17.38,25c-.4,1.12-1.73,2.42-1.8,3.3C15.7,27.82,17.18,26.42,17.38,25Zm3.74-6.85c.11-.61,2-2.2,2.17-3.89C22.84,15.63,21.14,17.12,21.12,18.18Zm7.46,1.11c-1.17.78-1.8,2.72-2.21,3C27.13,21.89,27.74,20.13,28.58,19.29ZM16.67,22.18a52.46,52.46,0,0,0-3.53,6.59l.4.23C15,25.93,16,23.11,16.67,22.18Zm1.23,4.9c2-2.63,2.19-6.45,7-12.21C19.78,19.05,19.27,25.3,17.9,27.08ZM21,17.78c-2.28,4.23-5.84,7-6.46,11.77l.14.07C15.76,24.45,19.91,22,21,17.78ZM14,29.26l.12.07a2,2,0,0,0,.08-.7A2.17,2.17,0,0,1,14,29.26Zm7.32-7.76c.38-1.13,1.69-2.45,1.74-3.32C23,18.69,21.48,20.1,21.31,21.5Zm-5.84,8.61.08.05c.2-.58.41-1.2.61-1.87C15.94,28.93,15.71,29.54,15.47,30.11ZM26.28,17.87c.32-.41,2.31-1.07,3.08-2.23C28.52,16.48,26.71,17.13,26.28,17.87ZM22.7,24.81c-.72,1.9-2.91,4.34-3.11,5.76C19.82,29.72,22.26,27.09,22.7,24.81Zm-4.63,6.8.17.1A4.71,4.71,0,0,0,19.34,30,13.19,13.19,0,0,1,18.07,31.61Zm1.37-8.9c-1.54,1.69-2.36,4.86-3.34,7.77l.3.17C17.34,27.87,18,24.77,19.44,22.71ZM19,28a10,10,0,0,0-2,3l.21.13A12.81,12.81,0,0,1,19,28Zm-1.67,1c3.29-3.17,7.63-12.7,9-15.3C24.76,15.59,21.08,23.75,17.36,29Zm14-4.74c-2.45,2.52-3.32,8.56-5.6,11.75l.16.09C28.47,33.14,29,27.43,31.36,24.3Zm-6.13-7c.28-1.16,1.47-2.58,1.45-3.47C26.62,14.38,25.28,15.91,25.23,17.33ZM17.74,31.24C23.26,25.47,23.79,18,29.65,13.81,22.54,18.1,22.34,25.9,17.74,31.24ZM28,12.15a7.49,7.49,0,0,1-1.21,1.66,4.44,4.44,0,0,0,1.46-1.52Zm1.64.95-.32-.19A11.61,11.61,0,0,1,26.38,15,7.27,7.27,0,0,0,29.64,13.1Zm1.66,1L31,13.9c-1.77,2.55-2.58,3.79-5,4.51C27.43,18,28.89,18,31.3,14.05Zm-3.72,2.28c.3-.49,2.38-1.24,3.28-2.53l-.07,0C29.78,14.7,28,15.45,27.58,16.33Zm2.8-2.81a4.14,4.14,0,0,1-.38.35c.15-.1.29-.21.43-.32Zm-5.54-3.19-.44-.26a15.73,15.73,0,0,0-.89,4.12A25.94,25.94,0,0,1,24.84,10.33Zm-2.2,1.2-.08.13c0,.48-.08,1-.11,1.52C22.5,12.6,22.57,12.05,22.64,11.53Zm14,8.84c-.29,1.16-1.48,2.58-1.46,3.46C35.19,23.31,36.53,21.78,36.59,20.37Zm-18.46.92c2.52-4,5.32-7.78,6-11.39h0C22.93,13.46,20.08,17.44,18.13,21.29Zm9.06-9.61a35.94,35.94,0,0,1-2.21,3,15.64,15.64,0,0,0,2.58-2.74Zm2.22,5.65a7,7,0,0,0,2.66-2.83l-.28-.16A7.76,7.76,0,0,1,29.41,17.33ZM26.7,11.39l-.24-.13a3.89,3.89,0,0,0-.73,1.67A6.23,6.23,0,0,1,26.7,11.39Zm-.89-.5-.29-.17a9.79,9.79,0,0,0-1,4.14A11.88,11.88,0,0,1,25.81,10.89ZM16.74,23.06A50.18,50.18,0,0,1,21,14.33l-3.81,6.59A18.22,18.22,0,0,0,16.74,23.06Zm20.14-5.78-.11-.07a2.7,2.7,0,0,0-.45.63A3.7,3.7,0,0,1,36.88,17.28ZM30.4,29.89c.71-2.93,4.41-9.21,6.38-10.28C33.59,21.06,30.66,27.26,30.4,29.89Zm-1.54-2.21c1.85-5.81,6.7-6.9,8.39-10.19h0C33.82,21.48,30,22.13,28.86,27.68ZM38.12,18l-.28-.16a9.82,9.82,0,0,0-.93,3.8A11.37,11.37,0,0,1,38.12,18Zm-.55,2.35a5,5,0,0,0,1.11-2l-.18-.1A10.68,10.68,0,0,1,37.57,20.34Zm-9.65,17,.14-.24-.17.22Zm.6-1.47a9.48,9.48,0,0,1,1.07-1.43L30.43,33c0-.1.06-.2.08-.3C30.05,33.74,28.64,35,28.52,35.83ZM30,22.28a17.7,17.7,0,0,0,4.12-6.61l-.39-.23A20,20,0,0,1,30,22.28Zm6.3-5.35a6.79,6.79,0,0,1-1.89,1.95,6.44,6.44,0,0,0,2.11-1.83ZM25.05,28.15c4.66-7,4.21-7.4,6.69-11.36C29,20.17,28.19,22.93,25.05,28.15Zm5.77-10.64c.09-.45,1.23-1.58,1.63-2.79l-.09-.05C31.85,15.67,30.87,16.76,30.82,17.51ZM33,15l-.27-.16a11.15,11.15,0,0,0-.72,3.4A11.83,11.83,0,0,1,33,15Zm2.64,1.53-.25-.15a4.48,4.48,0,0,0-1.08,2A8.46,8.46,0,0,1,35.63,16.56Zm-12,18.28.2.12c3.86-5.21,5.44-11.94,9.3-15.7-.17.5-.33,1-.5,1.64,1-2.12,1.55-3.65,2.14-4.82l-.26-.15a18.4,18.4,0,0,0-1.38,3.32C28.69,23.38,26.9,29.89,23.67,34.84ZM30.59,17c-1.5,2.55-4.9,6.29-5.88,10.75C27.27,21.85,29.86,19.4,30.59,17Z"/><path class="cls-4" d="M28.52,29.69c-.11.51-1.62,1.89-1.83,3.28C27.1,31.85,28.44,30.57,28.52,29.69ZM31,25.18c-.88.59-1.22,2.83-2.11,3.93C30.22,28.07,30.53,25.61,31,25.18Zm-2.31,3.37a18.18,18.18,0,0,0-4,6.86l.38.22C26,33.37,26.17,31.58,28.68,28.55Zm-7,5.17.29.16a28.06,28.06,0,0,0,2-3.41C23,31.78,22.33,32.84,21.71,33.72Zm-.62-.36.25.14a3.73,3.73,0,0,0,1.11-1.24A6.45,6.45,0,0,1,21.09,33.36Zm6.35-.84c4.82-4.49,6.45-13.3,7.71-15.16C33.29,20.11,31.84,26.47,27.44,32.52Zm-4.34,2,.18.1A4.23,4.23,0,0,0,24,33,7.55,7.55,0,0,1,23.1,34.52Zm10.42-9.46c-2.71,2.43-4,8.72-6.63,11.65l.13.07C30,34.05,30.86,28.13,33.52,25.06Zm-3.7,8.81c.31-1.15,1.53-2.54,1.54-3.43C31.28,31,29.91,32.46,29.82,33.87Zm-.88,1.66.26-.45a4.93,4.93,0,0,0-1.49,1.53A7.41,7.41,0,0,1,28.94,35.53Zm9.84-17.16-.41.53.44-.51ZM27.92,37.3l.38-.65-.54.56Zm-.1-18c-2.76,3-3.19,10.82-6.43,13.33C25.19,30.22,25.19,23.06,27.82,19.32ZM26,36.22l.17.09c.76-1,1.91-2,2-2.83C28.08,34,26.73,35,26,36.22Zm-8.78-5.07.1.06c.68-1.17,2-2.37,2.09-3.3C19.33,28.45,17.77,29.7,17.26,31.15Zm2.83-6.54c-.2.49-1.9,1.63-2.32,3C18.34,26.54,19.88,25.46,20.09,24.61ZM15,29.86l.15.09a10.76,10.76,0,0,0,.33-1.42C15.39,29,15.22,29.41,15,29.86Zm6.35-6.78a10.13,10.13,0,0,0-6,7l.36.21A13,13,0,0,1,21.39,23.08ZM20.49,33c.18-.14.36-.28.56-.42l-.61.39Zm-6.78-3.92,0,0a1,1,0,0,0,0-.14A.67.67,0,0,1,13.71,29.09Zm5.38-10.78a5.11,5.11,0,0,1,.34-1.22l-.3.53A2.67,2.67,0,0,0,19.09,18.31ZM15.3,28.09C15.59,26.7,17.1,25,17,24,17,24.59,15.27,26.38,15.3,28.09Zm6.22.77c.15-1.19,1.16-2.74,1.05-3.62C22.57,25.77,21.42,27.44,21.52,28.86Zm1-6.65c-2.18,3.6-5,5.09-6.11,8.45l.24.14C18.3,26.86,21.6,25.15,22.53,22.21Zm2,2.69c-1.17,3.46-2.58,5.91-4.83,7.66l.32.18C21.47,31.72,23.15,29.65,24.54,24.9ZM18.71,32l.15.09c1-1,1.6-2.73,2-3C20.1,29.43,19.49,30.93,18.71,32Zm12.94-1.14a110.42,110.42,0,0,1,6.76-12.68L38.15,18c-2.32,3.78-5.69,9.56-6.51,12.86Zm-6.6-12c-1.8,2.34-3.47,7.53-7.19,12.7l.29.17C22,27.18,23.85,20.35,25.05,18.79Zm-6.73,2.92c-1.23.78-3.44,1.91-4.23,7.6l.1.06A12.24,12.24,0,0,1,18.32,21.71Zm15.11,3.05a70.19,70.19,0,0,0,4.27-7l-.32-.19C36.29,19.54,35.25,21.74,33.43,24.76ZM29.59,13.07l-.27-.16c-1,1.66-2,3.34-2.81,5C27.55,16.25,28.63,14.64,29.59,13.07Zm-1-.61-.45-.26a19.42,19.42,0,0,0-3,7.48A42.55,42.55,0,0,1,28.55,12.46ZM20.23,31.38c.53-1.05,2-2.19,2.2-3C22.26,28.83,20.59,30,20.23,31.38ZM27.72,12l-.13-.07c-2.43,3.27-3.92,9.3-7,11.12C24.2,21.32,25.35,15.61,27.72,12Zm2.65,1.54-.24-.14a3,3,0,0,0-.63,1.42A4.79,4.79,0,0,1,30.37,13.52ZM24,24.94c.11-.51,1.6-1.9,1.79-3.29C25.37,22.76,24,24.07,24,24.94ZM21.28,13.88l-.51.88A7.62,7.62,0,0,0,20.54,16,13.75,13.75,0,0,1,21.28,13.88ZM18,24.9c4.31-3.83,6.26-9.12,8.75-13.47l-.26-.15C23.56,15.86,21.75,21.21,18,24.9Zm.65-3c.14-.5,1.71-1.8,2-3.18C20.19,19.82,18.78,21.05,18.66,21.91Zm7.62,1.78c1.72-2.21,2.1-5.27,5-9.62L31,13.86C28,17.73,27.41,22.23,26.28,23.69ZM17,22C20.78,19,23,13.47,24.4,10.07L24.19,10C22.58,13.08,20.64,17.68,17,22Zm.46,2.38c.68-1.23,2.64-2.4,2.85-3.44C20.12,21.54,18,22.78,17.49,24.39ZM25.93,11l-.42-.24c-1.55,2.81-3,6.09-4.87,9.33C23.22,16,24.7,13.27,25.93,11ZM22.78,27.64c.62-6.16,5.42-8.71,6.55-13.25C26.83,19,22.77,21.89,22.78,27.64ZM35.64,16.56l-.09-.06a2.37,2.37,0,0,0-.25.47A3.21,3.21,0,0,1,35.64,16.56ZM28,27.18c.22-.84,2.66-3.48,3.1-5.75C30.36,23.32,28.18,25.77,28,27.18Zm7.08-11-.25-.14c-2.7,2.33-3.48,5.42-3.59,8.77C31.83,21.83,32.87,18.58,35.06,16.22Zm-5.37,1.9c.38-1.13,1.69-2.45,1.75-3.33C31.33,15.3,29.87,16.72,29.69,18.12Zm7.27-.8-.34-.19a21.54,21.54,0,0,0-3.53,7.28A45.72,45.72,0,0,1,37,17.32ZM25.39,35.84l.28.16c.91-2.07,1.59-3.21,3.45-4.18C28,32.43,26.76,32.71,25.39,35.84ZM36.23,16.9l-.15-.09c-.63.86-1,1.9-1.33,2.13A6.39,6.39,0,0,0,36.23,16.9ZM22.56,34.21l.22.12c2-2.7,2.38-6.84,4.63-9.69C25.09,26.92,24.42,31.32,22.56,34.21Zm1.35.77c1.6-4.61,5.57-6.86,6.79-10.77-2.39,3.89-5.87,6.37-7,10.67Zm8.63-20.21-.34-.2a117.6,117.6,0,0,1-6.46,11.08C27.94,23.54,30.6,18.6,32.54,14.77ZM26.13,27.86C29.84,24,31.3,19.31,33.64,15.4l-.48-.27C30.4,19.22,29.33,24.13,26.13,27.86Zm-1.94,4.59c.5-1.08,1.95-2.26,2.09-3.12C26.13,29.83,24.51,31.09,24.19,32.45Zm1.46-2.71c.49-1.08,1.93-2.26,2.08-3.12C27.57,27.11,26,28.38,25.65,29.74Z"/><rect class="cls-2" x="35.07" y="-3.35" width="17.46" height="43.65" transform="translate(5.9 47.16) rotate(-60)"/><path class="cls-3" d="M42.83,19.43c-.44-.27-1.3-2.16-2.54-2.8C41.21,17.37,42,19.09,42.83,19.43Zm.2-.69c1.15.31,2.55,1.53,3.43,1.54C45.94,20.2,44.44,18.83,43,18.74ZM23.2,10.49h0l.05,0Zm10.62,1.18c-1.88-1.84-5.76-2.79-8.92-4.11l-.17.29C27.74,9.17,31.49,9.91,33.82,11.67ZM25.33,6.8l0,.08.39.15Zm5.11,2.37c5.84,1.86,6.91,6.74,10.24,8.42C36.65,14.16,36,10.33,30.44,9.17ZM30.13,9c-.63-.06-2.37-1.81-4.07-1.83C27.44,7.47,29.06,9,30.13,9ZM48.35,17.6c-5.59-4.92-7.05-2.84-12.51-7.31C41.75,15.66,43.37,13.47,48.35,17.6ZM39.76,12A118.14,118.14,0,0,0,26.63,4.56l-.11.19C32.3,7.54,37.73,11.28,39.76,12Zm.09.34c6.1,1,8.39,5.92,12.84,7.31C48.2,16.85,45.58,12.62,39.85,12.31Zm-.6,2.39c2,4,9.14,4.74,12.59,7.74C49.1,19.38,41.43,18.19,39.25,14.7Zm.5-.09c1.29.57,2.63,2.4,3.68,2.52C42.83,17,41.41,14.92,39.75,14.61ZM62.34,26c-2.41-4.53-6.14-5.69-10.29-5.83C55.87,20.91,60.06,22.36,62.34,26ZM25.9,9.26c1.19.15,2.73,1.17,3.62,1.06C29,10.31,27.32,9.16,25.9,9.26ZM37.75,16.9c-1.15-.29-2.58-1.48-3.46-1.46C34.81,15.5,36.34,16.84,37.75,16.9Zm3.41,2.61c-.56-.66-2.41-1-3.38-1.63C38.75,18.9,40.78,19.17,41.16,19.51ZM36.5,17.22c6.09,1,7.8,5.63,11.34,6.8C43.36,21.24,42.22,17.55,36.5,17.22ZM23.7,9.63l-.1.18a4.77,4.77,0,0,0,1.87,1A9.71,9.71,0,0,1,23.7,9.63Zm14.47,9.19c-3.32-3-8.71-5-14-8C31.26,15.31,34.16,16.44,38.17,18.82Zm10,5.31c1.38.33,3,1.89,4.07,1.83C51.66,25.9,49.93,24.15,48.22,24.13ZM42.9,21.77c2.3,3.89,9.44,4.13,13.09,6.89C53.05,25.8,45.29,25.1,42.9,21.77Zm-4.38-4.68C37.07,13.9,30.87,11,28.23,10.71,31.16,11.42,37.44,15.12,38.52,17.09Zm-1.71-1.2c-2.33-1.8-7.47-3.45-12.61-7.13l-.17.3C28.51,12.88,35.26,14.7,36.81,15.89Zm17,12.3c1.36.4,2.9,2,4,2C57.14,30.13,55.49,28.28,53.79,28.19ZM42.26,21c-.51-.11-1.89-1.62-3.28-1.83C40.1,19.62,41.39,21,42.26,21Zm9.42,6.27c-.53,0-2.2-1.15-3.62-1C49.25,26.41,50.8,27.42,51.68,27.31Zm-20-16.11c1.35.39,2.9,2,4,2C35,13.13,33.32,11.29,31.63,11.2Zm7.2-2.3c-.78-1.18-2.71-1.8-3-2.22C36.24,7.45,38,8.05,38.83,8.9ZM28.54,1.25l-.2.35a9,9,0,0,0,2.19,1A24.15,24.15,0,0,1,28.54,1.25Zm12.35,9.19c-.55-.28-1.57-2.59-3.12-3.21C38.92,8,39.89,10.12,40.89,10.44Zm-.1-.72c2.22,3.94,7.89,3.77,11.47,6.61C49.38,13.4,43.12,13.1,40.79,9.72ZM40.18,9C37.76,4.45,34,3.29,29.89,3.15,33.71,3.92,37.9,5.37,40.18,9ZM29,.48l-.11.2A13.77,13.77,0,0,0,33.31,3,39.52,39.52,0,0,1,29,.48ZM46.44,12.94c-4.11-3-5.82-3.56-6.72-6.58C40.24,8,40.14,9.7,46.44,12.94Zm11.14,3.81c-3-2.77-10.82-3.2-13.32-6.44C46.68,14.11,53.85,14.11,57.58,16.75Zm1.21,1.86c1.12.38,2.45,1.69,3.32,1.75C61.6,20.25,60.18,18.79,58.79,18.61Zm-17-10.72c.53.32,1.36,2.73,2.85,3.48C43.57,10.46,42.76,8.29,41.79,7.89Zm.69,1.78C41.64,8.83,41,7,40.25,6.59,40.66,6.91,41.32,8.9,42.48,9.67ZM53.21,15.2c2.63,2,6.45,2.2,12.21,7C61.24,17.08,55,16.57,53.21,15.2Zm-9.28-2.32c-1.12-.38-2.44-1.69-3.31-1.75C41.13,11.23,42.54,12.71,43.93,12.88ZM27.18,3.61l-.11.19a11.86,11.86,0,0,1,2.61,1.65A9.54,9.54,0,0,0,27.18,3.61Zm14.15,8.44C38,9.32,35.19,8.5,30,5.36,36.94,10,37.38,9.57,41.33,12.05Zm3.05,4.31c4.49,4.82,13.3,6.45,15.17,7.71C56.79,22.21,50.43,20.76,44.38,16.36ZM29.56,2.92A3.27,3.27,0,0,0,28.11,2L28,2.25A6.08,6.08,0,0,1,29.56,2.92ZM47.21,17.44c-.51-.11-1.89-1.62-3.27-1.83C45.05,16,46.34,17.36,47.21,17.44ZM61,25.89c-.77-1.18-2.71-1.8-3-2.22C58.4,24.44,60.16,25,61,25.89Zm-11.27-9c.85.22,3.48,2.66,5.75,3.11C53.58,19.28,51.13,17.1,49.72,16.9ZM37.38,7.07c-1.91-1.29-5.57-2.38-9.66-4.41l-.25.44C31.62,5.19,36.11,6.22,37.38,7.07Zm3.7,3.83C38.54,9.4,34.79,6,30.33,5,36.27,7.58,38.73,10.17,41.08,10.9Zm3.38,2.21c1.07.5,2.25,2,3.12,2.09C47.08,15.05,45.82,13.43,44.46,13.11Zm2.7,1.46c1.08.49,2.27,1.93,3.13,2.08C49.79,16.49,48.52,14.88,47.16,14.57Zm4.56,5.34c-.59-.88-2.83-1.22-3.92-2.11C48.83,19.14,51.3,19.45,51.72,19.91ZM29.26,0A38.54,38.54,0,0,0,34.64,3.1L29.26,0Zm34,28.37.06-.1a1.6,1.6,0,0,0-.55-.16A2,2,0,0,1,63.27,28.38Zm-11.13-6c6.69,4.48,7.36,4.24,10.91,6.42l0-.05C59.89,26.24,57.14,25.36,52.14,22.35ZM38.87,13.48C35.47,9.79,30.46,7.93,26,5.58l-.2.34c4.67,2.7,9.88,4.34,13,7.56-.51-.16-1-.33-1.64-.5,4.63,2.15,6.42,2.31,7.86,5.06C44.36,16.71,44.1,15.19,38.87,13.48ZM52.5,22c5.93,2.56,8.39,5.15,10.75,5.88C60.7,26.4,57,23,52.5,22Zm11.55,5,.15-.26a6.38,6.38,0,0,1-2.32-3.42A6.22,6.22,0,0,0,64.05,27Zm-.33.57a5.86,5.86,0,0,1-.76-.89,5.58,5.58,0,0,0,.7,1Zm-3.79-3.38c1.15.81,2.13,2.89,3.13,3.21C62.5,27.16,61.49,24.84,59.93,24.22Zm2,4.74C59.42,27.4,50.43,21.64,46,20.55,52.72,23.31,59.59,28.17,61.92,29ZM42.37,18.5c5.31,6,14.13,7.33,18.66,12-.5-.16-1-.33-1.64-.5.88.41,1.66.75,2.36,1.05l.14-.25-.86-.3C56,25,47.32,23.54,42.37,18.5Zm8,9.21c2.68.64,8.15,3.79,9.89,5.83l.05-.08C58.44,30.52,52.86,27.94,50.4,27.71Zm2.21-1.55c4.4,1.41,6.09,4.52,8.08,6.69l.15-.26C58.39,29.78,57.11,27.1,52.61,26.16Zm10.06,3.26,0-.06c-.23,0-.46-.05-.69-.06Zm-.52.91.17-.31A18.22,18.22,0,0,1,58,27.29,20.56,20.56,0,0,0,62.15,30.33Zm3.47-6-.36-.64c.09.23.17.49.28.77Zm-16-12.57-.07,0h-.28ZM66.9,22.1,67,22a10.35,10.35,0,0,0-1.55-.17A10.59,10.59,0,0,1,66.9,22.1Zm-2.52,4.36,0-.06c-.73-.91-1.32-2.43-2-2.82C62.79,23.88,63.38,25.59,64.38,26.46ZM52,13.46c-3.39-1.14-5.81-2.52-7.55-4.69l-.63-.36C44.7,10,46.64,11.89,52,13.46ZM42.68,7.75,41.6,7.13A13.84,13.84,0,0,1,44.31,10,14,14,0,0,0,42.68,7.75ZM66.43,22.91l-.77-.62c.21.26.45.52.69.77ZM48.56,11.35a4,4,0,0,1-.83-.69l-.85-.49A4.8,4.8,0,0,0,48.56,11.35ZM64.69,25.92l.14-.23a2.41,2.41,0,0,0-.87-.81A3.84,3.84,0,0,1,64.69,25.92ZM49.05,15.05c5.17,4.94,11.7,5.88,16,10.23l.1-.17C60.73,19.77,53.88,19.21,49.05,15.05ZM44.36,24.2c4.17,5.12,12.83,7.31,14.61,8.69C56.34,30.85,50.11,29,44.36,24.2Zm21.75-.74,0-.08c-2.41-1.75-9.93-5.21-14.91-8.72C54.26,17.79,63,21.87,66.11,23.46ZM63,22.53c.94.23,2.05,1,2.91,1.35l.06-.1A7.24,7.24,0,0,0,63,22.53Zm-18.3,2.95c-.89-1.4-2.23-4.06-10.25-4.47C39.05,21.43,42.18,22.59,44.66,25.48Zm-8.51-4.8c-2.24-.51-5.32-4.36-11.62-5.38C31.39,17.82,33,20.08,36.15,20.68Zm1.69,2c-3.6-1.13-7.64-4-11.54-6C30.39,19.25,34.19,22.09,37.84,22.69Zm22.08,11.2c-1.16-.28-2.58-1.47-3.47-1.46C57,32.49,58.5,33.83,59.92,33.89ZM38.28,22.47c1.39.29,3,1.8,4.12,1.71C41.78,24.14,40,22.44,38.28,22.47Zm-8.87-2.79c.61.11,2.2,2,3.89,2.17C32,21.4,30.47,19.7,29.41,19.68Zm.4-.17c-3.21-1.73-5.56-4.2-8.6-5.56l-.2.34C24.31,16,26.55,18.69,29.81,19.51Zm7.5.76c-4-4.32-9.73-6.19-14.42-9.23l-.14.23C27.72,14.87,33.68,16.53,37.31,20.27Zm.09.67c-.59-.19-1.94-2.29-3.58-2.66C35.08,18.89,36.36,20.78,37.4,20.94Zm-16.7-6.1-.11.18a4.87,4.87,0,0,0,2,.92A9.34,9.34,0,0,1,20.7,14.84ZM22,12.67h0l.06,0Zm3.46,2.56a23.59,23.59,0,0,0-3.72-2.11l-.17.29A23.51,23.51,0,0,1,25.41,15.23Zm8.11,3.66c-2.3-2.73-8.3-4.17-11.23-6.82l-.09.15C24.93,15.14,30.6,16.19,33.52,18.89ZM43,22.62c-1.85-1.63-2.89-1.68-8.17-5.4C37.94,20.51,40.35,21.23,43,22.62Zm-1,2c1.24.68,2.41,2.64,3.44,2.85C44.83,27.29,43.59,25.12,42,24.66ZM59.32,35.22l.1-.16c-3.35-2.57-8.25-4.51-13.09-7.25C52.81,31.91,55.8,33.22,59.32,35.22Zm-.25.45c-.63-.42-1.33-.9-2.13-1.46A21.81,21.81,0,0,0,58.88,36ZM34.7,23.3l1,.59a12.88,12.88,0,0,1,2.4,1.38l1.76,1A11,11,0,0,0,34.7,23.3Zm6.77,1.88c5,5.63,12.5,7.23,17.14,11.27l0,0C53.57,31.58,46.17,30,41.47,25.18Zm18.3,9.27.06-.11c-.37-.06-.75-.1-1.17-.13Q59.25,34.32,59.77,34.45ZM44.46,25.82c.5.14,1.8,1.72,3.18,2C46.54,27.36,45.32,25.94,44.46,25.82Zm-5.67-.88c1,.57,2.12,2.11,3,2.31C41.27,27.06,40.13,25.36,38.79,24.94ZM33.4,22.07c3.6,1,7.49,2.59,9.61,6l.07,0C40.93,23.78,37.38,22.45,33.4,22.07Zm10.72,6.67a5.26,5.26,0,0,1-.78-1,5.57,5.57,0,0,0,.5.85ZM57.57,36.5l.76.44,0-.07A5.44,5.44,0,0,0,56,35.27,7.25,7.25,0,0,1,57.57,36.5ZM51.9,33.23,54,34.46A21.31,21.31,0,0,0,51.9,33.23Z"/><path class="cls-4" d="M37.78,11.13c-.56-.67-2.41-1-3.38-1.63C35.36,10.51,37.39,10.78,37.78,11.13ZM55.59,24.5c-2.63-2-8.87-3.89-14.62-8.68C45.15,20.93,53.81,23.13,55.59,24.5ZM41.28,17.1C40.38,15.7,39,13,31,12.63,35.67,13.05,38.8,14.21,41.28,17.1ZM52.6,26.89c1.26.61,2.54,2.5,3.58,2.65C55.59,29.36,54.24,27.25,52.6,26.89Zm3.49,2c-5.06-5.51-13-7-18-12.08C43.41,22.79,51.56,24.22,56.09,28.88Zm-17.5-12.6C39.82,17,41,18.91,42,19.13,41.45,18.91,40.21,16.73,38.59,16.28Zm17.94,9.23C55.38,25.22,54,24,53.07,24.05,53.59,24.11,55.12,25.45,56.53,25.51ZM33.93,11.89a29.22,29.22,0,0,0-8.2-5.78l-.22.38C28.68,8.12,31.73,9.62,33.93,11.89Zm5.64,2.35c-1.85-1.63-2.89-1.68-8.18-5.41C34.55,12.12,37,12.85,39.57,14.24ZM32.76,12.3c-1.77-.4-4.06-2.89-8-4.42l-.23.41C28.65,10.22,30.18,11.81,32.76,12.3Zm2-1.87C32.61,8.5,29.55,7,26.21,5.28L26,5.61C29.65,7.69,31.94,8.75,34.78,10.43Zm-9.69-3.2-.16.26a19.71,19.71,0,0,1,5.2,3A15.49,15.49,0,0,0,25.09,7.23Zm.94,6c-.51-.11-1.93-1.57-3.32-1.74C23.83,11.86,25.15,13.17,26,13.23Zm8-.68c-.6-.18-2-2.29-3.59-2.65C31.7,10.51,33,12.39,34,12.55ZM24.1,8.93l-.05.1c3.66,2.34,7.09,4.73,10.4,5.28C31.22,13.29,27.63,10.85,24.1,8.93Zm10.8,5.16c1.38.29,3.05,1.79,4.12,1.7C38.39,15.75,36.6,14.05,34.9,14.09ZM23.8,9.47l-.24.4a9.93,9.93,0,0,0,2.87,1.25A24.45,24.45,0,0,1,23.8,9.47ZM44.19,23.84c-2.63-2-8.87-3.89-14.62-8.68C33.75,20.27,42.41,22.47,44.19,23.84ZM29.33,15.07a16.27,16.27,0,0,0-6.15-4.54l-.24.41A29.32,29.32,0,0,1,29.33,15.07ZM26,11.29c.62.11,2.21,2,3.89,2.18C28.58,13,27.09,11.32,26,11.29ZM43.31,23.91c6.86,2.52,8.44,4.78,11.61,5.38C52.68,28.78,49.61,24.93,43.31,23.91Zm-8.24-5.67c-.61-.14-2.12-2.11-3.79-2.33C32.59,16.41,34,18.17,35.07,18.24ZM40,19.34c1.94,4.12,9,5,12.35,8.16C49.64,24.35,42,22.91,40,19.34Zm-4.54-2.78c1,.57,2.12,2.1,3,2.31C37.89,18.68,36.74,17,35.41,16.56Zm5.36,4.75c-4.51-2.73-5.69-6.38-11.42-6.65C35.45,15.58,37.21,20.19,40.77,21.31ZM30,13.68c3.75,1,7.83,2.73,9.88,6.5C37.76,15.48,34.12,14.08,30,13.68Zm3.4-6.17A51.19,51.19,0,0,0,26.94,4l-.23.4C29.74,5.87,32.5,6.8,33.42,7.51Zm2.44-1.2c2.06,4.05,9.14,4.75,12.6,7.75C45.71,11,38.05,9.81,35.86,6.31Zm21.75,11.2c-.78-1.18-2.71-1.8-3-2.22C55,16.05,56.77,16.66,57.61,17.51ZM41,8c4.49,4.82,13.3,6.45,15.16,7.7C53.41,13.83,47.05,12.38,41,8ZM36.37,6.23C37.66,6.8,39,8.63,40,8.75,39.44,8.59,38,6.54,36.37,6.23Zm3.07,4.82c-.44-.27-1.3-2.17-2.53-2.8C37.83,9,38.65,10.7,39.44,11.05Zm19.1,9.52C56,19,47,13.26,42.62,12.16,49.34,14.92,56.2,19.79,58.54,20.57ZM39.65,10.36c1.15.31,2.54,1.53,3.43,1.53C42.56,11.82,41.06,10.45,39.65,10.36Zm4.76-.94c1,1.33,3.5,1.65,3.93,2.11C47.74,10.65,45.51,10.31,44.41,9.42Zm-.58-.36c-.51-.12-1.89-1.62-3.28-1.83C41.67,7.64,43,9,43.83,9.06Zm-8.34-4c-.51-.17-1.05-.34-1.65-.5,4.63,2.15,6.43,2.31,7.86,5.06-.73-1.33-1-2.86-6.21-4.56A23.84,23.84,0,0,0,29,.41l-.2.35A24,24,0,0,1,35.49,5.1ZM59.86,19.51c-2.54-1.5-6.29-4.9-10.75-5.88C55.05,16.19,57.51,18.78,59.86,19.51Zm-.47.23c.52.1,1.93,1.57,3.32,1.75C61.59,21.11,60.27,19.8,59.39,19.74Zm-2.84-3.91c1.15.82,2.12,2.9,3.12,3.22C59.12,18.77,58.1,16.46,56.55,15.83Zm-8.25,3.1c-.53,0-2.2-1.16-3.62-1.06C45.87,18,47.41,19,48.3,18.93Zm2.11.87c1.35.4,2.9,2,4,2C53.75,21.74,52.1,19.9,50.41,19.8ZM38.88,12.66C38.37,12.54,37,11,35.6,10.83,36.71,11.23,38,12.58,38.88,12.66ZM52.6,20.28c-2.93-2.87-10.69-3.56-13.09-6.89C41.81,17.28,49,17.52,52.6,20.28Zm6.86,5.92c-4-3.43-4.67-7.27-10.24-8.42C55.06,19.64,56.13,24.52,59.46,26.2ZM44.84,15.75c1.38.33,3,1.89,4.07,1.83C48.28,17.52,46.54,15.76,44.84,15.75Zm-.38-.12C40,12.85,38.84,9.17,33.11,8.84,39.2,9.82,40.91,14.47,44.46,15.63ZM32.21,4.84c-.62-.09-2.27-1.93-4-2C29.6,3.21,31.14,4.85,32.21,4.84Zm5.08,4.37c-3.63-3.1-4.51-6.52-8.72-8l-.08.14C33.1,3.48,34.26,7.68,37.29,9.21ZM30.44,3.29a8.59,8.59,0,0,0-2.22-1.48l-.1.17A11.48,11.48,0,0,1,30.44,3.29Zm3.93,5.22C33.21,8.23,31.79,7,30.91,7.06,31.43,7.12,33,8.46,34.37,8.51Zm.77.2C34.06,6.35,30.41,4.14,27.51,3l-.14.23C30.46,4.69,34.31,7.2,35.14,8.71ZM22.39,11.9l-.22.39c3.38,1.87,6.87,3.51,8.3,4.27C29.37,15.59,26,13.9,22.39,11.9Zm31.05,21c1.32.5,2.74,2.26,3.8,2.33C56.63,35.1,55.11,33.12,53.44,32.9ZM64.65,26c-.49-.32-1-.66-1.49-1a13.42,13.42,0,0,0,1.35,1.26Zm-6.12-2.77c1.29.57,2.63,2.4,3.68,2.52C61.61,25.58,60.19,23.53,58.53,23.22Zm-.51.09c1,2,3.29,3.19,5.73,4.24l.17-.29C61.46,26.16,59.09,25,58,23.31ZM39,10.12c5.32,6,14.13,7.32,18.67,12-.51-.17-1-.33-1.65-.5,4.64,2.15,6.43,2.31,7.87,5.06-.74-1.33-1-2.86-6.22-4.56C52.59,16.59,43.94,15.15,39,10.12ZM61.61,28c-.45-.27-1.3-2.17-2.54-2.8C60,26,60.81,27.7,61.61,28Zm3.29-2.47L65,25.4a5.53,5.53,0,0,0-2.28-1.18A13.23,13.23,0,0,1,64.9,25.57ZM41.07,17.44c.5.14,1.81,1.72,3.18,2C43.16,19,41.94,17.56,41.07,17.44ZM59.94,28.12c-.56-.67-2.41-.95-3.38-1.63C57.52,27.51,59.56,27.77,59.94,28.12Zm2.57,1.58.16-.27c-2-1.82-3.76-3.39-7.39-3.6A13.3,13.3,0,0,1,62.51,29.7ZM54.62,18.9c5.12,4.65,7,3.63,10.68,6l.06-.09C61.15,21.68,59.45,22.85,54.62,18.9ZM57,27.43c-3.32-3-8.71-5-14-8C50,23.92,52.94,25.05,57,27.43Zm6.1,1.33a15.83,15.83,0,0,1-1.9-1.65A17.07,17.07,0,0,0,63,28.89Zm.38-.64.1-.18a4.3,4.3,0,0,0-1.72-.59A7.87,7.87,0,0,1,63.43,28.12ZM47,19.32c2.93.71,9.21,4.41,10.29,6.38C55.85,22.51,49.64,19.58,47,19.32Zm18.59,5,.25-.45a12.44,12.44,0,0,0-7.22-3A14.2,14.2,0,0,1,65.6,24.36Zm-.39-2.82c-2.32-1.72-3.87-2.63-4.95-3.64l-.68-.39C60.38,18.57,61.92,19.85,65.21,21.54Zm-2.32-2.12-.5-.29a3.57,3.57,0,0,0,1,.85A4.76,4.76,0,0,1,62.89,19.42Zm-12.65-7.3-.51-.3c-.35,0-.7-.05-1.06-.06C49.19,11.86,49.72,12,50.24,12.12ZM44.45,8.77l-.16-.09c.22.16.44.34.68.54Zm-12-6.86c3.94,3.59,6,3.8,8.38,4.78L38.49,5.33A18.21,18.21,0,0,1,32.46,1.91Zm26.12,15-.14-.08c.18.23.35.48.52.74C58.83,17.36,58.71,17.14,58.58,16.93ZM26.88,15.4c1.16.28,2.58,1.47,3.46,1.46C29.82,16.8,28.29,15.46,26.88,15.4Zm36.35,6.32c.93.43,1.94,1.57,2.76,2l0-.07A8.33,8.33,0,0,0,63.23,21.72Zm3,1.59,0,0-.29-.08Zm-6.63-5c1.41,2.5,4.21,3.35,7,4.36l.15-.26C64,21.34,61,20.43,59.57,18.33Zm7.48,3.49-3-1.73A10.44,10.44,0,0,0,67.05,21.82ZM48.76,14c7,4.66,7.4,4.21,11.35,6.69C56.74,17.93,54,17.11,48.76,14Zm-11,7.38c-.53,0-2.19-1.15-3.62-1.05C35.31,20.45,36.86,21.47,37.74,21.35Zm-7.35-1.52c-2.19-3.64-5.3-5.47-8.54-7l-.31.55C24.93,15.05,28.14,16.67,30.39,19.83Zm7.69,3.5C33.72,21.85,31,20,29.18,16.56,29.74,18.15,30.47,21.09,38.08,23.33Zm-4.15-3.65c-.45-1-2.59-1.66-3.54-2.72C31.22,18.46,33.58,19.16,33.93,19.68Zm-7.6-3.23c.41.32,1.07,2.32,2.23,3.09C27.72,18.69,27.08,16.89,26.33,16.45ZM21.17,14l-.28.48a12,12,0,0,1,4.88,3.66l.13.07A9.89,9.89,0,0,0,21.17,14ZM57.76,27.82c1.12.41,2.41,1.75,3.28,1.83C60.53,29.53,59.15,28,57.76,27.82ZM41.34,24.55c-1.12-.4-2.42-1.73-3.3-1.8C38.55,22.86,40,24.35,41.34,24.55Zm6.85,3.73c.61.12,2.2,2,3.89,2.18C50.74,30,49.25,28.31,48.19,28.28ZM35.34,21.57c6.16.62,8.72,5.42,13.25,6.55C43.94,25.62,41.1,21.56,35.34,21.57Zm9.53,6.91c1.12.38,2.45,1.68,3.32,1.74C47.68,30.12,46.26,28.65,44.87,28.48ZM31.6,19c1.06.53,2.19,2,3,2.19C34.15,21,33,19.38,31.6,19Zm7.69,6.05c2.63,2,6.45,2.19,12.21,7C47.32,27,41.07,26.44,39.29,25.07ZM26.92,18.81l.71.41a6.17,6.17,0,0,1-1.83-3A7,7,0,0,0,26.92,18.81ZM61.16,32l.18-.32c-1.41-1-3.79-1.88-8.15-2.1A16.22,16.22,0,0,1,61.16,32Zm-1.35,2.33L60,34c-2.09-2.24-4.84-3.06-7.83-3.35A18.76,18.76,0,0,1,59.81,34.37ZM45.08,25.3c4.09,2.55,7.88,5.4,11.54,6C53,30.17,49,27.28,45.08,25.3Zm12,5.78c1.21.25,2.64,1.44,3.69,1.67l.06-.1C60,32.25,58.5,31.05,57.06,31.08Zm4.87-.38a3.92,3.92,0,0,1-.25-.32c.07.12.15.24.23.36Zm-.28.49v0c-1.8-1.57-2.88-1.66-8.1-5.34C56.69,29.08,59.08,29.82,61.65,31.19ZM37.33,24.53c.25.25.53.51.85.78l13,7.51,1.44.73C50.78,31.92,42.62,28.25,37.33,24.53Zm-9.46-6.78c.4.25,1,1.67,1.87,2.68l.49.29C29.39,19.68,28.68,18.09,27.87,17.75Zm15.79,8.86c-3-2.76-10.82-3.2-13.32-6.44a5.37,5.37,0,0,0,1.09,1.24L34.22,23C37.31,24.29,41.22,24.89,43.66,26.61Zm8.08,5.54a15.49,15.49,0,0,0,2.69,2.54l3.9,2.25.18-.3A40,40,0,0,1,51.74,32.15Zm7.66,3,.1-.18a5.18,5.18,0,0,0-1.93-1.37A11.6,11.6,0,0,1,59.4,35.1Zm-7.89-3.45c3.62.54,5.71,2.38,7.55,4l.16-.27C57.12,33.5,55.32,31.83,51.51,31.65Z"/><rect class="cls-2" x="-6.61" y="41.69" width="87.29" height="17.46" transform="translate(-24.81 40.96) rotate(-45)"/><path class="cls-4" d="M41.6,44c-.45.42-3,.6-4.1,1.85C38.65,45.08,41,44.86,41.6,44Zm-10,11.25c.67-1,2.29-1.9,2.59-2.72C33.9,53,32.1,54,31.55,55.29Zm4.43-5c-2.19,5.8-7.49,7-9.75,11.11C29.85,57.52,34.5,55.83,36,50.26ZM26.17,60.93c-.27.57-2.52,1.61-3.11,3.2C23.84,63,25.87,62,26.17,60.93Zm5.41-7.76c-2.64,2-3.79,5.67-9.91,10C27.69,60.44,29.79,54.53,31.58,53.17Zm-4.74,4.51c-.65,1-2.26,1.93-2.54,2.76C24.53,60,26.31,59,26.84,57.68Zm6.73-5.22c2.56-3.84,5.07-6,8.85-6.85C40.73,45.74,37.7,45.69,33.57,52.46Zm2,.18c.14-.51,1.68-1.82,2-3.22C37.07,50.53,35.69,51.76,35.57,52.64Zm-.75,2.94c3.81-3.66,7.64-3.85,9.39-9.32C41.74,51.92,36.83,52.43,34.82,55.58Zm3.35-6.19c1.06-.19,2.28-2.07,3.54-2.71C40.06,47.08,38.77,49.19,38.17,49.39Zm1.53-5.15c1-.59,2.94-.74,3.55-1.35C42.84,43.2,40.74,43.32,39.7,44.24Zm-.28,3.07c-.79.88-2.52,1.59-2.91,2.37C36.8,49.25,38.72,48.52,39.42,47.31ZM31.5,58.22c2.64-2,6-7.55,12.17-11.87C37.65,49.06,33.28,56.86,31.5,58.22ZM45,47.16C43,50.52,40.31,54,36.14,55,41.23,54.18,43.53,51,45,47.16ZM40.8,51.63c-.81.85-2.58,1.5-3,2.26C38.11,53.47,40.06,52.81,40.8,51.63Zm1.7-3.83c-.82,1.15-2.89,2.06-3.23,3.07C39.56,50.31,41.85,49.36,42.5,47.8Zm5.88-3.44c3.61-3.85,8.27-5.54,9.75-11.11C55.94,39.05,50.64,40.27,48.38,44.36Zm-6.55,2.3c.19-.49,1.88-1.62,2.3-3C43.56,44.73,42,45.8,41.83,46.66Zm.25.19c2.05-1.36,7.71-8.3,12.68-12.44C50.76,36.61,44.1,44.69,42.08,46.85ZM63.75,27c-.45.42-3,.6-4.1,1.85C60.8,28.07,63.11,27.85,63.75,27Zm-8,8.42c2.56-3.84,5.07-6,8.85-6.85C62.88,28.73,59.85,28.68,55.72,35.45Zm2,.18c.14-.51,1.68-1.82,2-3.22C59.22,33.52,57.84,34.75,57.72,35.63Zm2.6-3.25c1.06-.19,2.28-2.07,3.54-2.71C62.21,30.07,60.92,32.18,60.32,32.38ZM29,57c3.45-2.2,5.89-9.62,9.67-11.2C34.33,47.15,32.47,54.07,29,57Zm-9.72.94c1.34-.45,2.44-2.16,2.93-2.36C21.32,55.8,20.28,57.33,19.24,57.93Zm13.5-13.58C26.93,47.43,23.07,55.52,21.38,57,23.88,54.82,26.93,49.05,32.74,44.35Zm-2.27,2.92c-1.56.66-2.5,3-3.06,3.25C28.42,50.17,29.33,48.1,30.47,47.27Zm.5-.47c.24-.46,2.05-1.4,2.61-2.69C32.9,45.08,31.27,46,31,46.8Zm9.85-9.13c-6.72,4.31-5,6.45-10.3,10.19C36.72,43.73,35.09,41.78,40.82,37.67ZM52.33,25c.38-.36,2.43-.7,3.36-1.73C54.74,24,52.87,24.36,52.33,25ZM37.83,41c-2.51,5.64-7.89,6.57-10.38,10.51C31.28,47.9,36.05,46.47,37.83,41ZM53,25.42c-.6,1-2.14,2.06-2.37,2.91C50.78,27.85,52.49,26.75,53,25.42ZM47.09,33c3.67-1.86,6.8-9,10.74-10.17C53.39,23.74,50.88,30.41,47.09,33Zm15.15-7.38c-4.38,1.12-5.69,6.63-9.36,9.36C56.46,32.93,58.37,27,62.24,25.59ZM47.1,33.28c-6.3,5.52-6,6.06-9.4,9.24C41.21,40,42.72,37.5,47.1,33.28ZM38.19,41c2.16-2,10-9.21,12.24-13.2C46,33.59,39.55,39,38.19,41ZM30.94,50c.28-.43,2.16-1.24,2.82-2.48C33,48.41,31.3,49.18,30.94,50Zm9.15-7.37c-4.38,1.12-5.69,6.63-9.36,9.36C34.31,49.94,36.22,44,40.09,42.6Zm-4.57,4.62c4-3.18,4.94-4.7,8.09-4.79C41.92,42.51,40.28,42,35.52,47.22ZM21.1,59.9c-.41.31-2.51.43-3.55,1.35C18.58,60.66,20.49,60.51,21.1,59.9Zm9.75-10.54c-.44.76-3.48,2.68-4.49,4.76C27.54,52.47,30.29,50.68,30.85,49.36Zm8.09-3.43c8-2.29,10.19-9.78,16-13.75C48.14,36.33,45.69,43.42,38.94,45.93Zm-6.13,3.26c-6.82,4.15-9.27,11.24-16,13.75C24.77,60.65,27,53.16,32.81,49.19Zm8.16-7c5-1.16,7.09-4.47,8.29-8.43C47.53,37.26,45,40.93,41,42.2ZM33,47.73c.28-.44,2.16-1.24,2.82-2.47C35.11,46.17,33.4,46.94,33,47.73Zm8.35-6.82c1.34-.44,2.44-2.15,2.93-2.35C43.47,38.79,42.43,40.32,41.39,40.91Zm-2,1.6c.41-.47,2.91-.85,3.91-2.19C42.2,41.22,39.94,41.63,39.37,42.51ZM63,34.62c-.82.85-2.58,1.5-3,2.26C60.26,36.46,62.21,35.8,63,34.62ZM16.62,59.07c-.23.47-2,1.45-2.55,2.75C14.73,60.83,16.34,59.9,16.62,59.07Zm.11.51c2.1-2.07,6.36-4.81,8.46-8.86C21.18,55.79,18,57.5,16.73,59.58Zm18.9-19.26c-.88,1.1-3,1.92-3.38,2.9C32.56,42.69,34.91,41.85,35.63,40.32ZM16.48,62.8c-4.3,1.36-6.16,8.28-9.67,11.2C10.26,71.8,12.7,64.38,16.48,62.8Zm-5.05,6.67c2.55-3.84,5.06-6,8.84-6.85C18.58,62.75,15.55,62.7,11.43,69.47ZM43.53,40c2.5-2.18,5.55-8,11.36-12.65C49.08,30.42,45.22,38.51,43.53,40ZM37,39.77C43.57,36.3,47.2,28.32,53.35,24.84,46.19,28.42,42.62,36.59,37,39.77c.29-.45.59-.92.9-1.46-3.27,3.92-3.89,5.61-6.92,6.28C32.41,44.23,34,44.37,37,39.77Zm16.16-10c.24-.46,2.05-1.4,2.61-2.69C55.05,28.07,53.42,29,53.12,29.79ZM9.35,75.23c2.64-2,6.05-7.55,12.17-11.87C15.5,66.07,11.13,73.87,9.35,75.23Zm45.05-49c.31-.53,2.66-1.37,3.38-2.9C56.9,24.41,54.79,25.23,54.4,26.21ZM36.22,44.81c.66-1,2.27-1.92,2.55-2.75C38.54,42.53,36.76,43.51,36.22,44.81ZM45.7,51.4C52.33,47.94,55.88,40.63,62,37.14,54.86,40.73,51.37,48.24,45.7,51.4Zm-31.52,30c.21-.59,2.36-1.81,2.82-3.45C16.32,79.2,14.39,80.36,14.18,81.41ZM22.93,74c.38-.36,2.43-.7,3.36-1.73C25.34,72.93,23.47,73.28,22.93,74Zm.62.38c-.6,1-2.14,2.06-2.37,2.91C21.38,76.77,23.1,75.67,23.55,74.34Zm-3.2-9.53c-.82,1.15-2.89,2.06-3.23,3.07C17.41,67.32,19.7,66.37,20.35,64.81ZM73.61,25.28l0-.05c-3.35,3.07-6.76,5.86-8.2,9C67.27,31.28,70.77,28.32,73.61,25.28Zm-24,8.23c1-.35,1.92-2.42,3.06-3.25C51.06,30.92,50.12,33.22,49.56,33.51ZM21.17,68.78c-.64,1.26-2.52,2.49-2.71,3.54C18.66,71.72,20.76,70.44,21.17,68.78Zm2.41-3.36c-1.6,4.38-3.53,7.1-7,8.74C18.2,73.67,21.11,73.06,23.58,65.42Zm.56,4.88c-.68,1-2.31,1.87-2.62,2.69C21.77,72.53,23.58,71.59,24.14,70.3ZM40.25,54.77c-1,1-3.17,1.65-3.64,2.59C37,56.85,39.4,56.21,40.25,54.77ZM26.7,68.42c-2.52,5.63-7.45,6.07-9.5,9.2C21.05,74,24.9,73.86,26.7,68.42Zm-.83-3.31C29.6,63.36,33,56.38,36.94,55.3,32.46,56.1,29.74,62.67,25.87,65.11ZM43.22,51.29c2-3.19,5.87-6.34,8.79-9.59C48.48,45,44.75,47.91,43.22,51.29ZM26.38,65.55c-.92,1.07-3.07,1.81-3.5,2.78C23.22,67.8,25.6,67.05,26.38,65.55ZM48,48.1c3.74-1.75,7.09-8.73,11.08-9.81C54.61,39.09,51.89,45.66,48,48.1Zm5.64-6.89c2.64-2,6.05-7.55,12.17-11.87C59.8,32.05,55.43,39.85,53.65,41.21Zm-8.44,5.91C46,45.94,48,45,48.32,43.92,48.05,44.49,45.8,45.53,45.21,47.12Zm-1.39-1c6-2.71,8.12-8.62,9.91-10C51.08,38.17,49.94,41.83,43.82,46.14Zm9.88-7.86c.67-1,2.29-1.9,2.59-2.72C56.05,36,54.25,37,53.7,38.28Zm4.95-5.61c.3-.43,2.22-1.16,2.92-2.37C60.78,31.18,59.05,31.89,58.65,32.67Zm-4.84,7.67c-4.21,6-6.8,6.92-8.2,9.83C46.68,48.14,51.19,46.16,53.81,40.34Zm-22.15,17c-4.21,6-6.8,6.92-8.2,9.83C24.53,65.15,29,63.17,31.66,57.35ZM46.45,43.43c.23-.47,2-1.46,2.54-2.76C48.34,41.66,46.73,42.6,46.45,43.43ZM53.09,33c.28-.43,2.16-1.24,2.82-2.48C55.16,31.4,53.45,32.17,53.09,33ZM57,38.57c3.81-3.66,7.64-3.85,9.39-9.32C63.89,34.91,59,35.42,57,38.57ZM21.13,57.33c-1.08.9-3.34,1.31-3.91,2.19C17.63,59.05,20.13,58.67,21.13,57.33ZM61.42,33.86c.29-.56,2.58-1.51,3.23-3.07C63.83,31.94,61.76,32.85,61.42,33.86ZM48.5,37.11c1.19-1.65,3.94-3.44,4.5-4.76C52.56,33.11,49.52,35,48.5,37.11ZM51.11,40c3.45-2.21,5.89-9.62,9.66-11.2C56.47,30.14,54.62,37.06,51.11,40Zm-2.59,8.56c-.91,1.07-3.06,1.81-3.49,2.78C45.37,50.79,47.75,50,48.52,48.54Zm-5.2,3.23c-.64,1.26-2.52,2.48-2.71,3.54C40.81,54.71,42.91,53.43,43.32,51.77Zm2.41-3.36c-1.6,4.38-3.53,7.1-7,8.74C40.35,56.66,43.26,56.05,45.73,48.41ZM23.28,72.33c.79-.37,1.55-2.08,2.46-2.84C24.51,70.15,23.72,72.05,23.28,72.33ZM38.49,56.87c-.27.45-2.13,1.3-2.75,2.55C36.47,58.49,38.15,57.67,38.49,56.87ZM26.69,69.71c.58-1,2.09-2.11,2.31-3C28.8,67.23,27.12,68.36,26.69,69.71ZM38.88,42.57c2.1-2.07,6.36-4.81,8.46-8.86C43.33,38.78,40.19,40.49,38.88,42.57ZM4.69,74.69c-.62.94-2.09,1.83-2.49,2.63l0,0C2.63,76.83,4.2,75.9,4.69,74.69ZM17.27,64.32c-.79.88-2.52,1.59-2.91,2.37C14.65,66.26,16.57,65.53,17.27,64.32ZM9.43,70.18c-2.13,1.62-3.29,4.3-6.84,7.53l.33.32C6.44,75.11,8,71.25,9.43,70.18ZM1.54,76.66l.3.29a110.17,110.17,0,0,1,8.62-8.52C7.94,69.82,4.35,73.55,1.54,76.66ZM10.66,66.2c-4.36,2.65-6.93,6.5-10,9.59l.41.42C4.52,73,6.79,68.84,10.66,66.2Zm7.28-6.59c-4.38,1.12-5.69,6.63-9.36,9.36C12.16,67,14.07,61,17.94,59.61ZM4.83,80l.39.38a18.87,18.87,0,0,0,4.29-6A40.67,40.67,0,0,1,4.83,80ZM4,79.11l.2.21c1.2-1.19,2.42-2.39,3.51-3.6C6.46,76.88,5.19,78,4,79.11ZM11.61,64.5c-.75.92-2.46,1.69-2.82,2.49C9.07,66.55,11,65.74,11.61,64.5Zm-8.19,14,.13.14A1.81,1.81,0,0,0,4,77.94,2.07,2.07,0,0,1,3.42,78.53Zm8.57-9C11.75,70,10,71,9.4,72.3,10.07,71.32,11.7,70.4,12,69.58Zm1.84-2.31c-2.19,5.8-7.49,7-9.75,11.11C7.7,74.53,12.35,72.84,13.83,67.27ZM35.15,40l-.1.1c.21-.09.42-.18.63-.25A5.26,5.26,0,0,0,35.15,40Zm8.15-7.22a12.75,12.75,0,0,1-5.65,4.73L37,38.1C39.5,37,41.67,36,43.3,32.74ZM40,35.36a14.21,14.21,0,0,0,3.72-4l-1.17,1.16A13.42,13.42,0,0,1,40,35.36ZM5.53,80.64l.13.13c3-2.67,5.85-7.57,9.13-8.46C11,73,8.52,77.69,5.53,80.64ZM61.06,14.06,55.16,20A47.4,47.4,0,0,0,61.06,14.06ZM53.3,21.82,51.92,23.2A6.94,6.94,0,0,0,53.3,21.82ZM10.77,64.35a15.19,15.19,0,0,0,3.6-3.6ZM25,50.29l-1.1,1L17.13,58l-.79.79-.64.64C19.1,56.9,20.63,54.45,25,50.29Zm4.23-4.36L27.09,48a15.37,15.37,0,0,1-1.27,1.28l-.42.41A17.3,17.3,0,0,0,29.18,45.93ZM13.71,62.27c-.75.91-2.46,1.68-2.82,2.47C11.17,64.3,13.05,63.5,13.71,62.27ZM.58,74.53A9.38,9.38,0,0,0,2.91,72.2Zm8.07-8.07-.05.06a6.42,6.42,0,0,1-.52.51L4.5,70.61a3.81,3.81,0,0,0-.29.52C5.37,69.52,8,67.77,8.65,66.46Zm1.56,18.86.25.25a9.39,9.39,0,0,0,3.44-3.91A11.75,11.75,0,0,1,10.21,85.32Zm23.58-20c-.74,1.21-2.72,2.28-3,3.31C31.05,68,33.26,66.88,33.79,65.27Zm-8.52,7.09A26.37,26.37,0,0,1,29.82,70l.64-.63C28.44,70.31,26.53,70.94,25.27,72.36Zm17.53-16c-3.26.91-5.25,5-7.57,8.16L36.4,63.4C38.41,60.6,40.37,57.33,42.8,56.41ZM18.23,81.57l.65-.64a10.43,10.43,0,0,1-1.19,1A5.09,5.09,0,0,0,18.23,81.57Zm1.28-1.28L21.8,78c1.95-2.39,3.88-5.06,6.05-6l.1-.1C24.53,72.93,22.25,77.38,19.51,80.29Zm-7.27,7.06.1.11,4.53-4.52C14.54,85,13.23,86.31,12.24,87.35ZM67.88,31.4c-.1.29-.21.57-.32.84l.06-.06C67.71,31.93,67.8,31.67,67.88,31.4Zm-9.12,9a7.09,7.09,0,0,1,1.64-1l.74-.74C60.16,39.22,59.07,39.72,58.76,40.35ZM46.88,52.61c.39-.26.78-.55,1.16-.85l5.52-5.52c1.47-1.64,3-3.39,4.67-5.09C52.06,46.84,50.21,49.35,46.88,52.61Zm-7,7.28.47-.48C40.23,59.56,40.07,59.72,39.92,59.89ZM43.67,56a6.72,6.72,0,0,1,1.15-1L46,53.83a2.48,2.48,0,0,0,.32-.54C45.61,54.26,44,55.16,43.67,56ZM9.41,84.52l.18.18a6,6,0,0,0,2.05-2.42A14.74,14.74,0,0,1,9.41,84.52ZM8.9,84l.29.3A17,17,0,0,0,13,79.13,24,24,0,0,1,8.9,84Zm9-9.81c-4.14,1.87-7.5,6.14-9.77,9.07l.2.21A54.35,54.35,0,0,1,17.93,74.2Zm-1.59-.32c-.27.45-2.13,1.3-2.75,2.55C14.32,75.5,16,74.68,16.34,73.88Zm1.76-2.1c-1,1-3.17,1.65-3.64,2.59C14.82,73.86,17.25,73.22,18.1,71.78ZM7,82.07l.35.35c2.07-2.21,4.21-4.78,6.63-7.25C10.7,78.16,8.65,80.26,7,82.07ZM52.68,23.41c.79-.37,1.55-2.08,2.45-2.84C53.91,21.23,53.12,23.13,52.68,23.41Zm-41,63.39.22.22C15.11,84,19.48,79.55,21,76.74A103.53,103.53,0,0,1,11.68,86.8ZM11,86.06l.16.16C15.68,82.29,19,76.56,24,73.76,18.32,76.58,14.9,82.23,11,86.06Zm9.7-12.64c-4.35,1.22-6.43,8.06-10,10.86C14.14,82.19,16.82,74.87,20.65,73.42Zm-2.92-2.26c-4.91,2.46-8.1,6.76-11.44,10.24l.23.24C10.3,78.05,13.36,73.64,17.73,71.16ZM13,80.47c.14-.51,1.68-1.82,2-3.22C14.53,78.36,13.15,79.59,13,80.47ZM66,29.13a16.69,16.69,0,0,0,6.31-5.19L72,23.62A29.59,29.59,0,0,1,66,29.13ZM49.3,49.75C45.31,52,44,54.09,42,56.24,44,54.88,44.34,53.89,49.3,49.75ZM37.14,60.24c-.46,1.11-1.84,2.34-2,3.22C35.32,63,36.86,61.64,37.14,60.24Zm-2,1.88c-1.44,2.65-6.64,7.75-8.82,8.28C29.76,69.83,34.2,64.6,35.13,62.12Zm-10.4,7.5c3.72-2.45,7.08-7.12,11.35-11.46C29.91,63.85,28.06,66.36,24.73,69.62Zm3.18-.56c2.65-2,6.05-7.55,12.17-11.87C34.06,59.9,29.7,67.7,27.91,69.06Zm-.8-18.28c-1.73,3.49-4.22,7.16-8.29,8.43C23.82,58.05,25.91,54.74,27.11,50.78Zm0,16c-4,2.2-5.31,4.34-7.33,6.49C21.87,71.89,22.19,70.9,27.15,66.76ZM68.6,26.42c.23-.47,2-1.46,2.54-2.76C70.49,24.65,68.88,25.59,68.6,26.42Zm1.87.49c-.27.57-2.52,1.61-3.11,3.2C68.14,28.93,70.17,27.93,70.47,26.91Zm-3.34,3.24C65.18,33.51,62.46,37,58.29,38,63.38,37.17,65.68,34,67.13,30.15Zm6.1-5.26-.35-.35a10.76,10.76,0,0,0-2.35,2.81A25.76,25.76,0,0,1,73.23,24.89ZM32.61,51.42c-4,2.2-10.66,10.29-12.68,12.44C22,62.5,27.64,55.56,32.61,51.42Zm11-18.93c.22-.59,2.37-1.81,2.83-3.45C45.72,30.28,43.79,31.44,43.57,32.49ZM13.42,69.65c.14-.51,1.68-1.82,1.95-3.22C14.92,67.54,13.54,68.77,13.42,69.65Zm8.56-9c-.57,1-2.09,2.11-2.3,3C19.87,63.18,21.56,62.05,22,60.7Zm-8.61,3.53c4-3.18,4.94-4.7,8.09-4.79C19.77,59.52,18.13,59,13.37,64.23Zm6.08-3.18c-.45.42-3,.6-4.1,1.85C16.51,62.09,18.81,61.87,19.45,61.05Zm-.79,7.59c-.82.85-2.59,1.5-3,2.26C16,70.48,17.91,69.82,18.66,68.64Zm11.2-9.93C26.33,62,22.6,64.92,21.07,68.3,23.1,65.11,26.94,62,29.86,58.71ZM71.2,22.86l-.32-.32c-2.83,2.9-5.5,6.07-6.65,7.3C65.5,29,68.17,26,71.2,22.86ZM22.83,64.17C20.88,67.53,18.16,71,14,72,19.08,71.19,21.38,68,22.83,64.17Zm-.77-.9c-2.47,5.66-7.38,6.17-9.38,9.32C16.48,68.93,20.31,68.74,22.06,63.27Zm17.82-9.12c-7.17,3.59-10.66,11.1-16.33,14.27C30.18,65,33.73,57.64,39.88,54.15ZM16,66.4c1.06-.19,2.28-2.07,3.54-2.71C17.91,64.09,16.62,66.2,16,66.4ZM59.11,22.76c.29-.45.58-.92.9-1.46-3.27,3.91-3.89,5.61-6.92,6.28,1.47-.36,3-.22,6-4.82a24.87,24.87,0,0,0,6.57-5.43l-.3-.3A25.47,25.47,0,0,1,59.11,22.76Zm-4.44.68c4.08-2.82,7.74-2.66,10.29-6.82l-.08-.08C61.59,20.87,57,20.82,54.67,23.44Zm-2,7.41c6.2-4.13,4.57-6.08,10.3-10.19C56.25,25,58,27.11,52.67,30.85ZM49.6,34.52C53.43,30.89,58.2,29.46,60,24,57.47,29.65,52.09,30.58,49.6,34.52ZM60.34,24c1.08-1,3.6-3.33,6.12-5.88l-.23-.24A73.93,73.93,0,0,0,60.34,24Zm1.82-5.66a9.62,9.62,0,0,0,2.35-2.17L64.36,16A13,13,0,0,1,62.16,18.35ZM46.6,28.7c3.85-3.62,7.7-3.76,9.5-9.2C53.58,25.13,48.65,25.57,46.6,28.7Zm9.49-7.91c.58-1,2.09-2.11,2.31-3C58.2,18.31,56.52,19.44,56.09,20.79Zm-.38.69c2.7-.45,6-3.75,7.76-6.35L63.31,15C61.18,17.66,57.47,21.06,55.71,21.48Zm4.49-1.82c.25-.58,2.45-1.7,3-3.31C62.45,17.56,60.47,18.63,60.2,19.66Zm-2.89.48c1.46-1.11,3.15-3.3,5.4-5.76L62.38,14C60,16.74,58.28,19.4,57.31,20.14Zm1.06,7.66c.66-1,2.27-1.92,2.55-2.75C60.69,25.52,58.9,26.5,58.37,27.8Zm1.48-2.29c2.81-2.05,4.34-4,7.08-6.91l-.13-.14C63,22,62.75,22.81,59.85,25.51Zm1.67,0c.41-.47,2.91-.85,3.91-2.19C64.35,24.21,62.09,24.62,61.52,25.5Zm-3.85,4.71c4-3.18,4.94-4.7,8.09-4.79C64.07,25.5,62.43,25,57.67,30.21Zm7.73-4.34c-.41.32-2.51.44-3.55,1.36C62.88,26.64,64.79,26.49,65.4,25.87Zm-4.31,3.05c4.29-1.23,6.91-4,9.32-6.84L70,21.64C67.34,24.62,64.9,27.5,61.09,28.92Zm2-3.73a10.05,10.05,0,0,0,6.3-4.11L69,20.7A11.93,11.93,0,0,1,63.12,25.19Zm3.16,1.49c-.57,1-2.09,2.11-2.3,3C64.17,29.16,65.86,28,66.28,26.68Zm-.6-3.7a22.32,22.32,0,0,0,2.62-3l-.22-.22A22.86,22.86,0,0,1,65.68,23ZM58,28.25c-.75.91-2.46,1.68-2.82,2.47C55.47,30.28,57.35,29.48,58,28.25Zm8.46-6.7c-.86.23-1.89,1.76-2.93,2.36C64.88,23.46,66,21.75,66.47,21.55Zm-5.44,4c1.6-1.58,4.47-3.55,6.66-6.2l-.25-.26C64.42,22.39,62.1,23.85,61,25.56Z"/><path class="cls-3" d="M51.35,33.48c1-.19,2.27-2.08,3.54-2.71C53.23,31.17,51.94,33.28,51.35,33.48Zm-4.6,3.07c2.55-3.84,5.07-6,8.84-6.85C53.91,29.83,50.88,29.78,46.75,36.55Zm2,.18c.14-.51,1.68-1.83,2-3.22C50.24,34.61,48.86,35.85,48.74,36.73Zm6-8.6c-.46.42-3,.6-4.11,1.85C51.83,29.17,54.13,29,54.78,28.13ZM30,47c8-2.29,10.19-9.78,16-13.75C39.16,37.43,36.71,44.52,30,47Zm9.43-1.57c3.62-3.85,8.28-5.54,9.76-11.11C47,40.15,41.67,41.37,39.4,45.46ZM33.11,48c2-1.36,7.71-8.3,12.67-12.44C41.79,37.71,35.12,45.79,33.11,48ZM29.2,50.49c1.05-.19,2.27-2.07,3.54-2.71C31.08,48.18,29.79,50.29,29.2,50.49Zm-2.61,3.25c.14-.51,1.68-1.82,2-3.22C28.09,51.62,26.71,52.86,26.59,53.74Zm-2-.18c2.55-3.84,5.07-6,8.84-6.85C31.76,46.84,28.73,46.79,24.6,53.56Zm8.25-5.8c.2-.49,1.88-1.62,2.3-3C34.58,45.83,33.07,46.9,32.85,47.76Zm3.15.5c-2,3.36-4.66,6.86-8.83,7.87C32.26,55.28,34.55,52.13,36,48.26ZM49.68,33.77c.3-.43,2.21-1.16,2.91-2.37C51.8,32.28,50.07,33,49.68,33.77ZM37.47,44.53c.24-.47,2-1.46,2.55-2.76C39.36,42.76,37.75,43.7,37.47,44.53Zm-2.63,2.71c6-2.71,8.13-8.62,9.92-10C42.11,39.27,41,42.93,34.84,47.24ZM22.69,58.45c-4.22,6-6.81,6.92-8.21,9.83C15.55,66.25,20.07,64.27,22.69,58.45Zm-.17.87c2.65-2,6.05-7.55,12.17-11.87C28.67,50.16,24.31,58,22.52,59.32Zm11.73-6.94c2-3.18,5.86-6.33,8.78-9.58C39.51,46.08,35.78,49,34.25,52.38ZM17.4,66.65c-.92,1.07-3.07,1.81-3.49,2.78C14.24,68.9,16.62,68.15,17.4,66.65ZM31.83,52.73c-.82.85-2.58,1.5-3,2.26C29.14,54.57,31.09,53.91,31.83,52.73Zm12.9-13.36c.67-1,2.29-1.89,2.58-2.71C47.07,37.12,45.28,38.08,44.73,39.37ZM33.53,48.9C32.7,50.05,30.64,51,30.29,52,30.58,51.41,32.88,50.46,33.53,48.9Zm-7.68,7.78c3.81-3.66,7.64-3.85,9.38-9.32C32.77,53,27.86,53.53,25.85,56.68Zm10.39-8.46C37,47,39,46,39.35,45,39.08,45.59,36.83,46.63,36.24,48.22Zm-19.35,18C20.62,64.46,24,57.48,28,56.4,23.48,57.2,20.77,63.77,16.89,66.21ZM41.08,53.15c2.65-2,6.05-7.55,12.17-11.87C47.23,44,42.87,51.79,41.08,53.15ZM26.16,63.22c-1.44,2.64-6.64,7.75-8.82,8.28C20.79,70.93,25.23,65.69,26.16,63.22Zm4-1.18c-.68,1.25-2.6,2.41-2.82,3.46C27.57,64.91,29.72,63.69,30.17,62Zm-3.09,3.71c-3.31,5.16-8.31,4.93-10.79,7.71C20.65,70.45,24.52,70.83,27.08,65.75ZM48.31,46.21c-1.45,2.64-6.64,7.75-8.82,8.28C42.94,53.92,47.38,48.68,48.31,46.21Zm-8.43,6.3c-2.53,5.63-7.46,6.07-9.5,9.2C34.23,58.09,38.08,58,39.88,52.51ZM55.15,40.33C57.2,39,57.51,38,62.48,33.84,58.48,36,57.16,38.18,55.15,40.33Zm-6.79,7.22c.14-.51,1.68-1.82,2-3.22C49.86,45.44,48.48,46.67,48.36,47.55Zm-2.42,3.81c3.52-2.1,6.2-9.41,10-10.86C51.63,41.71,49.54,48.55,45.94,51.36ZM56.85,40.07c.24-.46,2-1.4,2.62-2.69C58.78,38.35,57.15,39.25,56.85,40.07ZM47,49.36c-.73,1.21-2.72,2.28-3,3.31C44.22,52.09,46.43,51,47,49.36ZM34.35,52.87c-.64,1.26-2.53,2.48-2.72,3.54C31.84,55.81,33.94,54.53,34.35,52.87Zm-17.1,9.6c3.62-3.85,8.28-5.54,9.76-11.11C24.82,57.16,19.52,58.38,17.25,62.47Zm5.36-8.2c-2.65,2-3.8,5.67-9.92,10C18.71,61.54,20.82,55.63,22.61,54.27Zm7.83-5.86c-.79.88-2.52,1.59-2.91,2.37C27.83,50.35,29.74,49.62,30.44,48.41ZM18.93,70.16c2.65-2,6.05-7.55,12.17-11.87C25.08,61,20.72,68.8,18.93,70.16ZM20,58.09c3.45-2.21,5.88-9.62,9.66-11.2C25.35,48.25,23.49,55.17,20,58.09Zm12.64-13c-.46.42-3,.6-4.11,1.85C29.68,46.18,32,46,32.63,45.14ZM22.58,56.38c.67-1,2.29-1.89,2.58-2.71C24.92,54.13,23.13,55.09,22.58,56.38ZM34.28,44c-.41.32-2.51.44-3.56,1.36C31.76,44.75,33.67,44.6,34.28,44ZM18.18,67.86c-4,2.2-5.32,4.34-7.33,6.49C12.9,73,13.21,72,18.18,67.86ZM30.91,55.25c-7.17,3.59-10.66,11.1-16.33,14.26C21.21,66.05,24.75,58.74,30.91,55.25ZM17.2,62c-.27.57-2.52,1.61-3.11,3.2C14.87,64.05,16.89,63.05,17.2,62Zm26.92-28c.27-.44,2.16-1.24,2.81-2.48C46.18,32.5,44.48,33.27,44.12,34.06ZM14.61,66.52c-1.61,4.38-3.54,7.1-7,8.74C9.22,74.76,12.14,74.16,14.61,66.52ZM12.2,69.88c-.64,1.26-2.53,2.48-2.72,3.54C9.69,72.82,11.79,71.54,12.2,69.88Zm-2.52-.14c-.82.85-2.58,1.5-3,2.26C7,71.58,8.94,70.92,9.68,69.74ZM27.11,59.26c-6.17,5.69-8,8.2-11.35,11.46C19.47,68.27,22.83,63.6,27.11,59.26Zm4.17-3.39c-1,1-3.17,1.64-3.65,2.59C28,58,30.42,57.31,31.28,55.87Zm-17.43,9.4C11.9,68.63,9.19,72.13,5,73.14,10.11,72.29,12.41,69.14,13.85,65.27Zm4-6.49c-.66,1-2.26,1.93-2.55,2.76C15.56,61.07,17.34,60.08,17.87,58.78ZM54.57,25c1.34-.44,2.44-2.15,2.92-2.35C56.64,22.88,55.6,24.41,54.57,25Zm-2,1.6c.42-.47,2.91-.85,3.92-2.19C55.37,25.31,53.11,25.72,52.54,26.6ZM14.31,73.43c.79-.37,1.54-2.08,2.45-2.84C15.53,71.25,14.75,73.15,14.31,73.43Zm22.41-15c-.59,1-2.14,2.06-2.37,2.91C34.56,60.86,36.27,59.76,36.72,58.43ZM11,65c2-1.36,7.71-8.3,12.67-12.44C19.64,54.72,13,62.8,11,65Zm3.61,10.48c-.59,1-2.14,2.06-2.37,2.91C12.41,77.87,14.12,76.77,14.57,75.44Zm27-19.63c-4.44.94-7,7.61-10.75,10.17C34.53,64.12,37.67,57,41.61,55.81ZM22,74c2.15-2,10-9.21,12.24-13.2C29.8,66.6,23.33,72,22,74ZM63.23,36.14c2.41-1.83,5.44-6.58,10.58-10.67l-.21-.21C68.51,28.52,64.84,34.92,63.23,36.14ZM14.3,80.87c6.2-4.13,4.57-6.08,10.29-10.19C17.88,75,19.58,77.13,14.3,80.87ZM41.56,56.32c-.88,1.1-3,1.92-3.39,2.9C38.49,58.69,40.83,57.85,41.56,56.32Zm12.58-30c5-1.17,7.09-4.47,8.29-8.43C60.7,21.35,58.22,25,54.14,26.29ZM17.72,70.81c.57-1,2.09-2.11,2.3-3C19.83,68.33,18.14,69.46,17.72,70.81ZM14,75.06c.37-.36,2.43-.7,3.36-1.73C16.36,74,14.5,74.38,14,75.06Zm.28,5.22c-1.55.66-2.5,3-3.05,3.25C12.19,83.18,13.1,81.11,14.24,80.28Zm.5-.47c.25-.46,2.06-1.4,2.62-2.69C16.68,78.09,15.05,79,14.74,79.81ZM29.51,58c-.26.45-2.12,1.3-2.75,2.55C27.49,59.59,29.17,58.77,29.51,58Zm-4.7,8.4c-.73,1.21-2.72,2.28-3,3.31C22.07,69.1,24.28,68,24.81,66.37Zm5-8.12c1.58-.5,4.5-1.1,7-8.74C35.15,53.89,33.22,56.61,29.79,58.25Zm6.84-7c1.07-2,5.59-4,8.21-9.83C40.62,47.42,38,48.36,36.63,51.27ZM39,49.2c3.73-1.75,7.09-8.73,11.07-9.81C45.63,40.19,42.92,46.76,39,49.2Zm1.29,1.65c-4,2.2-5.32,4.34-7.33,6.49C35.05,56,35.36,55,40.33,50.85Zm-.78-1.21c-.92,1.07-3.07,1.81-3.49,2.78C36.39,51.89,38.77,51.14,39.55,49.64ZM28.16,61.34c-.45,1.11-1.83,2.34-1.95,3.22C26.35,64.05,27.89,62.74,28.16,61.34Zm24.9-23.1C45.89,41.83,42.4,49.34,36.73,52.5,43.36,49,46.9,41.73,53.06,38.24ZM48,39.67c3.81-3.66,7.64-3.85,9.38-9.32C54.92,36,50,36.52,48,39.67Zm6-4c-.82.85-2.58,1.5-3,2.26C51.29,37.56,53.24,36.9,54,35.72Zm-4.66,3.4c5.09-.85,7.39-4,8.83-7.87C56.2,34.61,53.49,38.11,49.32,39.12Zm-.06,3.13c-6.17,5.69-8,8.2-11.35,11.46C41.62,51.26,45,46.59,49.26,42.25Zm.52-.8c.37-.51,2.79-1.15,3.65-2.59C52.45,39.87,50.26,40.5,49.78,41.45Zm6.72-5.59c-.64,1.26-2.53,2.48-2.72,3.54C54,38.8,56.09,37.52,56.5,35.86Zm1.89-4.65C59.17,30,61.19,29,61.5,28,61.23,28.58,59,29.62,58.39,31.21ZM42.13,41.08c3.46-2.21,5.89-9.62,9.67-11.2C47.5,31.24,45.64,38.16,42.13,41.08ZM39.87,53.8c.57-1,2.09-2.11,2.3-3C42,51.32,40.29,52.45,39.87,53.8Zm4.8-11.49c2.65-2,6-7.55,12.17-11.87C50.82,33.15,46.46,41,44.67,42.31ZM52.44,35c.29-.56,2.59-1.51,3.24-3.07C54.85,33,52.79,34,52.44,35ZM33.83,57.51c-4.35,1.21-6.44,8.05-10,10.86C27.31,66.28,30,59,33.83,57.51Zm3.49-3.12c-.69,1-2.32,1.87-2.62,2.69C34.94,56.62,36.75,55.68,37.32,54.39Zm6.59-18.34c3.57-2,5.49-8,9.36-9.36C48.88,27.81,47.58,33.32,43.91,36.05ZM51.66,41c-.26.45-2.12,1.3-2.75,2.55C49.64,42.58,51.32,41.76,51.66,41ZM36.46,56.42c.79-.37,1.54-2.08,2.45-2.84C37.68,54.24,36.9,56.14,36.46,56.42ZM20.88,59.81c-3.52,3.28-7.25,6.21-8.78,9.58C14.12,66.21,18,63.06,20.88,59.81ZM7.36,75c-.26.45-2.12,1.3-2.75,2.55C5.34,76.6,7,75.78,7.36,75Zm10.37-5.46c-2.53,5.63-7.46,6.07-9.5,9.2C12.08,75.1,15.93,75,17.73,69.52ZM6.09,81.2l.19.2A5.51,5.51,0,0,0,8,79.06,11.9,11.9,0,0,1,6.09,81.2Zm5.59-6.68C9.09,75.24,7.3,78,5.52,80.63l.22.23C7.59,78.22,9.44,75.37,11.68,74.52ZM4.2,79.31A37.94,37.94,0,0,1,9,75.3,18.28,18.28,0,0,0,3.85,79Zm.72.72.15.15A4.63,4.63,0,0,0,6,78.35,8.4,8.4,0,0,1,4.92,80ZM15.17,71.4c-.69,1-2.32,1.87-2.62,2.69C12.79,73.63,14.6,72.69,15.17,71.4Zm4.24,1.93c-.88,1.1-3,1.92-3.39,2.9C16.34,75.7,18.68,74.86,19.41,73.33Zm.05-.51c-4.44.94-7,7.61-10.74,10.17C12.38,81.13,15.52,74,19.46,72.82Zm-11.73,10,.22.22a30.77,30.77,0,0,0,4.11-5.22A62.29,62.29,0,0,1,7.73,82.84ZM36.11,58.05c.37-.36,2.43-.7,3.36-1.73C38.51,57,36.65,57.37,36.11,58.05ZM6.75,81.86l.33.33C9.54,79.37,12,76.57,15,74.86,11.65,76.52,9.1,79.18,6.75,81.86Zm6.33-17.49C10.62,70,5.71,70.54,3.7,73.69,7.51,70,11.34,69.84,13.08,64.37ZM.46,75.57l0,0,.06-.13A1,1,0,0,1,.46,75.57ZM12.75,62.36l-1.46,1.47a2.54,2.54,0,0,0-.59.94C10.87,64.35,12.13,63.46,12.75,62.36Zm-.21,2.1C7,67,2.82,73.84.81,75.93l0,0C3.42,73.69,6.77,68.53,12.54,64.46ZM0,75.11l.07.07a16.79,16.79,0,0,0,3.19-3.33Zm4.51-4.5,0,0a.36.36,0,0,1,0,.1A.61.61,0,0,1,4.51,70.61ZM1.24,76.35l.24.24a10.25,10.25,0,0,1,4.33-3.18A8.67,8.67,0,0,0,1.24,76.35Zm7.89-3.47c-1,1-3.17,1.65-3.65,2.59C5.85,75,8.27,74.32,9.13,72.88Zm-.37-.62a25.05,25.05,0,0,0-6.59,5l.29.3A27.62,27.62,0,0,1,8.76,72.26ZM3,78.11l.11.11c.6-.65,1.21-1.3,1.85-2Zm17.73-5.33C27.35,69.31,31,61.33,37.12,57.85,30,61.43,26.39,69.6,20.73,72.78c.29-.45.59-.92.91-1.46-3.27,3.92-3.89,5.6-6.93,6.28C16.19,77.24,17.73,77.38,20.73,72.78Zm-9.35-6.87C10.55,67.06,8.49,68,8.14,69,8.43,68.42,10.73,67.47,11.38,65.91ZM58.26,41a3,3,0,0,1,.91-.41l.34-.34A3.35,3.35,0,0,0,58.26,41ZM36.39,63.27c-1.15.49-2,1.88-2.54,2.69l1.22-1.23A7,7,0,0,1,36.39,63.27Zm.5-.47a5.11,5.11,0,0,1,1-.86l1.42-1.41a2.91,2.91,0,0,0,.23-.42C38.83,61.08,37.2,62,36.89,62.8ZM19.3,80.22c.56-.44,1.07-.86,1.52-1.24l2.29-2.29A23.86,23.86,0,0,0,19.3,80.22Zm3.84-4.7a10.11,10.11,0,0,1,2-.89l.54-.54C24.67,74.55,23.53,74.92,23.14,75.52ZM41.67,58.13l3-3A15.77,15.77,0,0,0,41.67,58.13Zm-16.5,15.8c1.34-.45,2.44-2.16,2.92-2.36C27.24,71.8,26.2,73.33,25.17,73.93Zm13.5-13.58c-4.35,2.31-7.61,7.42-9.68,10.46l1.29-1.28A50.4,50.4,0,0,1,38.67,60.35ZM70.24,29.56l.11-.11c0-.09.07-.17.11-.25C70.39,29.31,70.32,29.44,70.24,29.56Zm2.22-2.24,0,0h0Zm-9.88,9.9.33-.33a4.49,4.49,0,0,1-1.27.59A5.11,5.11,0,0,0,62.58,37.22ZM42.88,55.77c.29-.45.59-.92.91-1.46-3.28,3.92-3.89,5.6-6.93,6.28,1.48-.36,3-.22,6-4.82a19.45,19.45,0,0,0,4.13-3l2.2-2.2c3-3.28,5.77-7,9.27-9.27l.14-.14C51.9,44.92,48.37,52.68,42.88,55.77ZM10.19,64.92l-.48.48a4.81,4.81,0,0,1,.88-.61A2.67,2.67,0,0,0,10.19,64.92Zm-.07,20.31.19.2c.21-.53.4-1.08.57-1.64C10.64,84.27,10.39,84.75,10.12,85.23Zm1.1-.69c3.84-3.63,8.6-5.06,10.39-10.51C19.1,79.67,13.71,80.6,11.22,84.54Zm12.65-8.93c-4.38,1.12-5.69,6.63-9.36,9.36a6.56,6.56,0,0,0,1.12-.8L16.8,83C19.09,80.4,20.91,76.66,23.87,75.61Zm-7.35,1.75c-2.93,1.55-5.37,4.38-7.28,7l.32.32A43.71,43.71,0,0,1,16.52,77.36ZM8.81,83.92l0,0L9,83.73ZM30.88,66.29c-6.31,5.52-6,6.06-9.41,9.24C25,73,26.49,70.51,30.88,66.29ZM10.88,86l.13.13c1.33-1.34,3.17-2.7,3.61-3.75C14.27,83,12.19,84.38,10.88,86Zm.52.53.35.34a24.25,24.25,0,0,1,4.83-4.66A25.14,25.14,0,0,0,11.4,86.52Zm6.13-6c-.75.92-2.45,1.69-2.81,2.48C15,82.54,16.88,81.74,17.53,80.5Zm5.12-4.92c2.11-2.07,6.36-4.81,8.46-8.86C27.1,71.79,24,73.5,22.65,75.58ZM20,77.82c.66-1,2.27-1.92,2.55-2.75C22.32,75.54,20.53,76.52,20,77.82Zm-.36.45c-.76.91-2.46,1.68-2.82,2.47C17.09,80.3,19,79.5,19.64,78.27ZM8.45,83.57l.28-.27-.29.25ZM51.94,41.24c1.58-.5,4.5-1.1,7-8.74C57.3,36.87,55.37,39.6,51.94,41.24Zm4.46-5.87c2-3.18,5.86-6.33,8.78-9.58C61.65,29.07,57.92,32,56.4,35.37Zm5.15-6.92c2.64-2.8,5.82-4.46,7.93-7.31l-.26-.25C66.7,23.91,63.26,25.36,61.55,28.45Zm7.27-8-.12-.13a5.83,5.83,0,0,0-1.82,2A15.71,15.71,0,0,1,68.82,20.49ZM57.3,27.78c-.57,1-2.08,2.11-2.3,3C55.2,30.26,56.88,29.13,57.3,27.78Zm1.48,6.48c1.07-2,5.59-4,8.21-9.83C62.77,30.41,60.18,31.35,58.78,34.26Zm5.5-10.19A14.71,14.71,0,0,0,68,19.7l-.22-.21A19,19,0,0,1,64.28,24.07Zm2.5-5.63q-.34.31-.72.6a6.41,6.41,0,0,0,.79-.53Zm3.81,3.81-.09-.08c-.12.16-.24.32-.35.49ZM67.34,19l-.09-.09c-4,2.65-10.09,10-12,12C57.23,29.63,62.52,23.18,67.34,19ZM24.25,50.87l-1.56,1.55A12,12,0,0,0,24.25,50.87ZM59.62,27.52c.24-.47,2-1.46,2.55-2.76C61.51,25.75,59.9,26.69,59.62,27.52Zm7.2-2.22a27.28,27.28,0,0,0,3.36-3.45l-.25-.26A29.41,29.41,0,0,1,66.82,25.3ZM62,36.79c.57-1,2.09-2.11,2.3-3C64.13,34.31,62.44,35.44,62,36.79Zm-3.41,2.62c.79-.37,1.54-2.08,2.45-2.84C59.83,37.23,59.05,39.13,58.61,39.41ZM62,35.5c-2.53,5.63-7.46,6.07-9.5,9.2C56.38,41.08,60.23,40.94,62,35.5ZM49.22,48.74c-3.31,5.16-8.3,4.93-10.78,7.71C42.8,53.44,46.67,53.82,49.22,48.74Zm12-16.55c3.38-1.59,6.46-7.47,10-9.37l-.09-.09C67.27,24.35,64.71,30,61.19,32.19ZM52.32,45c-.68,1.25-2.6,2.41-2.82,3.46C49.72,47.9,51.87,46.67,52.32,45Zm6.55-9.54c5.37-2.8,8.72-8.12,13.06-11.9l-.17-.16C66.76,27.31,63.56,32.88,58.87,35.49ZM73.1,24.77,73,24.63a5.88,5.88,0,0,0-1.91,1.87A14.52,14.52,0,0,1,73.1,24.77ZM58.21,35.41c.33-.53,2.71-1.29,3.49-2.78C60.78,33.7,58.63,34.44,58.21,35.41ZM72.42,24.08l-.11-.1a1.61,1.61,0,0,0-.38.46A1.66,1.66,0,0,1,72.42,24.08ZM60.06,36.7c3.71-2.45,7.07-7.12,11.35-11.46C65.24,30.93,63.39,33.44,60.06,36.7ZM57,30.23c6-2.71,8.13-8.62,9.92-10C64.26,22.26,63.11,25.92,57,30.23Zm-5.63-5.12C53.19,23.4,59.14,18,62.25,13.92l-.14-.15C57.85,18.81,52.58,23.28,51.36,25.11Zm5.45-6.8L54,21.15A38.18,38.18,0,0,0,56.81,18.31ZM51,25.11c-2.51,5.64-7.9,6.57-10.39,10.51C44.46,32,49.22,30.56,51,25.11ZM32,43.3c5-1.17,7.09-4.47,8.29-8.43C38.55,38.36,36.07,42,32,43.3ZM43.7,32c6.2-4.13,4.57-6.08,10.29-10.19-.85.55-1.57,1.06-2.19,1.55L49,26.09C47.53,28,46.89,29.69,43.7,32Zm-9.14,9.14a26.07,26.07,0,0,0,3.06-3.6L36.3,38.81A14.09,14.09,0,0,1,34.56,41.09Zm-.25.33a6,6,0,0,1-1.4.79l-.54.53A4.6,4.6,0,0,0,34.31,41.42Zm-4,3.43-2.38,2.37c2.92-2.43,4-3.61,6.75-3.69A6.26,6.26,0,0,0,30.27,44.85ZM44,33.45c-.43.76-3.47,2.68-4.49,4.76C40.72,36.56,43.46,34.77,44,33.45Zm-3.43,1.16c.62-.22,1.2-1.08,1.82-1.91L41.17,34A2.52,2.52,0,0,1,40.59,34.61ZM52.12,30c7-2,9.57-8,14.05-12.18l-.12-.12C60.73,21.91,58.13,27.78,52.12,30Zm-5.54-1.48L45,30.14A6.79,6.79,0,0,0,46.58,28.54Zm19-11.26-.12-.12c-1.07.95-3,2.45-3.81,4C62.63,19.88,64.59,18.46,65.61,17.28Zm-2.87.32c.54-.19,1-.88,1.59-1.6l-.2-.21A11.34,11.34,0,0,1,62.74,17.6Zm2.31-.88-.32-.32a9.65,9.65,0,0,0-2,2.21A26.23,26.23,0,0,1,65.05,16.72ZM48.7,31.3c4-3.17,4.93-4.69,8.09-4.78C55.1,26.6,53.45,26.06,48.7,31.3ZM56.43,27c-.41.32-2.51.44-3.56,1.36C53.91,27.74,55.82,27.59,56.43,27Zm-4.38-.31c2.1-2.07,6.36-4.81,8.46-8.86C56.5,22.87,53.36,24.58,52.05,26.66Zm-3,2.69c-.76.91-2.46,1.68-2.83,2.47C46.49,31.38,48.38,30.58,49,29.35Zm14-14.63-.17-.17a13.14,13.14,0,0,1-2.63,2.51A10.34,10.34,0,0,0,63.06,14.72ZM49.4,28.9c.66-1,2.27-1.92,2.55-2.75C51.72,26.62,49.93,27.6,49.4,28.9Zm7.3-4.82c1.81-1.58,3.91-5,7.12-8.59l-.35-.36C60.18,18.68,57.9,23,56.7,24.08Zm-5.83,2.53c3.51-2.56,5-5,9.41-9.24C54,22.89,54.29,23.43,50.87,26.61Z"/><rect class="cls-2" x="31.14" y="74.83" width="43.65" height="17.46" transform="translate(-3.57 2.38) rotate(-2.49)"/><path class="cls-3" d="M52.67,84.89c-.52,0-2.27-1.13-3.65-1C50.2,84,51.81,85,52.67,84.89Zm-.2-.7c1.13-.35,3-.07,3.71-.54C55.71,83.86,53.7,83.51,52.47,84.19Zm-21.16,3.7h0l.06,0Zm9.59-4.71c-2.58-.54-6.36.74-9.74,1.32l0,.34C34.42,84.34,38,82.94,40.9,83.18Zm-9.77.45v.09l.41-.09Zm5.58-.75c5.92-1.57,9.45,2,13.15,1.61C44.62,83.76,42,80.87,36.71,82.88Zm-.38,0c-.56.29-3-.26-4.41.64C33.26,83.06,35.46,83.51,36.33,82.88Zm20-2.51c-7.36-1.14-7.48,1.39-14.47.56C49.73,82.28,49.92,79.56,56.34,80.37Zm-10.27-.13A116.61,116.61,0,0,0,31,81v.23C37.4,80.51,44,80.75,46.07,80.24Zm.26.23C52,78,56.59,81,61.09,79.75,55.81,79.83,51.33,77.67,46.33,80.47Zm.77,2.35c3.91,2.31,10.26-.91,14.79-.24C57.93,81.48,50.82,84.59,47.1,82.82Zm.38-.35c1.39-.21,3.51.62,4.46.16C51.34,82.81,49.05,81.84,47.48,82.47Zm25.16-2.55c-4.47-2.52-8.24-1.5-11.81.61C64.47,79.13,68.78,78.1,72.64,79.92ZM32.92,85.4c1.09-.51,2.94-.49,3.62-1.05C36.1,84.63,34.07,84.55,32.92,85.4Zm14.1.07c-1.12.39-3,.14-3.7.63C43.79,85.87,45.8,86.18,47,85.47Zm4.28.38c-.83-.26-2.54.49-3.72.44C48.93,86.63,50.79,85.76,51.3,85.85Zm-5.16.57c5.67-2.44,9.6.56,13.22-.36C54.08,86.12,51.14,83.63,46.14,86.42Zm-14.87.47v.21A4.85,4.85,0,0,0,33.4,87,9.65,9.65,0,0,1,31.27,86.89Zm17.13,0c-4.38-.71-10,.46-16.1.77C40.69,87.62,43.75,87,48.4,86.87ZM59.74,86c1.34-.46,3.55,0,4.42-.64C63.6,85.6,61.19,85.05,59.74,86ZM54,86.82c4,2.05,10.19-1.59,14.74-1.22C64.71,84.76,57.79,88.34,54,86.82Zm-6.21-1.6c-2.93-1.91-9.74-1-12.1.15C38.52,84.39,45.81,84.14,47.77,85.22Zm-2.08-.09c-2.93-.27-8.16,1.1-14.47.76l0,.35C37.07,87.05,43.74,85,45.69,85.13Zm20.93,1.25c1.35-.39,3.54.16,4.43-.42C70.48,86.22,68.1,85.55,66.62,86.38Zm-13.57.17c-.49.17-2.46-.35-3.75.21C50.46,86.51,52.27,87,53.05,86.55Zm11.31.23c-.44.28-2.47.2-3.61,1C61.83,87.32,63.68,87.34,64.36,86.78ZM38.79,84c1.36-.39,3.55.16,4.44-.42C42.66,83.79,40.28,83.12,38.79,84Zm4.85-5.8c-1.29-.58-3.26-.07-3.75-.24C40.67,78.31,42.47,77.88,43.64,78.15Zm-12.79-.93v.41a9.9,9.9,0,0,0,2.41-.31A24,24,0,0,1,30.85,77.22ZM46.2,78.34c-.61.06-2.71-1.34-4.36-1C43.25,77.37,45.19,78.61,46.2,78.34Zm-.47-.56c4,2.14,8.68-1,13.23-.57C55,76.28,49.51,79.39,45.73,77.78Zm-.91-.29C40.35,75,36.57,76,33,78.1,36.64,76.7,41,75.67,44.82,77.49Zm-14-1.15v.22a13.69,13.69,0,0,0,5-.41A41.1,41.1,0,0,1,30.81,76.34Zm21.41,1.13c-5.1-.36-6.81.12-9.2-1.94C44.33,76.61,45.17,78.12,52.22,77.47ZM63.67,74.7c-4-.71-10.85,3.11-14.7,1.72C53.06,78.33,59.1,74.48,63.67,74.7Zm2,.92c1.15-.28,3,.11,3.74-.31C68.94,75.5,67,75,65.69,75.62Zm-20.1.08c.62,0,2.62,1.58,4.28,1.41C48.47,76.92,46.62,75.53,45.59,75.7Zm1.54,1.14c-1.16-.26-2.67-1.44-3.53-1.4C44.11,75.49,45.74,76.81,47.13,76.84Zm12-1.1c3.31.31,6.63-1.61,14.05-.66C66.93,73,61.39,75.94,59.15,75.74Zm-9.07,3c-1.15.28-3-.12-3.74.3C46.83,78.88,48.81,79.37,50.08,78.77ZM31,80v.21a12.38,12.38,0,0,1,3.1,0A9.37,9.37,0,0,0,31,80Zm16.47-.49c-4.31-.49-7.09.3-13.17.46C42.64,80.11,42.77,79.49,47.44,79.46Zm4.89,2c6.37,1.66,14.68-1.7,16.93-1.64C65.94,79.73,59.8,81.93,52.33,81.46ZM32.61,78.08a3.35,3.35,0,0,0-1.73,0l0,.28A6.13,6.13,0,0,1,32.61,78.08ZM55.3,80.85c-.5.18-2.47-.35-3.75.22C52.71,80.81,54.52,81.26,55.3,80.85Zm16.16-.27c-1.29-.58-3.26-.07-3.75-.24C68.49,80.74,70.3,80.31,71.46,80.58ZM57.12,79.05c.83-.27,4.37.37,6.52-.47C61.66,79,58.42,78.45,57.12,79.05ZM41.44,77.39c-2.31-.06-6,1-10.52,1.46l0,.51C35.57,78.89,39.91,77.35,41.44,77.39Zm5.17,1.23c-3,.11-7.94-.75-12.23.82C40.77,78.41,44.23,79.28,46.61,78.62Zm4,.06c1.17-.16,2.94.43,3.75.09C53.9,78.9,52,78.22,50.65,78.68Zm3.06-.22c1.17-.17,2.95.41,3.75.07C57,78.67,55,78,53.71,78.46Zm6.72,2.05c-1-.42-3,.49-4.45.33C57.57,81.41,59.82,80.36,60.43,80.51ZM30.78,75.79A39.57,39.57,0,0,0,37,75.51l-6.21.27Zm43.94,5.67v-.12a1.7,1.7,0,0,0-.55.16A1.74,1.74,0,0,1,74.72,81.46Zm-12.63.89c8,.18,8.48-.38,12.65-.45v-.06C70.71,81.47,67.92,82.2,62.09,82.35Zm-16-.36c-4.84-1.29-10.07-.17-15.07.23l0,.4C36.47,82.38,41.74,81,46.13,82c-.52.13-1.06.28-1.66.46,5.07-.67,6.67-1.5,9.36,0C52.49,81.77,51.45,80.62,46.13,82Zm16.08-.12c6.38-1,9.85-.16,12.22-.82C71.48,81.16,66.49,80.3,62.21,81.87Zm12.44-2v-.31A6.32,6.32,0,0,1,70.85,78,6.17,6.17,0,0,0,74.65,79.9Zm0,.65a4.91,4.91,0,0,1-1.13-.34,6.77,6.77,0,0,0,1.13.47Zm-5-.81c1.4.06,3.34,1.3,4.36,1C73.41,80.83,71.31,79.43,69.67,79.74Zm4.22,2.93c-3,0-13.63,0-18,1.45C63.09,82.84,71.5,83.26,73.89,82.67ZM51.78,84.35c7.7,2.19,15.85-1.41,22.17.07-.51.13-1,.28-1.65.46,1-.13,1.8-.26,2.55-.38v-.29l-.89.21C66.73,82.5,58.66,85.93,51.78,84.35ZM63.49,87.8c2.61-.89,8.92-1.18,11.49-.4v-.09C71.79,85.86,65.7,86.68,63.49,87.8Zm1-2.49c4.47-1.18,7.57.54,10.41,1.3v-.3C71.35,85.26,68.83,83.68,64.53,85.31Zm10.24-2.65v-.08l-.62.32Zm0,1,0-.35a18.17,18.17,0,0,1-5.11,0A20.7,20.7,0,0,0,74.82,83.7Zm-.31-6.93c-.21-.11-.42-.22-.63-.35l.64.5Zm-20.25-2h-.08l-.24.14Zm20.14-.55V74a12,12,0,0,0-1.4.69A13.48,13.48,0,0,1,74.4,74.21Zm.22,5v-.07c-1.11-.37-2.42-1.34-3.2-1.3C71.89,77.91,73.31,79,74.62,79.24ZM57.2,74.92c-3.48.86-6.26,1-8.89.1l-.73,0C49.16,75.89,51.83,76.47,57.2,74.92Zm-10.93.19-1.24,0a14.45,14.45,0,0,1,3.81.94A14.89,14.89,0,0,0,46.27,75.11Zm28.17,0-1-.11c.33.11.66.2,1,.28ZM53.16,75a4,4,0,0,1-1.07-.13l-1,0A4.74,4.74,0,0,0,53.16,75Zm21.43,3.63v-.28a2.51,2.51,0,0,0-1.16-.21A3.75,3.75,0,0,1,74.59,78.62Zm-19-.77c7,1.38,13-1.33,19,0v-.2C68,75.56,61.87,78.76,55.56,77.85Zm1,10.24c6.27,2.07,14.75-.73,17-.53C70.2,87.26,63.94,89,56.52,88.09ZM74.47,75.78v-.09c-3-.19-11.18.93-17.26.65C61.43,77.36,71,76.1,74.47,75.78Zm-3.16.9c.92-.31,2.3-.21,3.18-.42v-.12A7.46,7.46,0,0,0,71.31,76.68ZM57.46,89c-1.5-.71-4.06-2.23-11,1.73C50.56,88.6,53.82,87.9,57.46,89Zm-9.76.52c-2.16.77-6.82-.82-12.69,1.7C42.16,89.67,44.7,90.73,47.7,89.53Zm2.51.79c-3.65,1-8.6.7-13,1.13C42.08,91.41,46.8,91.77,50.21,90.32ZM74.85,87.9c-1.13.39-3,.15-3.71.63C71.61,88.3,73.62,88.61,74.85,87.9Zm-24.39,2c1.33-.5,3.54-.12,4.4-.77C54.3,89.42,51.88,89,50.46,89.89Zm-9,2.41c.58-.24,2.94.51,4.45-.26C44.56,92.38,42.39,91.75,41.48,92.3Zm.25-.36c-3.64.27-6.95-.55-10.25-.06l0,.39C35.19,91.92,38.54,93,41.73,91.94Zm6.73-3.38c-5.66-1.52-11.53,0-17.12,0v.27C37.47,89.15,43.39,87.35,48.46,88.56Zm.44.51c-.6.16-2.87-.89-4.45-.31C45.84,88.59,47.93,89.5,48.9,89.07ZM31.53,92.9v.2a4.7,4.7,0,0,0,2.15-.27A10.16,10.16,0,0,1,31.53,92.9Zm-.11-2.5h0Zm4.3.3a22.53,22.53,0,0,0-4.28.22l0,.33A23.74,23.74,0,0,1,35.72,90.7Zm8.8-1.27c-3.4-1.07-9.24.94-13.13.27v.18C35.26,90.88,40.61,88.72,44.52,89.43Zm10-1.92c-2.43-.38-3.33.14-9.79-.17C49.12,88.42,51.54,87.73,54.48,87.51Zm.27,2.25c1.41-.09,3.45.93,4.44.55C58.58,90.44,56.36,89.27,54.75,89.76Zm20.31-.41v-.19c-4.2-.37-9.38.63-14.93.91C67.79,90.05,71,89.55,75.06,89.35Zm0,.51c-.75,0-1.59,0-2.57-.09a21.12,21.12,0,0,0,2.59.47Zm-27.2,2.65,1.19-.05a13,13,0,0,1,2.76-.12l2-.09A11.15,11.15,0,0,0,47.88,92.51Zm6.73-2.05c7.24,2.07,14.43-.61,20.51.3v0C68.25,89.36,61.13,92,54.61,90.46Zm20.41-2v-.12a11.48,11.48,0,0,0-1.06.52C74.32,88.7,74.67,88.56,75,88.45Zm-17.55,1c.5-.15,2.45.48,3.75,0C60.06,89.57,58.27,89,57.47,89.4Zm-5.25,2.3c1.18-.08,2.92.64,3.74.36C55.45,92.16,53.57,91.33,52.22,91.7Zm-6.09.47c3.55-1.11,7.71-1.84,11.35-.07h.08C53.4,89.58,49.7,90.36,46.13,92.17ZM58.76,92a5.26,5.26,0,0,1-1.21-.43,5.71,5.71,0,0,0,.89.45Zm15.51-.67.88,0v-.08a5.39,5.39,0,0,0-2.87-.07A7.54,7.54,0,0,1,74.27,91.37Zm-6.54.28,2.45-.1A18.8,18.8,0,0,0,67.73,91.65Z"/><path class="cls-4" d="M44,80.59c-.83-.26-2.55.49-3.73.44C41.58,81.37,43.43,80.51,44,80.59Zm22.2,1.72c-3.31-.31-9.56,1.48-17,.53C55.43,84.9,63.91,82.11,66.15,82.31ZM50.1,83.75c-1.5-.7-4.06-2.22-11,1.73C43.2,83.35,46.46,82.64,50.1,83.75Zm14.81,2.18c1.4-.16,3.48.74,4.45.31C68.76,86.4,66.49,85.36,64.91,85.93Zm4-.2c-7.23-1.93-14.79,1.07-21.68-.52C55,87.41,62.6,84.23,68.93,85.73ZM47.4,84.5c1.4-.08,3.44.93,4.43.56C51.22,85.19,49,84,47.4,84.5Zm20.09-1.85c-1.13.38-3,.14-3.71.63C64.26,83.05,66.26,83.36,67.49,82.65Zm-26.38.65a29.38,29.38,0,0,0-10-.47l0,.44C34.66,83,38,82.57,41.11,83.3Zm6-1c-2.43-.38-3.33.14-9.79-.16C41.76,83.16,44.18,82.48,47.12,82.25Zm-6.78,2c-1.71.61-5-.25-9.16.6l0,.47C35.76,84.73,37.9,85.25,40.34,84.27Zm.71-2.65c-2.88-.47-6.29-.13-10,.25l0,.38C35.24,82.06,37.74,81.72,41.05,81.62Zm-9.9,2.5v.31a19.94,19.94,0,0,1,6-.26A15.59,15.59,0,0,0,31.15,84.12Zm4,4.56c-.49.18-2.47-.29-3.74.31C32.58,88.7,34.39,89.1,35.16,88.68Zm6.38-4.87c-.6.17-2.87-.88-4.45-.31C38.49,83.34,40.57,84.24,41.54,83.81ZM31.23,86.09v.1c4.35,0,8.52.19,11.61-1.13C39.57,85.94,35.24,85.81,31.23,86.09ZM43.1,84.64c1.33-.5,3.55-.13,4.4-.78C47,84.16,44.52,83.69,43.1,84.64ZM31.26,86.7l0,.46a10.48,10.48,0,0,0,3.09-.47A24.85,24.85,0,0,1,31.26,86.7Zm24.92,1.17c-3.31-.3-9.56,1.48-17,.53C45.46,90.47,53.94,87.67,56.18,87.87Zm-17.24.58a16.38,16.38,0,0,0-7.63-.52l0,.47A29.77,29.77,0,0,1,38.94,88.45ZM34.12,87c.58-.23,2.94.52,4.45-.25C37.2,87.13,35,86.5,34.12,87ZM55.47,88.4c7.15-1.56,9.69-.5,12.69-1.7C66,87.48,61.34,85.88,55.47,88.4Zm-10-.36c-.58.22-2.92-.63-4.45.07C42.41,87.83,44.55,88.55,45.48,88Zm4.71-1.69C54,88.79,60.48,85.78,65,86.6,61.05,85.37,53.86,88.25,50.19,86.35Zm-5.33.1c1.18-.08,2.92.63,3.74.36C48.09,86.9,46.21,86.08,44.86,86.45Zm7.08,1.12c-5.27.12-8.23-2.32-13.21.53C44.37,85.59,48.33,88.54,51.94,87.57Zm-13.17-.65c3.71-1.16,8.07-1.91,11.83.17C46.27,84.27,42.45,85.05,38.77,86.92Zm-.44-7a50.67,50.67,0,0,0-7.34.54l0,.46C34.34,80.47,37.17,79.77,38.33,79.88Zm1.41-2.32c3.91,2.31,10.26-.91,14.79-.23C50.57,76.22,43.46,79.33,39.74,77.56ZM64.1,75.32c-1.29-.58-3.26-.06-3.75-.24C61.13,75.49,62.94,75.06,64.1,75.32ZM45,76.21c6.37,1.65,14.68-1.7,16.93-1.65C58.58,74.48,52.44,76.67,45,76.21Zm-4.85,1c1.4-.22,3.51.61,4.46.15C44,77.55,41.69,76.59,40.12,77.22Zm5.19,2.41c-.52,0-2.26-1.13-3.65-1C42.84,78.76,44.45,79.77,45.31,79.63Zm21.22-2.22c-3,0-13.62,0-18,1.46C55.73,77.59,64.14,78,66.53,77.41ZM45.11,78.94c1.14-.36,3-.08,3.72-.55C48.35,78.61,46.35,78.26,45.11,78.94Zm3.52-3.35c1.59.57,3.84-.49,4.44-.33C52.1,74.84,50,75.75,48.63,75.59Zm-.69,0c-.5.17-2.47-.35-3.75.21C45.35,75.56,47.16,76,47.94,75.6Zm-9.17,1.14c-.51.13-1.05.28-1.65.46,5.06-.68,6.66-1.5,9.35,0-1.33-.73-2.37-1.88-7.7-.51a23.58,23.58,0,0,0-8-.48v.4A24,24,0,0,1,38.77,76.74Zm28.31-.94c-3,.11-7.94-.75-12.23.81C61.23,75.59,64.7,76.45,67.08,75.8Zm-.28.45c.49-.19,2.47.29,3.74-.31C69.39,76.23,67.57,75.83,66.8,76.25Zm-4.49-1.77c1.4.07,3.34,1.3,4.36,1C66.05,75.58,64,74.17,62.31,74.48Zm-5.3,7c-.45.28-2.48.21-3.62,1.06C54.47,82.06,56.32,82.09,57,81.52Zm2.25-.39c1.36-.39,3.54.16,4.43-.42C63.12,81,60.74,80.3,59.26,81.13Zm-13.57.16c-.49.18-2.46-.35-3.74.22C43.11,81.25,44.91,81.7,45.69,81.29Zm15.67-.94c-4-.84-10.93,2.74-14.74,1.22C50.65,83.61,56.81,80,61.36,80.35Zm9,1.31c-5.24-.73-7.83-3.62-13.15-1.6C63.1,78.49,66.62,82,70.32,81.66Zm-17.94-1c1.34-.46,3.55,0,4.42-.64C56.24,80.34,53.83,79.8,52.38,80.7Zm-.38.11c-5.28.06-8.21-2.44-13.22.36C44.45,78.73,48.38,81.73,52,80.81ZM35.87,78.28c-.57.26-2.95-.41-4.43.42C32.79,78.31,35,78.86,35.87,78.28Zm6.63,1c-4.72-.65-7.3-3.07-11.66-2.06v.16C35.89,76.65,39.12,79.57,42.5,79.23Zm-9-1.31a8.66,8.66,0,0,0-2.66,0v.19A11.57,11.57,0,0,1,33.54,77.92Zm6.13,2.3c-1.13.38-3,.14-3.71.63C36.43,80.62,38.44,80.93,39.67,80.22Zm.75-.25c-2.17-1.41-6.44-1.31-9.48-.68v.26C34.31,79.09,38.91,79.14,40.42,80Zm-9,9.54,0,.45c3.86-.24,7.69-.73,9.3-.86C39.25,88.88,35.52,89.24,31.38,89.51Zm37.47,1c1.38-.28,3.52.44,4.45-.07C72.72,90.69,70.38,89.84,68.85,90.54ZM74.6,78.7l-1.81-.06a13.58,13.58,0,0,0,1.82.33Zm-6.65,1c1.39-.22,3.5.61,4.45.15C71.81,80,69.51,79,68,79.65Zm-.39.34c2,1.15,4.49.93,7.12.51l0-.34C72,80.56,69.38,80.86,67.56,80Zm-23.14-.9c7.7,2.2,15.85-1.4,22.17.08-.51.13-1,.28-1.65.46,5.06-.68,6.66-1.5,9.35.05C73,79,71.92,77.8,66.6,79.17,59.37,77.25,51.31,80.68,44.42,79.09Zm28.71,3c-.52,0-2.26-1.13-3.65-1C70.66,81.19,72.28,82.2,73.13,82.06Zm1.45-3.85V78a5.85,5.85,0,0,0-2.56.23A12.9,12.9,0,0,1,74.58,78.21ZM50.11,84.15c.5-.15,2.45.48,3.76,0C52.7,84.32,50.91,83.79,50.11,84.15ZM71.77,83c-.83-.26-2.55.49-3.73.44C69.4,83.8,71.26,82.94,71.77,83Zm3,0v-.31c-2.64-.49-5-.85-8.17.93A13.26,13.26,0,0,1,74.78,83ZM62.33,78.1c6.82,1.18,7.87-.71,12.21-.7v-.11C69.33,77,68.52,78.84,62.33,78.1Zm6.54,6c-4.39-.71-10,.46-16.11.77C61.15,84.8,64.21,84.19,68.87,84.05Zm5.87-2.16a16,16,0,0,1-2.5-.37,17.1,17.1,0,0,0,2.5.52Zm0-.74v-.21a4.31,4.31,0,0,0-1.77.43A7.45,7.45,0,0,1,74.7,81.15Zm-18.56,1.4c2.85-1,10.13-1.24,12.1-.15C65.3,80.49,58.49,81.35,56.14,82.55Zm18.38-5.74,0-.51a12.45,12.45,0,0,0-7.7,1.35A14.34,14.34,0,0,1,74.52,76.81Zm-1.84-2.17c-2.88-.2-4.68-.13-6.13-.41l-.78,0C67,74.73,69,75,72.68,74.64Zm-3.1-.54-.57,0a3.56,3.56,0,0,0,1.32.17A4.58,4.58,0,0,1,69.58,74.1ZM55,74.73l-.59,0c-.31.16-.62.33-.93.52C54,75.08,54.47,74.9,55,74.73ZM48.31,75h-.19l.87.09Zm-13.8.65c5.25.91,7.08,0,9.63-.47l-2.71.12A18.22,18.22,0,0,1,34.51,75.67Zm30.1-1.36h-.17c.28.1.56.22.84.35ZM37.05,90.05c1.12-.38,3-.14,3.7-.63C40.28,89.65,38.27,89.34,37.05,90.05ZM71.11,75.86c1-.14,2.47.28,3.37.17V76A8,8,0,0,0,71.11,75.86Zm3.35-.25v-.06l-.29.08ZM66.2,75c2.53,1.35,5.35.56,8.23-.07v-.3C71.53,75.14,68.54,76,66.2,75Zm8.18-1.07L70.92,74A10.21,10.21,0,0,0,74.38,73.89Zm-19.65,3.2c8.38.2,8.51-.42,13.18-.45C63.59,76.15,60.82,76.94,54.73,77.09ZM49.41,89.24c-.45.28-2.47.21-3.62,1.05C46.87,89.78,48.72,89.81,49.41,89.24Zm-7,2.66c-3.8-1.89-7.41-1.76-11-1.32l0,.63C35.21,90.81,38.79,90.44,42.39,91.9Zm8.36-1.18c-4.47,1.1-7.8,1-11.14-.93C40.94,90.83,43.14,92.92,50.75,90.72Zm-5.46-.85c-.9-.57-3.08,0-4.44-.39C42.35,90.3,44.72,89.62,45.29,89.87Zm-8.14,1.36c.52,0,2.15,1.38,3.54,1.41C39.52,92.38,38,91.2,37.15,91.23Zm-5.66.71,0,.56a12,12,0,0,1,6.08.46h.15A9.94,9.94,0,0,0,31.49,91.94Zm38.28-8c1.16-.26,3,.19,3.75-.22C73,83.9,71.05,83.37,69.77,83.94ZM54.16,90c-1.16.27-3-.15-3.75.26C50.9,90.08,52.88,90.58,54.16,90Zm7.78-.53c.58-.23,2.94.52,4.45-.25C65,89.56,62.85,88.93,61.94,89.47ZM47.5,90.71c5.53-2.79,10.26-.11,14.69-1.59C56.93,89.51,52.35,87.61,47.5,90.71Zm11.74.71c1.16-.29,3,.11,3.74-.31C62.5,91.29,60.51,90.82,59.24,91.42ZM43,90.56c1.18-.11,2.94.53,3.75.22C46.21,90.9,44.3,90.15,43,90.56Zm9.74,1c3.31.3,6.62-1.61,14.05-.66C60.49,88.81,54.94,91.74,52.71,91.54ZM38.91,92.9l.82,0a6.16,6.16,0,0,1-3.15-1.54A7,7,0,0,0,38.91,92.9Zm36-7.23,0-.36c-1.72-.08-4.2.45-8,2.6A16.31,16.31,0,0,1,74.9,85.67Zm.12,2.7,0-.4c-3-.76-5.73,0-8.41,1.38A18.63,18.63,0,0,1,75,88.37Zm-17.3.25c4.82,0,9.55.33,13-1.13C67,88.47,62.07,88.2,57.72,88.62Zm13.21-1.55c1.16-.44,3-.21,4-.58v-.11C74,86.48,72.12,86.27,70.93,87.07Zm3.9-2.94L74.44,84l.4.18Zm0,.56v0c-2.37-.35-3.33.15-9.71-.15C69.54,85.58,72,84.92,74.86,84.69ZM50.77,92.14c.34.08.72.14,1.13.2l15-.65c.65-.07,1.2-.13,1.61-.16C66.08,91.15,57.22,92.44,50.77,92.14ZM39.15,91.5c.47,0,1.71.89,3,1.26l.57,0C41.46,92.32,40,91.35,39.15,91.5Zm18.07-1c-4-.7-10.84,3.12-14.69,1.73a5.74,5.74,0,0,0,1.58.46l3.22-.14C50.62,92,54.24,90.35,57.22,90.49Zm9.79.34a15.56,15.56,0,0,0,3.63.7l4.51-.2,0-.35A39.92,39.92,0,0,1,67,90.83Zm8-1.63V89a5.24,5.24,0,0,0-2.36-.11A10.76,10.76,0,0,1,75.05,89.2Zm-8.5,1.33c3.34-1.48,6.1-1.06,8.53-.66v-.32C72.27,89.08,69.86,88.64,66.55,90.53Z"/><polygon class="cls-5" points="58.33 16.78 29.26 0 20.53 15.12 45.55 29.56 58.33 16.78"/><rect class="cls-6" x="16.48" y="17.49" width="15.52" height="17.46" transform="translate(-10.59 34.1) rotate(-60)"/><polygon class="cls-7" points="30.78 75.78 37.28 75.5 29.56 70.25 16.99 82.81 31.52 92.69 30.78 75.78"/><polygon class="cls-2" points="32.26 93.19 32.3 93.22 32.33 93.19 32.26 93.19"/></g></g></g></svg>