<svg width="152" height="145" viewBox="0 0 152 145" fill="none" xmlns="http://www.w3.org/2000/svg">
<path d="M47.5003 77.1533L48 77.17C47.5003 77.1533 47.5003 77.1527 47.5003 77.152L47.5004 77.1506L47.5005 77.1473L47.5009 77.1391L47.5024 77.116C47.5037 77.0977 47.5059 77.0737 47.5092 77.044C47.516 76.9846 47.5278 76.9026 47.5483 76.7991C47.5893 76.5919 47.665 76.2991 47.8048 75.9282C48.0844 75.1861 48.6186 74.136 49.638 72.8375C51.675 70.2427 55.6502 66.6548 63.4158 62.5382C70.9177 58.5615 74.8433 49.4358 74.9213 39.6535C74.9991 29.8826 71.2304 19.6176 63.5476 13.4704C55.7585 7.2381 46.7137 2.33176 37.3402 0.913134C27.9873 -0.502357 18.2782 1.5484 9.10221 9.28233C4.53048 13.1356 2.15163 17.2495 1.13225 21.2412C0.111322 25.239 0.445333 29.1492 1.35594 32.5999C2.26682 36.0517 3.75089 39.0286 5.01061 41.1456C5.63983 42.203 6.21143 43.043 6.62458 43.6173C6.63042 43.6254 6.63622 43.6335 6.64199 43.6415C6.78684 43.0388 7.00442 42.2173 7.30932 41.266C7.95266 39.2588 8.99098 36.6539 10.5687 34.305C12.1453 31.9576 14.2858 29.829 17.1445 28.8419C20.0175 27.8499 23.5338 28.039 27.7939 30.1729C29.9251 31.2404 31.457 32.4529 32.4681 33.8142C33.4841 35.1821 33.9562 36.6766 34.002 38.2697C34.0924 41.4191 32.5136 44.9325 30.3079 48.6644C29.0435 50.8038 27.5353 53.0728 25.9741 55.4214C24.8175 57.1615 23.6318 58.9452 22.4948 60.7522C19.8003 65.0344 17.3267 69.5219 15.9389 74.1438C13.2816 83.0031 13.3942 89.948 15.0373 95.5569C16.6814 101.169 19.871 105.489 23.4443 109.077L23.4448 109.078C24.2646 109.903 24.7505 111.003 24.8094 112.165L24.8094 112.165L25.8594 133.165L25.8595 133.168C25.89 133.857 26.0675 134.531 26.3801 135.145C26.6927 135.759 27.1328 136.299 27.6707 136.728C27.671 136.728 27.6714 136.729 27.6717 136.729L36.2079 143.466C36.208 143.466 36.2081 143.466 36.2081 143.466C37.0726 144.142 38.1399 144.506 39.2371 144.5L39.24 144.5L52.16 144.5H52.1651C52.2749 144.501 52.384 144.474 52.481 144.42C52.5769 144.366 52.6576 144.287 52.7144 144.192C52.7707 144.098 52.8013 143.989 52.8029 143.879C52.8044 143.769 52.777 143.66 52.7232 143.563L52.7207 143.559L51.4107 141.149L51.4084 141.145C51.3629 141.059 51.2974 140.985 51.2164 140.929C51.1351 140.873 51.0429 140.838 50.9481 140.826L50.9432 140.826L41.0732 139.496L40.9136 139.474L40.7966 139.363C40.2972 138.892 39.9068 138.317 39.6526 137.679L39.6525 137.679C39.3983 137.04 39.2864 136.355 39.3248 135.668L39.824 135.696L39.3248 135.668C39.3632 134.982 39.5507 134.314 39.8745 133.707C40.198 133.102 40.6496 132.574 41.1981 132.161C43.8374 130.162 47.0231 127.447 48.651 124.947L48.8553 124.633L49.2135 124.741L49.2136 124.741L49.2138 124.741L49.2162 124.742L49.2277 124.745L49.2785 124.76C49.3246 124.773 49.3955 124.792 49.4913 124.817C49.683 124.867 49.9745 124.939 50.3679 125.025C51.1547 125.199 52.3491 125.432 53.9676 125.665C57.2045 126.132 62.1382 126.6 68.9 126.6C75.6486 126.6 80.8898 125.866 84.4378 125.135C86.2119 124.77 87.5628 124.405 88.4672 124.132C88.9194 123.996 89.2599 123.883 89.486 123.804C89.599 123.765 89.6834 123.735 89.7388 123.714C89.7665 123.704 89.7869 123.696 89.8001 123.691L89.8143 123.686L89.8174 123.685L89.8176 123.684L47.5003 77.1533ZM47.5003 77.1533L47.4735 77.9554L48.2053 77.6259C58.7059 72.8977 69.0086 74.3258 78.2041 76.9754C81.3602 77.8849 84.3651 78.9314 87.2053 79.9205C88.512 80.3755 89.7838 80.8184 91.0194 81.2303C94.9119 82.5277 98.4544 83.52 101.47 83.52C107.369 83.52 110.728 82.2845 114.371 80.945L114.448 80.9168C118.086 79.5789 122.051 78.1345 129.272 77.669C132.064 77.4907 134.028 78.6093 136.004 80.2429C136.627 80.7581 137.234 81.3087 137.868 81.8842C138.256 82.2369 138.655 82.599 139.074 82.9678C140.162 83.9249 141.35 84.8936 142.736 85.7448C145.03 87.1851 147.785 87.7018 150.444 87.1911L150.454 87.1891C150.558 87.1669 150.667 87.1787 150.766 87.2236C150.863 87.2681 150.943 87.3427 150.996 87.4376C151.048 87.5325 151.068 87.6409 151.053 87.7464L151.548 87.8162L151.053 87.7465C151.038 87.8543 150.989 87.953 150.914 88.0289L150.906 88.0366L150.899 88.0447C146.277 93.157 142.708 95.0845 139.867 95.7637C138.444 96.1042 137.181 96.1367 136.026 96.0818C135.539 96.0587 135.075 96.0203 134.621 95.9827C134.534 95.9754 134.447 95.9682 134.36 95.9612C133.827 95.9179 133.305 95.88 132.8 95.88C130.54 95.88 128.077 97.1199 125.388 99.2815C122.686 101.453 119.684 104.615 116.338 108.588C112.956 112.603 111.04 116.373 110.055 120.16C109.072 123.94 109.024 127.708 109.341 131.702C109.448 133.88 110.321 135.949 111.804 137.547L111.805 137.547C113.288 139.145 115.288 140.168 117.452 140.435C117.603 140.458 117.748 140.51 117.879 140.589C118.01 140.667 118.125 140.772 118.218 140.897L118.222 140.903C118.359 141.083 118.443 141.298 118.464 141.525L118.464 141.526C118.486 141.751 118.444 141.978 118.343 142.182C118.242 142.386 118.086 142.557 117.893 142.677L117.892 142.677C117.7 142.797 117.477 142.86 117.25 142.86L104.874 142.86C104.873 142.86 104.872 142.86 104.872 142.86C104.677 142.858 104.485 142.812 104.312 142.724C104.139 142.636 103.988 142.509 103.873 142.355C103.873 142.354 103.872 142.353 103.872 142.353L90.4042 123.856L90.177 123.544L89.8178 123.684L47.5003 77.1533Z" fill="black" stroke="black"/>
<path d="M136.76 90.95C138.605 90.95 140.1 89.4547 140.1 87.61C140.1 85.7654 138.605 84.27 136.76 84.27C134.915 84.27 133.42 85.7654 133.42 87.61C133.42 89.4547 134.915 90.95 136.76 90.95Z" fill="#5B606A"/>
<path d="M127.82 84.35C127.749 84.5177 127.669 84.6813 127.58 84.84C127.43 85.13 127.23 85.54 127 85.96C126.771 86.3857 126.564 86.823 126.38 87.27C126.315 87.4497 126.261 87.6335 126.22 87.82C126.202 87.9561 126.202 88.094 126.22 88.23C126.202 88.3627 126.202 88.4973 126.22 88.63C126.257 88.8211 126.31 89.0085 126.38 89.19C126.46 89.39 126.57 89.61 126.67 89.83C126.77 90.05 126.89 90.28 127.01 90.5C127.25 90.92 127.45 91.33 127.6 91.63C127.685 91.7927 127.762 91.9596 127.83 92.13L127.73 92.29L127.33 92.05C127.21 91.98 127.05 91.89 126.88 91.77C126.681 91.6499 126.491 91.5163 126.31 91.37C126.091 91.2049 125.884 91.0244 125.69 90.83C125.461 90.6212 125.253 90.3901 125.07 90.14C124.863 89.8753 124.694 89.5824 124.57 89.27C124.44 88.9521 124.369 88.6133 124.36 88.27C124.386 87.5754 124.631 86.9068 125.06 86.36C125.413 85.8938 125.827 85.4768 126.29 85.12C126.605 84.8712 126.94 84.6471 127.29 84.45C127.55 84.3 127.71 84.23 127.71 84.23L127.82 84.35Z" fill="#BFC193"/>
<path d="M131.33 81.56C131.33 81.56 127.15 79.47 119.01 81.56C110.87 83.65 101.27 90.12 80.39 83C59.51 75.88 49.07 80.61 49.07 80.61C49.07 80.61 69.74 77.61 83.94 92.19C83.94 92.19 72.24 100.33 46.77 98.24C21.3 96.15 26.94 80.72 33.83 73.42C40.72 66.12 53.83 45.23 51.58 34.79C49.33 24.35 36.13 23.52 36.13 15.58C36.13 7.64002 49.91 12.66 49.91 12.66C49.91 12.66 44.1 4.31002 28 7.00002C11.9 9.69002 13.16 19.13 24.43 21.64C35.7 24.15 47.4 37.31 37 52.54C26.6 67.77 13.79 79.74 22.76 98.6C31.73 117.46 59.93 116.22 70.57 115C81.21 113.78 105.65 101 111.29 93.5C116.93 86 122.77 82.81 131.33 81.56Z" fill="white"/>
</svg>
