<svg width="102" height="183" viewBox="0 0 102 183" fill="none" xmlns="http://www.w3.org/2000/svg">
<g clip-path="url(#clip0)">
<path d="M62.4281 126.999C62.4258 130.031 61.2121 132.939 59.0534 135.084C56.8947 137.228 53.9676 138.434 50.9147 138.436C47.8619 138.434 44.9347 137.228 42.776 135.084C40.6173 132.939 39.4036 130.031 39.4013 126.999V11.4375C39.4036 8.40478 40.6173 5.49691 42.776 3.35244C44.9347 1.20798 47.8619 0.00224397 50.9147 0V0C53.9676 0.00224397 56.8947 1.20798 59.0534 3.35244C61.2121 5.49691 62.4258 8.40478 62.4281 11.4375V126.999Z" fill="#424143"/>
<path opacity="0.5" d="M51 0C50.3715 0.0143968 49.7446 0.0710074 49.1237 0.169444C51.8157 0.604221 54.2639 1.97691 56.0297 4.04163C57.7956 6.10635 58.7638 8.72819 58.7609 11.4375V127.083C58.7518 129.789 57.7793 132.405 56.0156 134.467C54.2518 136.53 51.8105 137.905 49.1237 138.351C49.7441 138.454 50.3712 138.51 51 138.521C54.0528 138.519 56.98 137.313 59.1387 135.168C61.2974 133.024 62.5111 130.116 62.5134 127.083V11.4375C62.4977 8.40889 61.2796 5.50876 59.1238 3.36718C56.9681 1.22561 54.0487 0.015583 51 0V0Z" fill="#424143"/>
<path opacity="0.5" d="M51 0C51.6285 0.0143968 52.2554 0.0710074 52.8763 0.169444C50.1843 0.604221 47.7361 1.97691 45.9703 4.04163C44.2044 6.10635 43.2362 8.72819 43.2391 11.4375V127.083C43.2482 129.789 44.2206 132.405 45.9844 134.467C47.7482 136.53 50.1895 137.905 52.8763 138.351C52.2559 138.454 51.6288 138.51 51 138.521C47.9472 138.519 45.02 137.313 42.8613 135.168C40.7026 133.024 39.4889 130.116 39.4866 127.083V11.4375C39.4889 8.40477 40.7026 5.49691 42.8613 3.35244C45.02 1.20798 47.9472 0.00224397 51 0V0Z" fill="#424143"/>
<path d="M71.1271 134.878C71.1271 117.679 51 119.712 51 119.712C51 119.712 30.8729 117.679 30.8729 134.878C18.9331 140.215 6.14047 150.975 6.14047 172.494H95.8595C95.8595 150.89 83.0669 140.215 71.1271 134.878Z" fill="#F04F63"/>
<path opacity="0.5" d="M71.1271 134.878C71.1271 117.679 51 119.712 51 119.712C51 119.712 50.1472 119.628 48.7826 119.628C53.9849 119.712 66.6923 121.237 66.6923 134.878C78.6321 140.215 91.4247 150.975 91.4247 172.494H95.8595C95.8595 150.89 83.0669 140.215 71.1271 134.878Z" fill="#BE202E"/>
<path opacity="0.5" d="M30.8729 134.878C30.8729 117.679 51 119.712 51 119.712C51 119.712 51.8528 119.628 53.2174 119.628C48.0151 119.712 35.3077 121.237 35.3077 134.878C23.3679 140.215 10.5753 150.975 10.5753 172.494H6.14047C6.14047 150.89 18.9331 140.215 30.8729 134.878Z" fill="#F3839A"/>
<path d="M102 177.747C101.993 179.138 101.434 180.47 100.444 181.454C99.4537 182.438 98.1127 182.993 96.7124 183H5.28763C3.88733 182.993 2.54631 182.438 1.55614 181.454C0.565974 180.47 0.0067269 179.138 0 177.747H0C0.0067269 176.356 0.565974 175.024 1.55614 174.04C2.54631 173.057 3.88733 172.501 5.28763 172.494H96.7977C97.4865 172.5 98.1674 172.64 98.8016 172.907C99.4358 173.174 100.011 173.563 100.494 174.05C100.977 174.538 101.359 175.116 101.617 175.75C101.876 176.384 102.006 177.063 102 177.747Z" fill="#424143"/>
<path opacity="0.5" d="M96.7124 172.494H91.5953C92.9977 172.494 94.3426 173.048 95.3342 174.033C96.3259 175.018 96.8829 176.354 96.8829 177.747C96.8829 179.14 96.3259 180.476 95.3342 181.461C94.3426 182.447 92.9977 183 91.5953 183H96.7124C98.1127 182.993 99.4537 182.438 100.444 181.454C101.434 180.47 101.993 179.138 102 177.747C102.003 177.056 101.869 176.372 101.604 175.733C101.34 175.094 100.951 174.514 100.459 174.025C99.9672 173.537 99.3829 173.15 98.7399 172.887C98.0968 172.625 97.4077 172.491 96.7124 172.494Z" fill="#424143"/>
<path opacity="0.5" d="M5.28762 172.494H10.4047C9.00232 172.494 7.65739 173.048 6.66576 174.033C5.67414 175.018 5.11705 176.354 5.11705 177.747C5.11705 179.14 5.67414 180.476 6.66576 181.461C7.65739 182.447 9.00232 183 10.4047 183H5.28762C3.88733 182.993 2.54631 182.438 1.55614 181.454C0.565972 180.47 0.00672456 179.138 -2.33884e-06 177.747C-0.00339149 177.056 0.131063 176.372 0.395591 175.733C0.660119 175.094 1.04947 174.514 1.54115 174.025C2.03283 173.537 2.61708 173.15 3.26013 172.887C3.90319 172.625 4.59229 172.491 5.28762 172.494Z" fill="#424143"/>
</g>
<defs>
<clipPath id="clip0">
<rect width="102" height="183" fill="white"/>
</clipPath>
</defs>
</svg>
