<svg xmlns="http://www.w3.org/2000/svg" viewBox="0 0 137.02 129.53"><defs><style>.cls-1{fill:#010101;opacity:0.38;}.cls-2{fill:#f2f2f2;}.cls-3{fill:#e8e8e8;}.cls-4{fill:#adbfc6;}</style></defs><g id="Layer_2" data-name="Layer 2"><g id="Layer_3" data-name="Layer 3"><path class="cls-1" d="M137,16.55H7A68.56,68.56,0,0,0,72,63.27,68.55,68.55,0,0,0,137,16.55Z"/><path class="cls-1" d="M102.46,129.3V67.16A2.71,2.71,0,0,0,100,64.47a82.32,82.32,0,0,1-28,4.87,82.19,82.19,0,0,1-28-4.88,2.71,2.71,0,0,0-2.53,2.7V129.3Z"/><path class="cls-2" d="M2.83,11.43a68.55,68.55,0,0,0,65,46.72,68.55,68.55,0,0,0,65-46.72Z"/><rect class="cls-3" width="135.53" height="9.8" rx="2.72"/><path class="cls-4" d="M39.81,59.34A2.7,2.7,0,0,0,37.29,62v64.77A2.72,2.72,0,0,0,40,129.53H95.52a2.72,2.72,0,0,0,2.72-2.72V62a2.7,2.7,0,0,0-2.44-2.69,82.36,82.36,0,0,1-28,4.87A82.25,82.25,0,0,1,39.81,59.34Z"/></g></g></svg>