<svg xmlns="http://www.w3.org/2000/svg" viewBox="0 0 743.04 409.39"><defs><style>.cls-1,.cls-10{font-size:19.69px;fill:#0a7c73;font-family:DINOT;}.cls-1{letter-spacing:-0.04em;}.cls-2{letter-spacing:1.46em;}.cls-3{letter-spacing:-0.04em;}.cls-4{letter-spacing:-0.16em;}.cls-5{letter-spacing:1.5em;}.cls-6{letter-spacing:-0.21em;}.cls-7{letter-spacing:-0.21em;}.cls-8{letter-spacing:-0.21em;}.cls-9{letter-spacing:1.5em;}.cls-10{letter-spacing:-0.04em;}.cls-11{fill:none;stroke:#878787;stroke-miterlimit:10;}</style></defs><g id="Layer_2" data-name="Layer 2"><g id="Layer_3" data-name="Layer 3"><text class="cls-1" transform="translate(28.35 404.47)">3/10<tspan class="cls-2" x="33.67" y="0">	</tspan><tspan class="cls-3" x="66.65" y="0">3/13</tspan><tspan class="cls-4" x="100.32" y="0">	</tspan><tspan class="cls-5" x="101.25" y="0">	</tspan><tspan x="135" y="0">3/14</tspan><tspan class="cls-6" x="168.67" y="0">	</tspan><tspan class="cls-5" x="168.75" y="0">	</tspan><tspan class="cls-3" x="202.5" y="0">3/15</tspan><tspan class="cls-6" x="236.17" y="0">	</tspan><tspan class="cls-5" x="236.25" y="0">	</tspan><tspan class="cls-3" x="270" y="0">3/16</tspan><tspan class="cls-6" x="303.67" y="0">	</tspan><tspan class="cls-5" x="303.75" y="0">	</tspan><tspan class="cls-3" x="337.5" y="0">3/17</tspan><tspan class="cls-7" x="371.17" y="0">	</tspan><tspan class="cls-5" x="371.25" y="0">	</tspan><tspan x="405" y="0">3/20</tspan><tspan class="cls-8" x="438.67" y="0">	</tspan><tspan class="cls-5" x="438.75" y="0">	</tspan><tspan x="472.5" y="0">3/21</tspan><tspan class="cls-7" x="506.17" y="0">	</tspan><tspan class="cls-5" x="506.25" y="0">	</tspan><tspan x="540" y="0">3/22</tspan><tspan class="cls-6" x="573.67" y="0">	</tspan><tspan class="cls-9" x="573.76" y="0">	</tspan><tspan x="607.51" y="0">3/23</tspan><tspan class="cls-6" x="641.17" y="0">	</tspan><tspan class="cls-9" x="641.26" y="0">	</tspan><tspan x="675.01" y="0">3/24</tspan></text><text class="cls-10" transform="translate(0 16.48)">13<tspan x="0" y="30">12</tspan><tspan x="0" y="60">11</tspan><tspan x="0" y="90">10</tspan><tspan x="9.27" y="120">9</tspan><tspan x="9.27" y="150">8</tspan><tspan x="9.27" y="180">7</tspan><tspan x="9.27" y="210">6</tspan><tspan x="9.27" y="240">5</tspan><tspan x="9.27" y="270">4</tspan><tspan x="9.27" y="300">3</tspan><tspan x="9.27" y="330">2</tspan><tspan x="9.27" y="360">1</tspan></text><line class="cls-11" x1="25.35" y1="368.86" x2="743.04" y2="368.86"/><line class="cls-11" x1="25.35" y1="338.86" x2="743.04" y2="338.86"/><line class="cls-11" x1="25.35" y1="308.86" x2="743.04" y2="308.86"/><line class="cls-11" x1="25.35" y1="278.86" x2="743.04" y2="278.86"/><line class="cls-11" x1="25.35" y1="248.86" x2="743.04" y2="248.86"/><line class="cls-11" x1="25.35" y1="218.86" x2="743.04" y2="218.86"/><line class="cls-11" x1="25.35" y1="188.86" x2="743.04" y2="188.86"/><line class="cls-11" x1="25.35" y1="158.86" x2="743.04" y2="158.86"/><line class="cls-11" x1="25.35" y1="128.86" x2="743.04" y2="128.86"/><line class="cls-11" x1="25.35" y1="98.86" x2="743.04" y2="98.86"/><line class="cls-11" x1="25.35" y1="68.86" x2="743.04" y2="68.86"/><line class="cls-11" x1="25.35" y1="38.86" x2="743.04" y2="38.86"/><line class="cls-11" x1="25.35" y1="8.86" x2="743.04" y2="8.86"/></g></g></svg>