<svg width="119" height="98" viewBox="0 0 119 98" fill="none" xmlns="http://www.w3.org/2000/svg">
<g clip-path="url(#clip0)">
<path d="M103.516 67.0353H102.626C103.952 64.7005 104.647 62.0613 104.645 59.3764C104.646 55.3697 103.093 51.519 100.313 48.634C97.5327 45.7491 93.7425 44.0548 89.7392 43.9074C90.7904 41.5494 91.2355 38.966 91.0341 36.3921C90.8326 33.8182 89.991 31.3355 88.5858 29.1698C87.1805 27.0041 85.2562 25.2242 82.9879 23.9919C80.7196 22.7596 78.1793 22.114 75.5979 22.1138H68.1893C74.584 3.95843 59.5 0 59.5 0C62.8085 1.61895 64.276 8.49505 53.1053 11.9998C44.5761 14.6684 34.4282 21.589 30.0524 29.746C28.8029 31.873 28.0792 34.2677 27.9415 36.7308C27.8039 39.194 28.2562 41.6544 29.2608 43.9074C25.2638 44.0638 21.4825 45.762 18.7101 48.646C15.9377 51.53 14.3895 55.3756 14.3903 59.3764C14.3871 62.0625 15.0862 64.7028 16.4181 67.0353H15.4842C13.4505 67.0341 11.4365 67.4339 9.55729 68.2118C7.67813 68.9897 5.9707 70.1304 4.53262 71.5687C3.09454 73.007 1.95403 74.7147 1.17629 76.5942C0.398547 78.4736 -0.0011666 80.488 2.55741e-06 82.5221C2.22167e-06 84.5554 0.400578 86.5688 1.17884 88.4473C1.95711 90.3257 3.09781 92.0324 4.53577 93.4698C5.97373 94.9071 7.68077 96.0471 9.55935 96.8244C11.4379 97.6017 13.4512 98.0012 15.4842 98H103.534C107.639 98 111.576 96.3696 114.479 93.4672C117.383 90.5648 119.015 86.6279 119.018 82.5221C119.018 80.4868 118.617 78.4716 117.837 76.5915C117.058 74.7113 115.916 73.0033 114.476 71.565C113.037 70.1267 111.327 68.9863 109.447 68.2091C107.566 67.4318 105.551 67.033 103.516 67.0353Z" fill="#7F7F6B"/>
<path d="M40.8318 49.0044C32.3381 49.0044 29.2697 43.9074 29.2697 43.9074C27.4354 43.9788 25.6284 44.3764 23.9334 45.0816C31.342 54.733 40.8318 49.0044 40.8318 49.0044Z" fill="#5B606A"/>
<path d="M29.3498 74.3917C19.4509 71.9722 16.4626 67.0353 16.4626 67.0353H15.4842C13.667 67.0152 11.8604 67.3163 10.1479 67.9248C17.8767 78.7682 29.3498 74.3917 29.3498 74.3917Z" fill="#5B606A"/>
</g>
<defs>
<clipPath id="clip0">
<rect width="119" height="98" fill="white"/>
</clipPath>
</defs>
</svg>
