<svg width="101" height="105" viewBox="0 0 101 105" fill="none" xmlns="http://www.w3.org/2000/svg">
<g clip-path="url(#clip0)">
<path d="M100.995 93.7212V11.2788C100.995 5.04968 95.9584 0 89.745 0L11.2459 0C5.03247 0 -0.00453949 5.04968 -0.00453949 11.2788V93.7212C-0.00453949 99.9503 5.03247 105 11.2459 105H89.745C95.9584 105 100.995 99.9503 100.995 93.7212Z" fill="#E8D8A8"/>
<path d="M89.7495 2.27577H11.2505C6.29074 2.27577 2.27008 6.30655 2.27008 11.2788V93.7212C2.27008 98.6934 6.29074 102.724 11.2505 102.724H89.7495C94.7093 102.724 98.7299 98.6934 98.7299 93.7212V11.2788C98.7299 6.30655 94.7093 2.27577 89.7495 2.27577Z" fill="#BCA768"/>
<path d="M55.3126 12.0935H49.147V77.7225H55.3126V12.0935Z" fill="#ECDFB8"/>
<path d="M29.7425 22.3027C30.8109 22.3035 31.8556 21.9866 32.7442 21.3919C33.6328 20.7971 34.3254 19.9514 34.7343 18.9618C35.1432 17.9722 35.2499 16.8833 35.041 15.8328C34.8322 14.7824 34.317 13.8177 33.5609 13.0609C32.8048 12.3041 31.8416 11.7893 30.7934 11.5817C29.7453 11.3741 28.6592 11.4829 27.6728 11.8945C26.6864 12.306 25.8439 13.0018 25.2522 13.8937C24.6605 14.7855 24.3461 15.8334 24.3488 16.9045C24.3512 18.337 24.9205 19.71 25.9318 20.7221C26.943 21.7342 28.3135 22.3027 29.7425 22.3027Z" fill="#ECDFB8"/>
<path d="M28.9479 56.6123V75.556C28.9479 78.9605 23.863 78.9605 23.863 75.556V56.6123H17.1163L24.3306 31.5196H23.1956L18.946 45.8524C17.9381 48.9794 13.6567 47.6958 14.6374 44.3504L19.3546 28.7795C19.8586 26.9999 22.0787 23.8547 25.9741 23.8547H33.3973C37.2428 23.8547 39.4901 27.0408 40.0713 28.7795L44.793 44.3322C45.7374 47.6776 41.4878 49.0658 40.4753 45.8024L36.2303 31.5196H34.9999L42.2959 56.6123H35.5221V75.556C35.5221 78.9332 30.4553 78.915 30.4553 75.556V56.6123H28.9479Z" fill="#ECDFB8"/>
<path d="M68.2474 23.832C67.3335 23.8432 66.4308 24.0355 65.5913 24.3979C64.7517 24.7602 63.992 25.2853 63.3556 25.9431C62.7193 26.6009 62.2191 27.3784 61.8836 28.2307C61.5481 29.0831 61.3841 29.9935 61.4009 30.9097V47.6503C61.387 47.9671 61.4372 48.2835 61.5485 48.5803C61.6599 48.8772 61.83 49.1483 62.0487 49.3774C62.2674 49.6066 62.5301 49.7889 62.821 49.9135C63.1119 50.0381 63.425 50.1023 63.7413 50.1023C64.0577 50.1023 64.3707 50.0381 64.6616 49.9135C64.9525 49.7889 65.2152 49.6066 65.4339 49.3774C65.6526 49.1483 65.8228 48.8772 65.9341 48.5803C66.0455 48.2835 66.0957 47.9671 66.0818 47.6503V32.3434H67.1941V74.7503C67.1941 79.1016 73.4277 78.9742 73.4277 74.7503V49.9261H74.5037V74.7503C74.5037 78.9742 80.7737 79.1016 80.7737 74.7503V32.3434H81.8588V47.6503C81.8389 47.9686 81.8843 48.2876 81.9921 48.5876C82.1 48.8876 82.268 49.1623 82.4858 49.3947C82.7036 49.6272 82.9666 49.8124 83.2585 49.939C83.5505 50.0657 83.8652 50.131 84.1833 50.131C84.5014 50.131 84.8162 50.0657 85.1081 49.939C85.4001 49.8124 85.663 49.6272 85.8808 49.3947C86.0986 49.1623 86.2666 48.8876 86.3745 48.5876C86.4823 48.2876 86.5277 47.9686 86.5079 47.6503V31.0098C86.5079 27.3685 83.7429 23.8411 79.5751 23.8411L68.2474 23.832Z" fill="#ECDFB8"/>
<path d="M73.9407 22.3027C75.0096 22.3054 76.0551 21.9899 76.945 21.3963C77.8348 20.8027 78.5288 19.9576 78.939 18.9682C79.3493 17.9787 79.4574 16.8895 79.2495 15.8384C79.0417 14.7874 78.5272 13.8218 77.7715 13.0641C77.0157 12.3065 76.0526 11.7908 75.0042 11.5824C73.9557 11.374 72.8692 11.4823 71.8823 11.8936C70.8953 12.3049 70.0524 13.0007 69.4602 13.8927C68.8681 14.7848 68.5534 15.833 68.5561 16.9045C68.5585 18.3355 69.1266 19.7071 70.1359 20.7189C71.1452 21.7308 72.5134 22.3003 73.9407 22.3027Z" fill="#ECDFB8"/>
<path d="M10.4923 83.685C11.4662 83.5407 12.4498 83.4722 13.4343 83.4802C14.8826 83.4802 15.895 83.6987 16.6124 84.2494C16.9132 84.4957 17.1521 84.8093 17.3098 85.1651C17.4675 85.5208 17.5397 85.9088 17.5204 86.2976C17.5142 86.8285 17.3453 87.3447 17.0367 87.7762C16.7281 88.2077 16.2947 88.5336 15.7952 88.71V88.7555C16.4762 89.0331 16.853 89.6658 17.1027 90.5761C17.4069 91.6821 17.7111 92.9611 17.8973 93.3389H15.6272C15.3285 92.6038 15.1004 91.8417 14.9462 91.0631C14.6874 89.8433 14.2651 89.511 13.3662 89.4974H12.6761V93.348H10.4923V83.685ZM12.6761 87.8998H13.5478C14.651 87.8998 15.3003 87.3445 15.3003 86.4888C15.3003 85.6331 14.6919 85.1233 13.6795 85.1233C13.3435 85.1159 13.0075 85.1402 12.6761 85.1961V87.8998Z" fill="#ECDFB8"/>
<path d="M24.8981 89.2106H21.3024V91.5365H25.3158V93.3571H19.0686V83.553H25.1115V85.3737H21.3024V87.39H24.8981V89.2106Z" fill="#ECDFB8"/>
<path d="M26.8958 91.0631C27.6561 91.4513 28.4944 91.6614 29.3475 91.6776C30.3599 91.6776 30.8957 91.2543 30.8957 90.6125C30.8957 89.9708 30.4417 89.6567 29.2612 89.2471C27.6358 88.6827 26.578 87.7814 26.578 86.3568C26.578 84.6864 27.9673 83.4074 30.2737 83.4074C31.1305 83.3905 31.9808 83.5598 32.7662 83.9035L32.2713 85.6877C31.6335 85.3829 30.9349 85.2273 30.2283 85.2326C29.2748 85.2326 28.8117 85.6877 28.8117 86.1747C28.8117 86.8029 29.3611 87.0851 30.6278 87.5402C32.3485 88.1774 33.1612 89.0786 33.1612 90.4578C33.1612 92.1009 31.899 93.4982 29.2204 93.4982C28.2644 93.509 27.3181 93.3053 26.4509 92.902L26.8958 91.0631Z" fill="#ECDFB8"/>
<path d="M36.5345 85.4146H33.9103V83.553H41.4197V85.4146H38.7501V93.348H36.5345V85.4146Z" fill="#ECDFB8"/>
<path d="M42.5911 83.685C43.565 83.5411 44.5486 83.4726 45.5331 83.4802C46.9859 83.4802 47.9984 83.6987 48.7112 84.2494C49.012 84.4957 49.2509 84.8093 49.4086 85.1651C49.5663 85.5208 49.6385 85.9088 49.6192 86.2976C49.613 86.8285 49.4441 87.3447 49.1355 87.7762C48.8269 88.2077 48.3935 88.5336 47.894 88.7099V88.7555C48.575 89.0331 48.9518 89.6658 49.2015 90.5761C49.5057 91.6821 49.8099 92.9611 49.996 93.3389H47.726C47.4273 92.6037 47.1992 91.8417 47.0449 91.0631C46.7862 89.8433 46.3639 89.511 45.465 89.4974H44.7794V93.348H42.5911V83.685ZM44.7794 87.8998H45.6511C46.7544 87.8998 47.4036 87.3445 47.4036 86.4888C47.4036 85.6331 46.7952 85.1233 45.7828 85.1233C45.4468 85.1159 45.1108 85.1402 44.7794 85.1961V87.8998Z" fill="#ECDFB8"/>
<path d="M60.0706 88.3504C60.0706 91.5365 58.1274 93.5073 55.2762 93.5073C52.425 93.5073 50.6816 91.3135 50.6816 88.5234C50.6816 85.5876 52.5521 83.3937 55.4351 83.3937C58.4362 83.3937 60.0706 85.6468 60.0706 88.3504ZM53.0152 88.4778C53.0152 90.3986 53.9233 91.7459 55.3897 91.7459C56.8562 91.7459 57.737 90.3258 57.737 88.4187C57.737 86.6618 56.8971 85.1506 55.3761 85.1506C53.8552 85.1506 53.0152 86.5753 53.0152 88.4778Z" fill="#ECDFB8"/>
<path d="M70.463 88.3504C70.463 91.5365 68.5198 93.5073 65.6686 93.5073C62.8174 93.5073 61.074 91.3135 61.074 88.5234C61.074 85.5876 62.94 83.3937 65.8275 83.3937C68.824 83.3937 70.463 85.6468 70.463 88.3504ZM63.4076 88.4778C63.4076 90.3986 64.3156 91.7459 65.7821 91.7459C67.2486 91.7459 68.1294 90.3258 68.1294 88.4187C68.1294 86.6618 67.2894 85.1506 65.7685 85.1506C64.2475 85.1506 63.4076 86.5753 63.4076 88.4778Z" fill="#ECDFB8"/>
<path d="M80.1744 89.5975C80.129 88.4187 80.0881 86.9986 80.0881 85.5739H80.0427C79.7385 86.8211 79.3345 88.2184 78.9576 89.3654L77.7681 93.1887H76.0429L74.9986 89.3927C74.6808 88.2457 74.3494 86.8529 74.1178 85.5739H74.0861C74.027 86.8939 73.9862 88.405 73.9135 89.6248L73.741 93.348H71.6979L72.3199 83.553H75.262L76.2199 86.8211C76.5241 87.9544 76.8283 89.1742 77.0417 90.3258H77.0871C77.364 89.1924 77.6955 87.8998 77.9951 86.8074L79.0394 83.553H81.9223L82.4626 93.348H80.3015L80.1744 89.5975Z" fill="#ECDFB8"/>
<path d="M84.2469 91.0631C85.0072 91.4512 85.8455 91.6613 86.6986 91.6776C87.711 91.6776 88.2467 91.2543 88.2467 90.6125C88.2467 89.9707 87.7927 89.6567 86.6077 89.247C84.9869 88.6826 83.9291 87.7814 83.9291 86.3568C83.9291 84.6864 85.3183 83.4074 87.6247 83.4074C88.4815 83.3911 89.3317 83.5603 90.1173 83.9035L89.6224 85.6877C88.9845 85.3829 88.2859 85.2273 87.5793 85.2326C86.6259 85.2326 86.1628 85.6877 86.1628 86.1747C86.1628 86.8029 86.7122 87.085 87.9789 87.5402C89.6996 88.1774 90.5123 89.0786 90.5123 90.4578C90.5123 92.1009 89.2501 93.4982 86.5714 93.4982C85.6154 93.5096 84.669 93.3058 83.8019 92.9019L84.2469 91.0631Z" fill="#ECDFB8"/>
</g>
<defs>
<clipPath id="clip0">
<rect width="101" height="105" fill="white"/>
</clipPath>
</defs>
</svg>
