<svg xmlns="http://www.w3.org/2000/svg" viewBox="0 0 176.1 184.46"><defs><style>.cls-1{fill:#f1f2f2;}.cls-2{fill:#354a5f;}.cls-3{fill:#939598;}.cls-4{fill:#e6e7e8;}</style></defs><g id="Layer_2" data-name="Layer 2"><g id="Layer_3" data-name="Layer 3"><path class="cls-1" d="M145.46,151.42v24.07c0,3.29,5.43,6,12.12,6s12.13-2.67,12.13-6V151.42Z"/><path class="cls-2" d="M157.58,182.33c-7.29,0-13-3-13-6.84V151.42a.88.88,0,0,1,.88-.89h24.25a.88.88,0,0,1,.88.89v24.07C170.59,179.33,164.88,182.33,157.58,182.33Zm-11.24-30v23.19c0,1.22,1.12,2.46,3.06,3.42a21.13,21.13,0,0,0,16.37,0c1.94-1,3-2.2,3-3.42V152.3Z"/><ellipse class="cls-1" cx="157.58" cy="151.42" rx="12.12" ry="5.96"/><path class="cls-2" d="M157.58,158.26c-7.29,0-13-3-13-6.84s5.71-6.84,13-6.84,13,3,13,6.84S164.88,158.26,157.58,158.26Zm0-11.92A19,19,0,0,0,149.4,148c-1.94.95-3.06,2.2-3.06,3.42s1.12,2.46,3.06,3.42a21.13,21.13,0,0,0,16.37,0c1.94-1,3-2.2,3-3.42s-1.11-2.47-3-3.42A19,19,0,0,0,157.58,146.34Z"/><ellipse class="cls-3" cx="157.58" cy="151" rx="3.04" ry="1.49"/><path class="cls-2" d="M157.58,153.38c-2.27,0-3.92-1-3.92-2.38s1.65-2.38,3.92-2.38,3.93,1,3.93,2.38S159.86,153.38,157.58,153.38ZM155.44,151a3.14,3.14,0,0,0,2.14.61,3.1,3.1,0,0,0,2.14-.61,3.1,3.1,0,0,0-2.14-.61A3.14,3.14,0,0,0,155.44,151Z"/><path class="cls-4" d="M155.47,157.38c6.68,0,19.75,19.28,19.75,19.28a22.5,22.5,0,0,1-13,6.91c-3.44-1.11-6-15.06-6-15.06Z"/><path class="cls-2" d="M162.25,184.46a.86.86,0,0,1-.27-.05c-2.33-.75-3.89-5.23-4.86-8.54-1.07-3.63-1.71-7.06-1.73-7.2a.34.34,0,0,1,0-.1l-.79-11.13a.92.92,0,0,1,.23-.67.94.94,0,0,1,.65-.28c3,0,7.43,3.35,13.05,10,4.09,4.8,7.4,9.67,7.43,9.72a.89.89,0,0,1-.1,1.11,23.27,23.27,0,0,1-13.46,7.16Zm-5.11-16.06c.08.42.7,3.67,1.68,7,1.66,5.62,3,7,3.54,7.27a21.55,21.55,0,0,0,11.71-6.1c-1-1.44-3.71-5.23-6.9-9-2.69-3.16-7.44-8.26-10.74-9.18Z"/><path class="cls-1" d="M145.46,127.32v24.07c0,3.29,5.43,6,12.12,6s12.13-2.67,12.13-6V127.32Z"/><path class="cls-2" d="M157.58,158.24c-7.29,0-13-3-13-6.85V127.32a.87.87,0,0,1,.88-.88h24.25a.87.87,0,0,1,.88.88v24.07C170.59,155.23,164.88,158.24,157.58,158.24Zm-11.24-30v23.18c0,1.22,1.12,2.47,3.06,3.42a21,21,0,0,0,16.37,0c1.94-.95,3-2.2,3-3.42V128.21Z"/><ellipse class="cls-1" cx="157.58" cy="127.32" rx="12.12" ry="5.96"/><path class="cls-2" d="M157.58,134.17c-7.29,0-13-3-13-6.85s5.71-6.84,13-6.84,13,3,13,6.84S164.88,134.17,157.58,134.17Zm0-11.92a19.14,19.14,0,0,0-8.18,1.65c-1.94,1-3.06,2.2-3.06,3.42s1.12,2.47,3.06,3.42a21,21,0,0,0,16.37,0c1.94-1,3-2.2,3-3.42s-1.11-2.46-3-3.42A19.15,19.15,0,0,0,157.58,122.25Z"/><ellipse class="cls-3" cx="157.58" cy="126.9" rx="3.04" ry="1.49"/><path class="cls-2" d="M157.58,129.28c-2.27,0-3.92-1-3.92-2.38s1.65-2.38,3.92-2.38,3.93,1,3.93,2.38S159.86,129.28,157.58,129.28Zm-2.14-2.38a3.09,3.09,0,0,0,2.14.61,3,3,0,0,0,2.14-.61,3.1,3.1,0,0,0-2.14-.61A3.14,3.14,0,0,0,155.44,126.9Z"/><path class="cls-4" d="M155.47,133.28c6.68,0,19.75,19.29,19.75,19.29a22.57,22.57,0,0,1-13,6.91c-3.44-1.12-6-15.07-6-15.07Z"/><path class="cls-2" d="M162.25,160.36a.84.84,0,0,1-.27,0c-2.33-.76-3.89-5.24-4.86-8.54-1.07-3.63-1.71-7.06-1.73-7.21a.28.28,0,0,1,0-.09l-.79-11.14a.87.87,0,0,1,.88-.94c3,0,7.43,3.35,13.05,9.95,4.09,4.8,7.4,9.67,7.43,9.72a.9.9,0,0,1-.1,1.12,23.39,23.39,0,0,1-13.46,7.16Zm-5.11-16.06c.08.43.7,3.67,1.68,7,1.66,5.63,3,7,3.54,7.27a21.41,21.41,0,0,0,11.71-6.1c-1-1.44-3.71-5.23-6.9-9-2.69-3.16-7.44-8.27-10.74-9.18Z"/><path class="cls-1" d="M145.46,103.23V127.3c0,3.29,5.43,6,12.12,6s12.13-2.67,12.13-6V103.23Z"/><path class="cls-2" d="M157.58,134.14c-7.29,0-13-3-13-6.84V103.23a.88.88,0,0,1,.88-.89h24.25a.88.88,0,0,1,.88.89V127.3C170.59,131.13,164.88,134.14,157.58,134.14Zm-11.24-30V127.3c0,1.22,1.12,2.46,3.06,3.42a21.13,21.13,0,0,0,16.37,0c1.94-1,3-2.2,3-3.42V104.11Z"/><ellipse class="cls-1" cx="157.58" cy="103.23" rx="12.12" ry="5.96"/><path class="cls-2" d="M157.58,110.07c-7.29,0-13-3-13-6.84s5.71-6.85,13-6.85,13,3,13,6.85S164.88,110.07,157.58,110.07Zm0-11.92a19,19,0,0,0-8.18,1.66c-1.94,1-3.06,2.2-3.06,3.42s1.12,2.46,3.06,3.42a21.13,21.13,0,0,0,16.37,0c1.94-1,3-2.2,3-3.42s-1.11-2.47-3-3.42A19,19,0,0,0,157.58,98.15Z"/><ellipse class="cls-3" cx="157.58" cy="102.81" rx="3.04" ry="1.49"/><path class="cls-2" d="M157.58,105.19c-2.27,0-3.92-1-3.92-2.38s1.65-2.38,3.92-2.38,3.93,1,3.93,2.38S159.86,105.19,157.58,105.19Zm-2.14-2.38a3.14,3.14,0,0,0,2.14.61,3.1,3.1,0,0,0,2.14-.61,3,3,0,0,0-2.14-.61A3.09,3.09,0,0,0,155.44,102.81Z"/><path class="cls-4" d="M155.47,109.19c6.68,0,19.75,19.28,19.75,19.28a22.5,22.5,0,0,1-13,6.91c-3.44-1.11-6-15.06-6-15.06Z"/><path class="cls-2" d="M162.25,136.26a.84.84,0,0,1-.27,0c-2.33-.75-3.89-5.23-4.86-8.54-1.07-3.63-1.71-7.06-1.73-7.2a.38.38,0,0,1,0-.1l-.79-11.13a.87.87,0,0,1,.88-1c3,0,7.43,3.35,13.05,10,4.09,4.8,7.4,9.67,7.43,9.71a.9.9,0,0,1-.1,1.12,23.33,23.33,0,0,1-13.46,7.16Zm-5.11-16.06c.08.43.7,3.68,1.68,7,1.66,5.63,3,7,3.54,7.27a21.41,21.41,0,0,0,11.71-6.1c-1-1.43-3.71-5.22-6.9-9-2.69-3.16-7.44-8.26-10.74-9.18Z"/><path class="cls-1" d="M145.46,79.13V103.2c0,3.29,5.43,6,12.12,6s12.13-2.67,12.13-6V79.13Z"/><path class="cls-2" d="M157.58,110c-7.29,0-13-3-13-6.84V79.13a.87.87,0,0,1,.88-.88h24.25a.87.87,0,0,1,.88.88V103.2C170.59,107,164.88,110,157.58,110ZM146.34,80V103.2c0,1.22,1.12,2.47,3.06,3.42a21,21,0,0,0,16.37,0c1.94-1,3-2.2,3-3.42V80Z"/><ellipse class="cls-1" cx="157.58" cy="79.13" rx="12.12" ry="5.96"/><path class="cls-2" d="M157.58,86c-7.29,0-13-3-13-6.84s5.71-6.84,13-6.84,13,3,13,6.84S164.88,86,157.58,86Zm0-11.91a19,19,0,0,0-8.18,1.65c-1.94,1-3.06,2.2-3.06,3.42s1.12,2.47,3.06,3.42a21,21,0,0,0,16.37,0c1.94-1,3-2.2,3-3.42s-1.11-2.46-3-3.42A19,19,0,0,0,157.58,74.06Z"/><ellipse class="cls-3" cx="157.58" cy="78.71" rx="3.04" ry="1.49"/><path class="cls-2" d="M157.58,81.09c-2.27,0-3.92-1-3.92-2.38s1.65-2.38,3.92-2.38,3.93,1,3.93,2.38S159.86,81.09,157.58,81.09Zm-2.14-2.38a3.09,3.09,0,0,0,2.14.61,3,3,0,0,0,2.14-.61,3.1,3.1,0,0,0-2.14-.61A3.14,3.14,0,0,0,155.44,78.71Z"/><path class="cls-4" d="M155.47,85.09c6.68,0,19.75,19.28,19.75,19.28a22.44,22.44,0,0,1-13,6.91c-3.44-1.11-6-15.06-6-15.06Z"/><path class="cls-2" d="M162.25,112.17a1.26,1.26,0,0,1-.27,0c-2.33-.76-3.89-5.24-4.86-8.55-1.07-3.62-1.71-7.06-1.73-7.2a.31.31,0,0,1,0-.1l-.79-11.13a.87.87,0,0,1,.88-.94c3,0,7.43,3.34,13.05,10,4.09,4.8,7.4,9.67,7.43,9.72a.89.89,0,0,1-.1,1.11,23.36,23.36,0,0,1-13.46,7.17Zm-5.11-16.06c.08.42.7,3.67,1.68,7,1.66,5.63,3,7,3.54,7.27a21.55,21.55,0,0,0,11.71-6.1c-1-1.44-3.71-5.23-6.9-9-2.69-3.16-7.44-8.26-10.74-9.17Z"/><path class="cls-1" d="M145.46,55V79.11c0,3.29,5.43,6,12.12,6s12.13-2.66,12.13-6V55Z"/><path class="cls-2" d="M157.58,86c-7.29,0-13-3-13-6.84V55a.88.88,0,0,1,.88-.88h24.25a.88.88,0,0,1,.88.88V79.11C170.59,82.94,164.88,86,157.58,86Zm-11.24-30V79.11c0,1.21,1.12,2.46,3.06,3.42a21.13,21.13,0,0,0,16.37,0c1.94-1,3-2.21,3-3.42V55.92Z"/><ellipse class="cls-1" cx="157.58" cy="55.03" rx="12.12" ry="5.96"/><path class="cls-2" d="M157.58,61.88c-7.29,0-13-3-13-6.85s5.71-6.84,13-6.84,13,3,13,6.84S164.88,61.88,157.58,61.88Zm0-11.92a19.14,19.14,0,0,0-8.18,1.65c-1.94,1-3.06,2.21-3.06,3.42s1.12,2.47,3.06,3.43a21.13,21.13,0,0,0,16.37,0c1.94-1,3-2.21,3-3.43s-1.11-2.46-3-3.42A19.15,19.15,0,0,0,157.58,50Z"/><ellipse class="cls-3" cx="157.58" cy="54.62" rx="3.04" ry="1.49"/><path class="cls-2" d="M157.58,57c-2.27,0-3.92-1-3.92-2.37s1.65-2.38,3.92-2.38,3.93,1,3.93,2.38S159.86,57,157.58,57Zm-2.14-2.37a3.14,3.14,0,0,0,2.14.61,3.1,3.1,0,0,0,2.14-.61,3,3,0,0,0-2.14-.61A3.09,3.09,0,0,0,155.44,54.62Z"/><path class="cls-4" d="M155.47,61c6.68,0,19.75,19.29,19.75,19.29a22.57,22.57,0,0,1-13,6.91c-3.44-1.12-6-15.06-6-15.06Z"/><path class="cls-2" d="M162.25,88.07a.84.84,0,0,1-.27,0c-2.33-.75-3.89-5.24-4.86-8.54-1.07-3.63-1.71-7.06-1.73-7.21a.28.28,0,0,1,0-.09l-.79-11.13a.87.87,0,0,1,.88-1c3,0,7.43,3.35,13.05,10,4.09,4.81,7.4,9.67,7.43,9.72a.9.9,0,0,1-.1,1.12,23.39,23.39,0,0,1-13.46,7.16ZM157.14,72c.08.43.7,3.67,1.68,7,1.66,5.63,3,7,3.54,7.27a21.41,21.41,0,0,0,11.71-6.1c-1-1.43-3.71-5.22-6.9-9-2.69-3.16-7.44-8.26-10.74-9.18Z"/><path class="cls-1" d="M145.46,30.94V55c0,3.29,5.43,6,12.12,6s12.13-2.67,12.13-6V30.94Z"/><path class="cls-2" d="M157.58,61.85c-7.29,0-13-3-13-6.84V30.94a.88.88,0,0,1,.88-.89h24.25a.88.88,0,0,1,.88.89V55C170.59,58.85,164.88,61.85,157.58,61.85Zm-11.24-30V55c0,1.22,1.12,2.46,3.06,3.42a21.13,21.13,0,0,0,16.37,0c1.94-1,3-2.2,3-3.42V31.82Z"/><ellipse class="cls-1" cx="157.58" cy="30.94" rx="12.12" ry="5.96"/><path class="cls-2" d="M157.58,37.78c-7.29,0-13-3-13-6.84s5.71-6.84,13-6.84,13,3,13,6.84S164.88,37.78,157.58,37.78Zm0-11.92a19,19,0,0,0-8.18,1.66c-1.94.95-3.06,2.2-3.06,3.42s1.12,2.46,3.06,3.42a21.13,21.13,0,0,0,16.37,0c1.94-1,3-2.2,3-3.42s-1.11-2.47-3-3.42A19,19,0,0,0,157.58,25.86Z"/><ellipse class="cls-3" cx="157.58" cy="30.52" rx="3.04" ry="1.49"/><path class="cls-2" d="M157.58,32.9c-2.27,0-3.92-1-3.92-2.38s1.65-2.38,3.92-2.38,3.93,1,3.93,2.38S159.86,32.9,157.58,32.9Zm-2.14-2.38a3.14,3.14,0,0,0,2.14.61,3.1,3.1,0,0,0,2.14-.61,3.1,3.1,0,0,0-2.14-.61A3.14,3.14,0,0,0,155.44,30.52Z"/><path class="cls-4" d="M155.47,36.9c6.68,0,19.75,19.28,19.75,19.28a22.5,22.5,0,0,1-13,6.91c-3.44-1.11-6-15.06-6-15.06Z"/><path class="cls-2" d="M162.25,64a.86.86,0,0,1-.27,0c-2.33-.75-3.89-5.23-4.86-8.54-1.07-3.63-1.71-7.06-1.73-7.2a.34.34,0,0,1,0-.1L154.59,37a.88.88,0,0,1,.23-.66.91.91,0,0,1,.65-.29c3,0,7.43,3.35,13.05,10,4.09,4.8,7.4,9.67,7.43,9.72a.89.89,0,0,1-.1,1.11A23.27,23.27,0,0,1,162.39,64Zm-5.11-16.06c.08.42.7,3.67,1.68,7,1.66,5.62,3,7,3.54,7.27a21.55,21.55,0,0,0,11.71-6.1c-1-1.44-3.71-5.23-6.9-9-2.69-3.16-7.44-8.26-10.74-9.18Z"/><path class="cls-1" d="M145.46,6.84V30.91c0,3.29,5.43,6,12.12,6s12.13-2.67,12.13-6V6.84Z"/><path class="cls-2" d="M157.58,37.76c-7.29,0-13-3-13-6.85V6.84a.87.87,0,0,1,.88-.88h24.25a.87.87,0,0,1,.88.88V30.91C170.59,34.75,164.88,37.76,157.58,37.76Zm-11.24-30V30.91c0,1.22,1.12,2.47,3.06,3.42a21,21,0,0,0,16.37,0c1.94-.95,3-2.2,3-3.42V7.73Z"/><ellipse class="cls-1" cx="157.58" cy="6.84" rx="12.12" ry="5.96"/><path class="cls-2" d="M157.58,13.69c-7.29,0-13-3-13-6.85S150.29,0,157.58,0s13,3,13,6.84S164.88,13.69,157.58,13.69Zm0-11.92a19.14,19.14,0,0,0-8.18,1.65c-1.94,1-3.06,2.2-3.06,3.42s1.12,2.47,3.06,3.42a19,19,0,0,0,8.18,1.66,19,19,0,0,0,8.19-1.66c1.94-.95,3-2.2,3-3.42s-1.11-2.46-3-3.42A19.15,19.15,0,0,0,157.58,1.77Z"/><ellipse class="cls-3" cx="157.58" cy="6.42" rx="3.04" ry="1.49"/><path class="cls-2" d="M157.58,8.8c-2.27,0-3.92-1-3.92-2.38s1.65-2.37,3.92-2.37,3.93,1,3.93,2.37S159.86,8.8,157.58,8.8Zm-2.14-2.38a3.09,3.09,0,0,0,2.14.61,3,3,0,0,0,2.14-.61,3.1,3.1,0,0,0-2.14-.61A3.14,3.14,0,0,0,155.44,6.42Z"/><path class="cls-4" d="M155.47,12.8c6.68,0,19.75,19.29,19.75,19.29a22.57,22.57,0,0,1-13,6.91c-3.44-1.12-6-15.07-6-15.07Z"/><path class="cls-2" d="M162.25,39.88a.84.84,0,0,1-.27,0c-2.33-.76-3.89-5.24-4.86-8.54-1.07-3.63-1.71-7.06-1.73-7.21a.28.28,0,0,1,0-.09l-.79-11.14a.87.87,0,0,1,.88-.94c3,0,7.43,3.35,13.05,10,4.09,4.8,7.4,9.67,7.43,9.72a.9.9,0,0,1-.1,1.12,23.39,23.39,0,0,1-13.46,7.16Zm-5.11-16.06c.08.43.7,3.67,1.68,7,1.66,5.63,3,7,3.54,7.27A21.41,21.41,0,0,0,174.07,32c-1-1.44-3.71-5.23-6.9-9-2.69-3.16-7.44-8.27-10.74-9.18Z"/><path class="cls-1" d="M121.36,151.42v24.07c0,3.29,5.43,6,12.13,6s12.12-2.67,12.12-6V151.42Z"/><path class="cls-2" d="M133.49,182.33c-7.3,0-13-3-13-6.84V151.42a.89.89,0,0,1,.88-.89h24.25a.88.88,0,0,1,.88.89v24.07C146.49,179.33,140.78,182.33,133.49,182.33Zm-11.24-30v23.19c0,1.22,1.11,2.46,3,3.42a21.13,21.13,0,0,0,16.37,0c1.94-1,3.06-2.2,3.06-3.42V152.3Z"/><ellipse class="cls-1" cx="133.49" cy="151.42" rx="12.12" ry="5.96"/><path class="cls-2" d="M133.49,158.26c-7.3,0-13-3-13-6.84s5.71-6.84,13-6.84,13,3,13,6.84S140.78,158.26,133.49,158.26Zm0-11.92A19,19,0,0,0,125.3,148c-1.94.95-3,2.2-3,3.42s1.11,2.46,3,3.42a21.13,21.13,0,0,0,16.37,0c1.94-1,3.06-2.2,3.06-3.42s-1.12-2.47-3.06-3.42A19,19,0,0,0,133.49,146.34Z"/><ellipse class="cls-3" cx="133.49" cy="151" rx="3.04" ry="1.49"/><path class="cls-2" d="M133.49,153.38c-2.28,0-3.93-1-3.93-2.38s1.65-2.38,3.93-2.38,3.92,1,3.92,2.38S135.76,153.38,133.49,153.38ZM131.35,151a3.1,3.1,0,0,0,2.14.61,3.14,3.14,0,0,0,2.14-.61,3.14,3.14,0,0,0-2.14-.61A3.1,3.1,0,0,0,131.35,151Z"/><path class="cls-4" d="M131.38,157.38c6.68,0,19.74,19.28,19.74,19.28a22.5,22.5,0,0,1-13,6.91c-3.43-1.11-6-15.06-6-15.06Z"/><path class="cls-2" d="M138.15,184.46a.86.86,0,0,1-.27-.05c-2.32-.75-3.89-5.23-4.86-8.54-1.07-3.63-1.7-7.06-1.73-7.2s0-.07,0-.1l-.79-11.13a.89.89,0,0,1,.89-.95c3,0,7.43,3.35,13.05,10,4.08,4.8,7.39,9.67,7.42,9.72a.87.87,0,0,1-.1,1.11,23.28,23.28,0,0,1-13.45,7.16ZM133,168.4c.08.42.7,3.67,1.68,7,1.66,5.62,3,7,3.54,7.27a21.52,21.52,0,0,0,11.71-6.1c-1-1.44-3.71-5.23-6.9-9-2.69-3.16-7.43-8.26-10.74-9.18Z"/><path class="cls-1" d="M121.36,127.32v24.07c0,3.29,5.43,6,12.13,6s12.12-2.67,12.12-6V127.32Z"/><path class="cls-2" d="M133.49,158.24c-7.3,0-13-3-13-6.85V127.32a.88.88,0,0,1,.88-.88h24.25a.87.87,0,0,1,.88.88v24.07C146.49,155.23,140.78,158.24,133.49,158.24Zm-11.24-30v23.18c0,1.22,1.11,2.47,3,3.42a21,21,0,0,0,16.37,0c1.94-.95,3.06-2.2,3.06-3.42V128.21Z"/><ellipse class="cls-1" cx="133.49" cy="127.32" rx="12.12" ry="5.96"/><path class="cls-2" d="M133.49,134.17c-7.3,0-13-3-13-6.85s5.71-6.84,13-6.84,13,3,13,6.84S140.78,134.17,133.49,134.17Zm0-11.92a19.18,19.18,0,0,0-8.19,1.65c-1.94,1-3,2.2-3,3.42s1.11,2.47,3,3.42a21,21,0,0,0,16.37,0c1.94-1,3.06-2.2,3.06-3.42s-1.12-2.46-3.06-3.42A19.14,19.14,0,0,0,133.49,122.25Z"/><ellipse class="cls-3" cx="133.49" cy="126.9" rx="3.04" ry="1.49"/><path class="cls-2" d="M133.49,129.28c-2.28,0-3.93-1-3.93-2.38s1.65-2.38,3.93-2.38,3.92,1,3.92,2.38S135.76,129.28,133.49,129.28Zm-2.14-2.38a3,3,0,0,0,2.14.61,3.09,3.09,0,0,0,2.14-.61,3.14,3.14,0,0,0-2.14-.61A3.1,3.1,0,0,0,131.35,126.9Z"/><path class="cls-4" d="M131.38,133.28c6.68,0,19.74,19.29,19.74,19.29a22.57,22.57,0,0,1-13,6.91c-3.43-1.12-6-15.07-6-15.07Z"/><path class="cls-2" d="M138.15,160.36a.84.84,0,0,1-.27,0c-2.32-.76-3.89-5.24-4.86-8.54-1.07-3.63-1.7-7.06-1.73-7.21s0-.06,0-.09l-.79-11.14a.9.9,0,0,1,.24-.66.88.88,0,0,1,.65-.28c3,0,7.43,3.35,13.05,9.95,4.08,4.8,7.39,9.67,7.42,9.72a.88.88,0,0,1-.1,1.12,23.4,23.4,0,0,1-13.45,7.16ZM133,144.3c.08.43.7,3.67,1.68,7,1.66,5.63,3,7,3.54,7.27a21.38,21.38,0,0,0,11.71-6.1c-1-1.44-3.71-5.23-6.9-9-2.69-3.16-7.43-8.27-10.74-9.18Z"/><path class="cls-1" d="M121.36,103.23V127.3c0,3.29,5.43,6,12.13,6s12.12-2.67,12.12-6V103.23Z"/><path class="cls-2" d="M133.49,134.14c-7.3,0-13-3-13-6.84V103.23a.89.89,0,0,1,.88-.89h24.25a.88.88,0,0,1,.88.89V127.3C146.49,131.13,140.78,134.14,133.49,134.14Zm-11.24-30V127.3c0,1.22,1.11,2.46,3,3.42a21.13,21.13,0,0,0,16.37,0c1.94-1,3.06-2.2,3.06-3.42V104.11Z"/><ellipse class="cls-1" cx="133.49" cy="103.23" rx="12.12" ry="5.96"/><path class="cls-2" d="M133.49,110.07c-7.3,0-13-3-13-6.84s5.71-6.85,13-6.85,13,3,13,6.85S140.78,110.07,133.49,110.07Zm0-11.92a19,19,0,0,0-8.19,1.66c-1.94,1-3,2.2-3,3.42s1.11,2.46,3,3.42a21.13,21.13,0,0,0,16.37,0c1.94-1,3.06-2.2,3.06-3.42s-1.12-2.47-3.06-3.42A19,19,0,0,0,133.49,98.15Z"/><ellipse class="cls-3" cx="133.49" cy="102.81" rx="3.04" ry="1.49"/><path class="cls-2" d="M133.49,105.19c-2.28,0-3.93-1-3.93-2.38s1.65-2.38,3.93-2.38,3.92,1,3.92,2.38S135.76,105.19,133.49,105.19Zm-2.14-2.38a3.1,3.1,0,0,0,2.14.61,3.14,3.14,0,0,0,2.14-.61,3.09,3.09,0,0,0-2.14-.61A3,3,0,0,0,131.35,102.81Z"/><path class="cls-4" d="M131.38,109.19c6.68,0,19.74,19.28,19.74,19.28a22.5,22.5,0,0,1-13,6.91c-3.43-1.11-6-15.06-6-15.06Z"/><path class="cls-2" d="M138.15,136.26a.84.84,0,0,1-.27,0c-2.32-.75-3.89-5.23-4.86-8.54-1.07-3.63-1.7-7.06-1.73-7.2s0-.07,0-.1l-.79-11.13a.91.91,0,0,1,.24-.67.88.88,0,0,1,.65-.28c3,0,7.43,3.35,13.05,10,4.08,4.8,7.39,9.67,7.42,9.71a.88.88,0,0,1-.1,1.12,23.34,23.34,0,0,1-13.45,7.16ZM133,120.2c.08.43.7,3.68,1.68,7,1.66,5.63,3,7,3.54,7.27a21.38,21.38,0,0,0,11.71-6.1c-1-1.43-3.71-5.22-6.9-9-2.69-3.16-7.43-8.26-10.74-9.18Z"/><path class="cls-1" d="M121.36,79.13V103.2c0,3.29,5.43,6,12.13,6s12.12-2.67,12.12-6V79.13Z"/><path class="cls-2" d="M133.49,110c-7.3,0-13-3-13-6.84V79.13a.88.88,0,0,1,.88-.88h24.25a.87.87,0,0,1,.88.88V103.2C146.49,107,140.78,110,133.49,110ZM122.25,80V103.2c0,1.22,1.11,2.47,3,3.42a21,21,0,0,0,16.37,0c1.94-1,3.06-2.2,3.06-3.42V80Z"/><ellipse class="cls-1" cx="133.49" cy="79.13" rx="12.12" ry="5.96"/><path class="cls-2" d="M133.49,86c-7.3,0-13-3-13-6.84s5.71-6.84,13-6.84,13,3,13,6.84S140.78,86,133.49,86Zm0-11.91a19,19,0,0,0-8.19,1.65c-1.94,1-3,2.2-3,3.42s1.11,2.47,3,3.42a21,21,0,0,0,16.37,0c1.94-1,3.06-2.2,3.06-3.42s-1.12-2.46-3.06-3.42A19,19,0,0,0,133.49,74.06Z"/><ellipse class="cls-3" cx="133.49" cy="78.71" rx="3.04" ry="1.49"/><path class="cls-2" d="M133.49,81.09c-2.28,0-3.93-1-3.93-2.38s1.65-2.38,3.93-2.38,3.92,1,3.92,2.38S135.76,81.09,133.49,81.09Zm-2.14-2.38a3,3,0,0,0,2.14.61,3.09,3.09,0,0,0,2.14-.61,3.14,3.14,0,0,0-2.14-.61A3.1,3.1,0,0,0,131.35,78.71Z"/><path class="cls-4" d="M131.38,85.09c6.68,0,19.74,19.28,19.74,19.28a22.44,22.44,0,0,1-13,6.91c-3.43-1.11-6-15.06-6-15.06Z"/><path class="cls-2" d="M138.15,112.17a1.26,1.26,0,0,1-.27,0c-2.32-.76-3.89-5.24-4.86-8.55-1.07-3.62-1.7-7.06-1.73-7.2s0-.06,0-.1l-.79-11.13a.9.9,0,0,1,.24-.66.88.88,0,0,1,.65-.28c3,0,7.43,3.34,13.05,10,4.08,4.8,7.39,9.67,7.42,9.72a.87.87,0,0,1-.1,1.11,23.37,23.37,0,0,1-13.45,7.17ZM133,96.11c.08.42.7,3.67,1.68,7,1.66,5.63,3,7,3.54,7.27a21.52,21.52,0,0,0,11.71-6.1c-1-1.44-3.71-5.23-6.9-9-2.69-3.16-7.43-8.26-10.74-9.17Z"/><path class="cls-1" d="M121.36,55V79.11c0,3.29,5.43,6,12.13,6s12.12-2.66,12.12-6V55Z"/><path class="cls-2" d="M133.49,86c-7.3,0-13-3-13-6.84V55a.89.89,0,0,1,.88-.88h24.25a.88.88,0,0,1,.88.88V79.11C146.49,82.94,140.78,86,133.49,86Zm-11.24-30V79.11c0,1.21,1.11,2.46,3,3.42a21.13,21.13,0,0,0,16.37,0c1.94-1,3.06-2.21,3.06-3.42V55.92Z"/><ellipse class="cls-1" cx="133.49" cy="55.03" rx="12.12" ry="5.96"/><path class="cls-2" d="M133.49,61.88c-7.3,0-13-3-13-6.85s5.71-6.84,13-6.84,13,3,13,6.84S140.78,61.88,133.49,61.88Zm0-11.92a19.18,19.18,0,0,0-8.19,1.65c-1.94,1-3,2.21-3,3.42s1.11,2.47,3,3.43a21.13,21.13,0,0,0,16.37,0c1.94-1,3.06-2.21,3.06-3.43s-1.12-2.46-3.06-3.42A19.14,19.14,0,0,0,133.49,50Z"/><ellipse class="cls-3" cx="133.49" cy="54.62" rx="3.04" ry="1.49"/><path class="cls-2" d="M133.49,57c-2.28,0-3.93-1-3.93-2.37s1.65-2.38,3.93-2.38,3.92,1,3.92,2.38S135.76,57,133.49,57Zm-2.14-2.37a3.1,3.1,0,0,0,2.14.61,3.14,3.14,0,0,0,2.14-.61,3.09,3.09,0,0,0-2.14-.61A3,3,0,0,0,131.35,54.62Z"/><path class="cls-4" d="M131.38,61c6.68,0,19.74,19.29,19.74,19.29a22.57,22.57,0,0,1-13,6.91c-3.43-1.12-6-15.06-6-15.06Z"/><path class="cls-2" d="M138.15,88.07a.84.84,0,0,1-.27,0c-2.32-.75-3.89-5.24-4.86-8.54-1.07-3.63-1.7-7.06-1.73-7.21s0-.06,0-.09l-.79-11.13a.91.91,0,0,1,.24-.67.88.88,0,0,1,.65-.28c3,0,7.43,3.35,13.05,10,4.08,4.81,7.39,9.67,7.42,9.72a.88.88,0,0,1-.1,1.12,23.4,23.4,0,0,1-13.45,7.16ZM133,72c.08.43.7,3.67,1.68,7,1.66,5.63,3,7,3.54,7.27A21.38,21.38,0,0,0,150,80.17c-1-1.43-3.71-5.22-6.9-9-2.69-3.16-7.43-8.26-10.74-9.18Z"/><path class="cls-1" d="M121.36,30.94V55c0,3.29,5.43,6,12.13,6s12.12-2.67,12.12-6V30.94Z"/><path class="cls-2" d="M133.49,61.85c-7.3,0-13-3-13-6.84V30.94a.89.89,0,0,1,.88-.89h24.25a.88.88,0,0,1,.88.89V55C146.49,58.85,140.78,61.85,133.49,61.85Zm-11.24-30V55c0,1.22,1.11,2.46,3,3.42a21.13,21.13,0,0,0,16.37,0c1.94-1,3.06-2.2,3.06-3.42V31.82Z"/><ellipse class="cls-1" cx="133.49" cy="30.94" rx="12.12" ry="5.96"/><path class="cls-2" d="M133.49,37.78c-7.3,0-13-3-13-6.84s5.71-6.84,13-6.84,13,3,13,6.84S140.78,37.78,133.49,37.78Zm0-11.92a19,19,0,0,0-8.19,1.66c-1.94.95-3,2.2-3,3.42s1.11,2.46,3,3.42a21.13,21.13,0,0,0,16.37,0c1.94-1,3.06-2.2,3.06-3.42s-1.12-2.47-3.06-3.42A19,19,0,0,0,133.49,25.86Z"/><ellipse class="cls-3" cx="133.49" cy="30.52" rx="3.04" ry="1.49"/><path class="cls-2" d="M133.49,32.9c-2.28,0-3.93-1-3.93-2.38s1.65-2.38,3.93-2.38,3.92,1,3.92,2.38S135.76,32.9,133.49,32.9Zm-2.14-2.38a3.1,3.1,0,0,0,2.14.61,3.14,3.14,0,0,0,2.14-.61,3.14,3.14,0,0,0-2.14-.61A3.1,3.1,0,0,0,131.35,30.52Z"/><path class="cls-4" d="M131.38,36.9c6.68,0,19.74,19.28,19.74,19.28a22.5,22.5,0,0,1-13,6.91c-3.43-1.11-6-15.06-6-15.06Z"/><path class="cls-2" d="M138.15,64a.86.86,0,0,1-.27,0c-2.32-.75-3.89-5.23-4.86-8.54-1.07-3.63-1.7-7.06-1.73-7.2s0-.07,0-.1L130.49,37a.91.91,0,0,1,.89-1c3,0,7.43,3.35,13.05,10,4.08,4.8,7.39,9.67,7.42,9.72a.87.87,0,0,1-.1,1.11A23.28,23.28,0,0,1,138.3,64ZM133,47.92c.08.42.7,3.67,1.68,7,1.66,5.62,3,7,3.54,7.27A21.52,21.52,0,0,0,150,56.08c-1-1.44-3.71-5.23-6.9-9-2.69-3.16-7.43-8.26-10.74-9.18Z"/><path class="cls-1" d="M121.36,6.84V30.91c0,3.29,5.43,6,12.13,6s12.12-2.67,12.12-6V6.84Z"/><path class="cls-2" d="M133.49,37.76c-7.3,0-13-3-13-6.85V6.84a.88.88,0,0,1,.88-.88h24.25a.87.87,0,0,1,.88.88V30.91C146.49,34.75,140.78,37.76,133.49,37.76Zm-11.24-30V30.91c0,1.22,1.11,2.47,3,3.42a21,21,0,0,0,16.37,0c1.94-.95,3.06-2.2,3.06-3.42V7.73Z"/><ellipse class="cls-1" cx="133.49" cy="6.84" rx="12.12" ry="5.96"/><path class="cls-2" d="M133.49,13.69c-7.3,0-13-3-13-6.85S126.19,0,133.49,0s13,3,13,6.84S140.78,13.69,133.49,13.69Zm0-11.92a19.18,19.18,0,0,0-8.19,1.65c-1.94,1-3,2.2-3,3.42s1.11,2.47,3,3.42a19,19,0,0,0,8.19,1.66,19,19,0,0,0,8.18-1.66c1.94-.95,3.06-2.2,3.06-3.42s-1.12-2.46-3.06-3.42A19.14,19.14,0,0,0,133.49,1.77Z"/><ellipse class="cls-3" cx="133.49" cy="6.42" rx="3.04" ry="1.49"/><path class="cls-2" d="M133.49,8.8c-2.28,0-3.93-1-3.93-2.38s1.65-2.37,3.93-2.37,3.92,1,3.92,2.37S135.76,8.8,133.49,8.8Zm-2.14-2.38a3,3,0,0,0,2.14.61,3.09,3.09,0,0,0,2.14-.61,3.14,3.14,0,0,0-2.14-.61A3.1,3.1,0,0,0,131.35,6.42Z"/><path class="cls-4" d="M131.38,12.8c6.68,0,19.74,19.29,19.74,19.29a22.57,22.57,0,0,1-13,6.91c-3.43-1.12-6-15.07-6-15.07Z"/><path class="cls-2" d="M138.15,39.88a.84.84,0,0,1-.27,0c-2.32-.76-3.89-5.24-4.86-8.54-1.07-3.63-1.7-7.06-1.73-7.21s0-.06,0-.09l-.79-11.14a.9.9,0,0,1,.24-.66.88.88,0,0,1,.65-.28c3,0,7.43,3.35,13.05,10,4.08,4.8,7.39,9.67,7.42,9.72a.88.88,0,0,1-.1,1.12,23.4,23.4,0,0,1-13.45,7.16ZM133,23.82c.08.43.7,3.67,1.68,7,1.66,5.63,3,7,3.54,7.27A21.38,21.38,0,0,0,150,32c-1-1.44-3.71-5.23-6.9-9-2.69-3.16-7.43-8.27-10.74-9.18Z"/><path class="cls-1" d="M97.27,151.42v24.07c0,3.29,5.43,6,12.12,6s12.12-2.67,12.12-6V151.42Z"/><path class="cls-2" d="M109.39,182.33c-7.29,0-13-3-13-6.84V151.42a.89.89,0,0,1,.89-.89h24.24a.89.89,0,0,1,.89.89v24.07C122.4,179.33,116.69,182.33,109.39,182.33Zm-11.24-30v23.19c0,1.22,1.12,2.46,3.06,3.42a21.1,21.1,0,0,0,16.36,0c2-1,3.06-2.2,3.06-3.42V152.3Z"/><ellipse class="cls-1" cx="109.39" cy="151.42" rx="12.12" ry="5.96"/><path class="cls-2" d="M109.39,158.26c-7.29,0-13-3-13-6.84s5.72-6.84,13-6.84,13,3,13,6.84S116.69,158.26,109.39,158.26Zm0-11.92a19,19,0,0,0-8.18,1.66c-1.94.95-3.06,2.2-3.06,3.42s1.12,2.46,3.06,3.42a21.1,21.1,0,0,0,16.36,0c2-1,3.06-2.2,3.06-3.42s-1.11-2.47-3.06-3.42A19,19,0,0,0,109.39,146.34Z"/><ellipse class="cls-3" cx="109.39" cy="151" rx="3.04" ry="1.49"/><path class="cls-2" d="M109.39,153.38c-2.27,0-3.92-1-3.92-2.38s1.65-2.38,3.92-2.38,3.93,1,3.93,2.38S111.67,153.38,109.39,153.38ZM107.25,151a4.06,4.06,0,0,0,4.28,0,4.06,4.06,0,0,0-4.28,0Z"/><path class="cls-4" d="M107.28,157.38c6.68,0,19.74,19.28,19.74,19.28a22.46,22.46,0,0,1-13,6.91c-3.44-1.11-6-15.06-6-15.06Z"/><path class="cls-2" d="M114.06,184.46a.81.81,0,0,1-.27-.05c-2.33-.75-3.89-5.23-4.87-8.54-1.06-3.63-1.7-7.06-1.72-7.2s0-.07,0-.1l-.78-11.13a.87.87,0,0,1,.88-.95c3,0,7.43,3.35,13,10,4.09,4.8,7.39,9.67,7.43,9.72a.89.89,0,0,1-.1,1.11,23.27,23.27,0,0,1-13.46,7.16Zm-5.12-16.06c.08.42.71,3.67,1.68,7,1.66,5.62,3,7,3.55,7.27a21.58,21.58,0,0,0,11.71-6.1c-1-1.44-3.72-5.23-6.91-9-2.68-3.16-7.43-8.26-10.73-9.18Z"/><path class="cls-1" d="M97.27,127.32v24.07c0,3.29,5.43,6,12.12,6s12.12-2.67,12.12-6V127.32Z"/><path class="cls-2" d="M109.39,158.24c-7.29,0-13-3-13-6.85V127.32a.88.88,0,0,1,.89-.88h24.24a.88.88,0,0,1,.89.88v24.07C122.4,155.23,116.69,158.24,109.39,158.24Zm-11.24-30v23.18c0,1.22,1.12,2.47,3.06,3.42a21,21,0,0,0,16.36,0c2-.95,3.06-2.2,3.06-3.42V128.21Z"/><ellipse class="cls-1" cx="109.39" cy="127.32" rx="12.12" ry="5.96"/><path class="cls-2" d="M109.39,134.17c-7.29,0-13-3-13-6.85s5.72-6.84,13-6.84,13,3,13,6.84S116.69,134.17,109.39,134.17Zm0-11.92a19.14,19.14,0,0,0-8.18,1.65c-1.94,1-3.06,2.2-3.06,3.42s1.12,2.47,3.06,3.42a21,21,0,0,0,16.36,0c2-1,3.06-2.2,3.06-3.42s-1.11-2.46-3.06-3.42A19.1,19.1,0,0,0,109.39,122.25Z"/><ellipse class="cls-3" cx="109.39" cy="126.9" rx="3.04" ry="1.49"/><path class="cls-2" d="M109.39,129.28c-2.27,0-3.92-1-3.92-2.38s1.65-2.38,3.92-2.38,3.93,1,3.93,2.38S111.67,129.28,109.39,129.28Zm-2.14-2.38a4.06,4.06,0,0,0,4.28,0,4.06,4.06,0,0,0-4.28,0Z"/><path class="cls-4" d="M107.28,133.28c6.68,0,19.74,19.29,19.74,19.29a22.52,22.52,0,0,1-13,6.91c-3.44-1.12-6-15.07-6-15.07Z"/><path class="cls-2" d="M114.06,160.36a.8.8,0,0,1-.27,0c-2.33-.76-3.89-5.24-4.87-8.54-1.06-3.63-1.7-7.06-1.72-7.21s0-.06,0-.09l-.78-11.14a.89.89,0,0,1,.23-.66.88.88,0,0,1,.65-.28c3,0,7.43,3.35,13,9.95,4.09,4.8,7.39,9.67,7.43,9.72a.9.9,0,0,1-.1,1.12,23.39,23.39,0,0,1-13.46,7.16Zm-5.12-16.06c.08.43.71,3.67,1.68,7,1.66,5.63,3,7,3.55,7.27a21.45,21.45,0,0,0,11.71-6.1c-1-1.44-3.72-5.23-6.91-9-2.68-3.16-7.43-8.27-10.73-9.18Z"/><path class="cls-1" d="M97.27,103.23V127.3c0,3.29,5.43,6,12.12,6s12.12-2.67,12.12-6V103.23Z"/><path class="cls-2" d="M109.39,134.14c-7.29,0-13-3-13-6.84V103.23a.89.89,0,0,1,.89-.89h24.24a.89.89,0,0,1,.89.89V127.3C122.4,131.13,116.69,134.14,109.39,134.14Zm-11.24-30V127.3c0,1.22,1.12,2.46,3.06,3.42a21.1,21.1,0,0,0,16.36,0c2-1,3.06-2.2,3.06-3.42V104.11Z"/><ellipse class="cls-1" cx="109.39" cy="103.23" rx="12.12" ry="5.96"/><path class="cls-2" d="M109.39,110.07c-7.29,0-13-3-13-6.84s5.72-6.85,13-6.85,13,3,13,6.85S116.69,110.07,109.39,110.07Zm0-11.92a19,19,0,0,0-8.18,1.66c-1.94,1-3.06,2.2-3.06,3.42s1.12,2.46,3.06,3.42a21.1,21.1,0,0,0,16.36,0c2-1,3.06-2.2,3.06-3.42s-1.11-2.47-3.06-3.42A19,19,0,0,0,109.39,98.15Z"/><ellipse class="cls-3" cx="109.39" cy="102.81" rx="3.04" ry="1.49"/><path class="cls-2" d="M109.39,105.19c-2.27,0-3.92-1-3.92-2.38s1.65-2.38,3.92-2.38,3.93,1,3.93,2.38S111.67,105.19,109.39,105.19Zm-2.14-2.38a4.06,4.06,0,0,0,4.28,0,4.06,4.06,0,0,0-4.28,0Z"/><path class="cls-4" d="M107.28,109.19c6.68,0,19.74,19.28,19.74,19.28a22.46,22.46,0,0,1-13,6.91c-3.44-1.11-6-15.06-6-15.06Z"/><path class="cls-2" d="M114.06,136.26a.8.8,0,0,1-.27,0c-2.33-.75-3.89-5.23-4.87-8.54-1.06-3.63-1.7-7.06-1.72-7.2s0-.07,0-.1l-.78-11.13a.9.9,0,0,1,.23-.67.88.88,0,0,1,.65-.28c3,0,7.43,3.35,13,10,4.09,4.8,7.39,9.67,7.43,9.71a.9.9,0,0,1-.1,1.12,23.33,23.33,0,0,1-13.46,7.16Zm-5.12-16.06c.08.43.71,3.68,1.68,7,1.66,5.63,3,7,3.55,7.27a21.45,21.45,0,0,0,11.71-6.1c-1-1.43-3.72-5.22-6.91-9-2.68-3.16-7.43-8.26-10.73-9.18Z"/><path class="cls-1" d="M97.27,79.13V103.2c0,3.29,5.43,6,12.12,6s12.12-2.67,12.12-6V79.13Z"/><path class="cls-2" d="M109.39,110c-7.29,0-13-3-13-6.84V79.13a.88.88,0,0,1,.89-.88h24.24a.88.88,0,0,1,.89.88V103.2C122.4,107,116.69,110,109.39,110ZM98.15,80V103.2c0,1.22,1.12,2.47,3.06,3.42a21,21,0,0,0,16.36,0c2-1,3.06-2.2,3.06-3.42V80Z"/><ellipse class="cls-1" cx="109.39" cy="79.13" rx="12.12" ry="5.96"/><path class="cls-2" d="M109.39,86c-7.29,0-13-3-13-6.84s5.72-6.84,13-6.84,13,3,13,6.84S116.69,86,109.39,86Zm0-11.91a19,19,0,0,0-8.18,1.65c-1.94,1-3.06,2.2-3.06,3.42s1.12,2.47,3.06,3.42a21,21,0,0,0,16.36,0c2-1,3.06-2.2,3.06-3.42s-1.11-2.46-3.06-3.42A19,19,0,0,0,109.39,74.06Z"/><ellipse class="cls-3" cx="109.39" cy="78.71" rx="3.04" ry="1.49"/><path class="cls-2" d="M109.39,81.09c-2.27,0-3.92-1-3.92-2.38s1.65-2.38,3.92-2.38,3.93,1,3.93,2.38S111.67,81.09,109.39,81.09Zm-2.14-2.38a4.06,4.06,0,0,0,4.28,0,4.06,4.06,0,0,0-4.28,0Z"/><path class="cls-4" d="M107.28,85.09c6.68,0,19.74,19.28,19.74,19.28a22.4,22.4,0,0,1-13,6.91c-3.44-1.11-6-15.06-6-15.06Z"/><path class="cls-2" d="M114.06,112.17a1.17,1.17,0,0,1-.27,0c-2.33-.76-3.89-5.24-4.87-8.55-1.06-3.62-1.7-7.06-1.72-7.2s0-.06,0-.1l-.78-11.13a.89.89,0,0,1,.23-.66.88.88,0,0,1,.65-.28c3,0,7.43,3.34,13,10,4.09,4.8,7.39,9.67,7.43,9.72a.89.89,0,0,1-.1,1.11,23.36,23.36,0,0,1-13.46,7.17Zm-5.12-16.06c.08.42.71,3.67,1.68,7,1.66,5.63,3,7,3.55,7.27a21.58,21.58,0,0,0,11.71-6.1c-1-1.44-3.72-5.23-6.91-9-2.68-3.16-7.43-8.26-10.73-9.17Z"/><path class="cls-1" d="M97.27,55V79.11c0,3.29,5.43,6,12.12,6s12.12-2.66,12.12-6V55Z"/><path class="cls-2" d="M109.39,86c-7.29,0-13-3-13-6.84V55a.89.89,0,0,1,.89-.88h24.24a.89.89,0,0,1,.89.88V79.11C122.4,82.94,116.69,86,109.39,86Zm-11.24-30V79.11c0,1.21,1.12,2.46,3.06,3.42a21.1,21.1,0,0,0,16.36,0c2-1,3.06-2.21,3.06-3.42V55.92Z"/><ellipse class="cls-1" cx="109.39" cy="55.03" rx="12.12" ry="5.96"/><path class="cls-2" d="M109.39,61.88c-7.29,0-13-3-13-6.85s5.72-6.84,13-6.84,13,3,13,6.84S116.69,61.88,109.39,61.88Zm0-11.92a19.14,19.14,0,0,0-8.18,1.65c-1.94,1-3.06,2.21-3.06,3.42s1.12,2.47,3.06,3.43a21.1,21.1,0,0,0,16.36,0c2-1,3.06-2.21,3.06-3.43s-1.11-2.46-3.06-3.42A19.1,19.1,0,0,0,109.39,50Z"/><ellipse class="cls-3" cx="109.39" cy="54.62" rx="3.04" ry="1.49"/><path class="cls-2" d="M109.39,57c-2.27,0-3.92-1-3.92-2.37s1.65-2.38,3.92-2.38,3.93,1,3.93,2.38S111.67,57,109.39,57Zm-2.14-2.37a4.06,4.06,0,0,0,4.28,0,4.06,4.06,0,0,0-4.28,0Z"/><path class="cls-4" d="M107.28,61C114,61,127,80.28,127,80.28a22.52,22.52,0,0,1-13,6.91c-3.44-1.12-6-15.06-6-15.06Z"/><path class="cls-2" d="M114.06,88.07a.8.8,0,0,1-.27,0c-2.33-.75-3.89-5.24-4.87-8.54-1.06-3.63-1.7-7.06-1.72-7.21s0-.06,0-.09l-.78-11.13a.9.9,0,0,1,.23-.67.88.88,0,0,1,.65-.28c3,0,7.43,3.35,13,10,4.09,4.81,7.39,9.67,7.43,9.72a.9.9,0,0,1-.1,1.12,23.39,23.39,0,0,1-13.46,7.16ZM108.94,72c.08.43.71,3.67,1.68,7,1.66,5.63,3,7,3.55,7.27a21.45,21.45,0,0,0,11.71-6.1c-1-1.43-3.72-5.22-6.91-9-2.68-3.16-7.43-8.26-10.73-9.18Z"/><path class="cls-1" d="M97.27,30.94V55c0,3.29,5.43,6,12.12,6s12.12-2.67,12.12-6V30.94Z"/><path class="cls-2" d="M109.39,61.85c-7.29,0-13-3-13-6.84V30.94a.89.89,0,0,1,.89-.89h24.24a.89.89,0,0,1,.89.89V55C122.4,58.85,116.69,61.85,109.39,61.85Zm-11.24-30V55c0,1.22,1.12,2.46,3.06,3.42a21.1,21.1,0,0,0,16.36,0c2-1,3.06-2.2,3.06-3.42V31.82Z"/><ellipse class="cls-1" cx="109.39" cy="30.94" rx="12.12" ry="5.96"/><path class="cls-2" d="M109.39,37.78c-7.29,0-13-3-13-6.84s5.72-6.84,13-6.84,13,3,13,6.84S116.69,37.78,109.39,37.78Zm0-11.92a19,19,0,0,0-8.18,1.66c-1.94.95-3.06,2.2-3.06,3.42s1.12,2.46,3.06,3.42a21.1,21.1,0,0,0,16.36,0c2-1,3.06-2.2,3.06-3.42s-1.11-2.47-3.06-3.42A19,19,0,0,0,109.39,25.86Z"/><ellipse class="cls-3" cx="109.39" cy="30.52" rx="3.04" ry="1.49"/><path class="cls-2" d="M109.39,32.9c-2.27,0-3.92-1-3.92-2.38s1.65-2.38,3.92-2.38,3.93,1,3.93,2.38S111.67,32.9,109.39,32.9Zm-2.14-2.38a4.06,4.06,0,0,0,4.28,0,4.06,4.06,0,0,0-4.28,0Z"/><path class="cls-4" d="M107.28,36.9C114,36.9,127,56.18,127,56.18a22.46,22.46,0,0,1-13,6.91c-3.44-1.11-6-15.06-6-15.06Z"/><path class="cls-2" d="M114.06,64a.81.81,0,0,1-.27,0c-2.33-.75-3.89-5.23-4.87-8.54-1.06-3.63-1.7-7.06-1.72-7.2s0-.07,0-.1L106.4,37a.88.88,0,0,1,.23-.66.89.89,0,0,1,.65-.29c3,0,7.43,3.35,13,10,4.09,4.8,7.39,9.67,7.43,9.72a.89.89,0,0,1-.1,1.11A23.27,23.27,0,0,1,114.2,64Zm-5.12-16.06c.08.42.71,3.67,1.68,7,1.66,5.62,3,7,3.55,7.27a21.58,21.58,0,0,0,11.71-6.1c-1-1.44-3.72-5.23-6.91-9-2.68-3.16-7.43-8.26-10.73-9.18Z"/><path class="cls-1" d="M97.27,6.84V30.91c0,3.29,5.43,6,12.12,6s12.12-2.67,12.12-6V6.84Z"/><path class="cls-2" d="M109.39,37.76c-7.29,0-13-3-13-6.85V6.84A.88.88,0,0,1,97.27,6h24.24a.88.88,0,0,1,.89.88V30.91C122.4,34.75,116.69,37.76,109.39,37.76Zm-11.24-30V30.91c0,1.22,1.12,2.47,3.06,3.42a21,21,0,0,0,16.36,0c2-.95,3.06-2.2,3.06-3.42V7.73Z"/><ellipse class="cls-1" cx="109.39" cy="6.84" rx="12.12" ry="5.96"/><path class="cls-2" d="M109.39,13.69c-7.29,0-13-3-13-6.85S102.1,0,109.39,0s13,3,13,6.84S116.69,13.69,109.39,13.69Zm0-11.92a19.14,19.14,0,0,0-8.18,1.65c-1.94,1-3.06,2.2-3.06,3.42s1.12,2.47,3.06,3.42a19,19,0,0,0,8.18,1.66,19,19,0,0,0,8.18-1.66c2-.95,3.06-2.2,3.06-3.42s-1.11-2.46-3.06-3.42A19.1,19.1,0,0,0,109.39,1.77Z"/><ellipse class="cls-3" cx="109.39" cy="6.42" rx="3.04" ry="1.49"/><path class="cls-2" d="M109.39,8.8c-2.27,0-3.92-1-3.92-2.38s1.65-2.37,3.92-2.37,3.93,1,3.93,2.37S111.67,8.8,109.39,8.8Zm-2.14-2.38a4.06,4.06,0,0,0,4.28,0,4.06,4.06,0,0,0-4.28,0Z"/><path class="cls-4" d="M107.28,12.8C114,12.8,127,32.09,127,32.09a22.52,22.52,0,0,1-13,6.91c-3.44-1.12-6-15.07-6-15.07Z"/><path class="cls-2" d="M114.06,39.88a.8.8,0,0,1-.27,0c-2.33-.76-3.89-5.24-4.87-8.54-1.06-3.63-1.7-7.06-1.72-7.21s0-.06,0-.09l-.78-11.14a.89.89,0,0,1,.23-.66.88.88,0,0,1,.65-.28c3,0,7.43,3.35,13,10,4.09,4.8,7.39,9.67,7.43,9.72a.9.9,0,0,1-.1,1.12,23.39,23.39,0,0,1-13.46,7.16Zm-5.12-16.06c.08.43.71,3.67,1.68,7,1.66,5.63,3,7,3.55,7.27A21.45,21.45,0,0,0,125.88,32c-1-1.44-3.72-5.23-6.91-9-2.68-3.16-7.43-8.27-10.73-9.18Z"/><path class="cls-1" d="M73.17,151.42v24.07c0,3.29,5.43,6,12.13,6s12.12-2.67,12.12-6V151.42Z"/><path class="cls-2" d="M85.3,182.33c-7.3,0-13-3-13-6.84V151.42a.88.88,0,0,1,.88-.89H97.42a.88.88,0,0,1,.88.89v24.07C98.3,179.33,92.59,182.33,85.3,182.33Zm-11.24-30v23.19c0,1.22,1.11,2.46,3,3.42a19,19,0,0,0,8.19,1.65,19,19,0,0,0,8.18-1.65c1.94-1,3-2.2,3-3.42V152.3Z"/><ellipse class="cls-1" cx="85.3" cy="151.42" rx="12.12" ry="5.96"/><path class="cls-2" d="M85.3,158.26c-7.3,0-13-3-13-6.84s5.71-6.84,13-6.84,13,3,13,6.84S92.59,158.26,85.3,158.26Zm0-11.92A19,19,0,0,0,77.11,148c-1.94.95-3,2.2-3,3.42s1.11,2.46,3,3.42a19,19,0,0,0,8.19,1.65,19,19,0,0,0,8.18-1.65c1.94-1,3-2.2,3-3.42s-1.11-2.47-3-3.42A19,19,0,0,0,85.3,146.34Z"/><ellipse class="cls-3" cx="85.3" cy="151" rx="3.04" ry="1.49"/><path class="cls-2" d="M85.3,153.38c-2.28,0-3.93-1-3.93-2.38s1.65-2.38,3.93-2.38,3.92,1,3.92,2.38S87.57,153.38,85.3,153.38ZM83.16,151a4,4,0,0,0,4.27,0,4,4,0,0,0-4.27,0Z"/><path class="cls-4" d="M83.18,157.38c6.68,0,19.75,19.28,19.75,19.28a22.5,22.5,0,0,1-13,6.91c-3.44-1.11-6-15.06-6-15.06Z"/><path class="cls-2" d="M90,184.46a.86.86,0,0,1-.27-.05c-2.32-.75-3.89-5.23-4.86-8.54-1.07-3.63-1.7-7.06-1.73-7.2a.34.34,0,0,1,0-.1l-.79-11.13a.89.89,0,0,1,.24-.67.9.9,0,0,1,.64-.28c3,0,7.44,3.35,13,10,4.09,4.8,7.4,9.67,7.43,9.72a.88.88,0,0,1-.1,1.11,23.28,23.28,0,0,1-13.45,7.16ZM84.85,168.4c.08.42.7,3.67,1.68,7,1.66,5.62,3,7,3.54,7.27a21.55,21.55,0,0,0,11.71-6.1c-1-1.44-3.71-5.23-6.9-9-2.69-3.16-7.44-8.26-10.74-9.18Z"/><path class="cls-1" d="M73.17,127.32v24.07c0,3.29,5.43,6,12.13,6s12.12-2.67,12.12-6V127.32Z"/><path class="cls-2" d="M85.3,158.24c-7.3,0-13-3-13-6.85V127.32a.87.87,0,0,1,.88-.88H97.42a.87.87,0,0,1,.88.88v24.07C98.3,155.23,92.59,158.24,85.3,158.24Zm-11.24-30v23.18c0,1.22,1.11,2.47,3,3.42a21,21,0,0,0,16.37,0c1.94-.95,3-2.2,3-3.42V128.21Z"/><ellipse class="cls-1" cx="85.3" cy="127.32" rx="12.12" ry="5.96"/><path class="cls-2" d="M85.3,134.17c-7.3,0-13-3-13-6.85s5.71-6.84,13-6.84,13,3,13,6.84S92.59,134.17,85.3,134.17Zm0-11.92a19.15,19.15,0,0,0-8.19,1.65c-1.94,1-3,2.2-3,3.42s1.11,2.47,3,3.42a21,21,0,0,0,16.37,0c1.94-1,3-2.2,3-3.42s-1.11-2.46-3-3.42A19.14,19.14,0,0,0,85.3,122.25Z"/><ellipse class="cls-3" cx="85.3" cy="126.9" rx="3.04" ry="1.49"/><path class="cls-2" d="M85.3,129.28c-2.28,0-3.93-1-3.93-2.38s1.65-2.38,3.93-2.38,3.92,1,3.92,2.38S87.57,129.28,85.3,129.28Zm-2.14-2.38a4,4,0,0,0,4.27,0,4,4,0,0,0-4.27,0Z"/><path class="cls-4" d="M83.18,133.28c6.68,0,19.75,19.29,19.75,19.29a22.57,22.57,0,0,1-13,6.91c-3.44-1.12-6-15.07-6-15.07Z"/><path class="cls-2" d="M90,160.36a.84.84,0,0,1-.27,0c-2.32-.76-3.89-5.24-4.86-8.54-1.07-3.63-1.7-7.06-1.73-7.21a.28.28,0,0,1,0-.09l-.79-11.14a.89.89,0,0,1,.88-.94c3,0,7.44,3.35,13,9.95,4.09,4.8,7.4,9.67,7.43,9.72a.89.89,0,0,1-.1,1.12,23.4,23.4,0,0,1-13.45,7.16ZM84.85,144.3c.08.43.7,3.67,1.68,7,1.66,5.63,3,7,3.54,7.27a21.41,21.41,0,0,0,11.71-6.1c-1-1.44-3.71-5.23-6.9-9-2.69-3.16-7.44-8.27-10.74-9.18Z"/><path class="cls-1" d="M73.17,103.23V127.3c0,3.29,5.43,6,12.13,6s12.12-2.67,12.12-6V103.23Z"/><path class="cls-2" d="M85.3,134.14c-7.3,0-13-3-13-6.84V103.23a.88.88,0,0,1,.88-.89H97.42a.88.88,0,0,1,.88.89V127.3C98.3,131.13,92.59,134.14,85.3,134.14Zm-11.24-30V127.3c0,1.22,1.11,2.46,3,3.42a21.13,21.13,0,0,0,16.37,0c1.94-1,3-2.2,3-3.42V104.11Z"/><ellipse class="cls-1" cx="85.3" cy="103.23" rx="12.12" ry="5.96"/><path class="cls-2" d="M85.3,110.07c-7.3,0-13-3-13-6.84s5.71-6.85,13-6.85,13,3,13,6.85S92.59,110.07,85.3,110.07Zm0-11.92a19,19,0,0,0-8.19,1.66c-1.94,1-3,2.2-3,3.42s1.11,2.46,3,3.42a21.13,21.13,0,0,0,16.37,0c1.94-1,3-2.2,3-3.42s-1.11-2.47-3-3.42A19,19,0,0,0,85.3,98.15Z"/><ellipse class="cls-3" cx="85.3" cy="102.81" rx="3.04" ry="1.49"/><path class="cls-2" d="M85.3,105.19c-2.28,0-3.93-1-3.93-2.38s1.65-2.38,3.93-2.38,3.92,1,3.92,2.38S87.57,105.19,85.3,105.19Zm-2.14-2.38a4,4,0,0,0,4.27,0,4,4,0,0,0-4.27,0Z"/><path class="cls-4" d="M83.18,109.19c6.68,0,19.75,19.28,19.75,19.28a22.5,22.5,0,0,1-13,6.91c-3.44-1.11-6-15.06-6-15.06Z"/><path class="cls-2" d="M90,136.26a.84.84,0,0,1-.27,0c-2.32-.75-3.89-5.23-4.86-8.54-1.07-3.63-1.7-7.06-1.73-7.2a.38.38,0,0,1,0-.1l-.79-11.13a.87.87,0,0,1,.24-.67.86.86,0,0,1,.64-.28c3,0,7.44,3.35,13,10,4.09,4.8,7.4,9.67,7.43,9.71a.89.89,0,0,1-.1,1.12,23.34,23.34,0,0,1-13.45,7.16ZM84.85,120.2c.08.43.7,3.68,1.68,7,1.66,5.63,3,7,3.54,7.27a21.41,21.41,0,0,0,11.71-6.1c-1-1.43-3.71-5.22-6.9-9-2.69-3.16-7.44-8.26-10.74-9.18Z"/><path class="cls-1" d="M73.17,79.13V103.2c0,3.29,5.43,6,12.13,6s12.12-2.67,12.12-6V79.13Z"/><path class="cls-2" d="M85.3,110c-7.3,0-13-3-13-6.84V79.13a.87.87,0,0,1,.88-.88H97.42a.87.87,0,0,1,.88.88V103.2C98.3,107,92.59,110,85.3,110ZM74.06,80V103.2c0,1.22,1.11,2.47,3,3.42a21,21,0,0,0,16.37,0c1.94-1,3-2.2,3-3.42V80Z"/><ellipse class="cls-1" cx="85.3" cy="79.13" rx="12.12" ry="5.96"/><path class="cls-2" d="M85.3,86c-7.3,0-13-3-13-6.84s5.71-6.84,13-6.84,13,3,13,6.84S92.59,86,85.3,86Zm0-11.91a19,19,0,0,0-8.19,1.65c-1.94,1-3,2.2-3,3.42s1.11,2.47,3,3.42a21,21,0,0,0,16.37,0c1.94-1,3-2.2,3-3.42s-1.11-2.46-3-3.42A19,19,0,0,0,85.3,74.06Z"/><ellipse class="cls-3" cx="85.3" cy="78.71" rx="3.04" ry="1.49"/><path class="cls-2" d="M85.3,81.09c-2.28,0-3.93-1-3.93-2.38S83,76.33,85.3,76.33s3.92,1,3.92,2.38S87.57,81.09,85.3,81.09Zm-2.14-2.38a4,4,0,0,0,4.27,0,4,4,0,0,0-4.27,0Z"/><path class="cls-4" d="M83.18,85.09c6.68,0,19.75,19.28,19.75,19.28a22.44,22.44,0,0,1-13,6.91c-3.44-1.11-6-15.06-6-15.06Z"/><path class="cls-2" d="M90,112.17a1.26,1.26,0,0,1-.27,0c-2.32-.76-3.89-5.24-4.86-8.55-1.07-3.62-1.7-7.06-1.73-7.2a.31.31,0,0,1,0-.1L82.3,85.15a.89.89,0,0,1,.88-.94c3,0,7.44,3.34,13,10,4.09,4.8,7.4,9.67,7.43,9.72a.88.88,0,0,1-.1,1.11,23.37,23.37,0,0,1-13.45,7.17ZM84.85,96.11c.08.42.7,3.67,1.68,7,1.66,5.63,3,7,3.54,7.27a21.55,21.55,0,0,0,11.71-6.1c-1-1.44-3.71-5.23-6.9-9-2.69-3.16-7.44-8.26-10.74-9.17Z"/><path class="cls-1" d="M73.17,55V79.11c0,3.29,5.43,6,12.13,6s12.12-2.66,12.12-6V55Z"/><path class="cls-2" d="M85.3,86c-7.3,0-13-3-13-6.84V55a.88.88,0,0,1,.88-.88H97.42a.88.88,0,0,1,.88.88V79.11C98.3,82.94,92.59,86,85.3,86Zm-11.24-30V79.11c0,1.21,1.11,2.46,3,3.42a21.13,21.13,0,0,0,16.37,0c1.94-1,3-2.21,3-3.42V55.92Z"/><ellipse class="cls-1" cx="85.3" cy="55.03" rx="12.12" ry="5.96"/><path class="cls-2" d="M85.3,61.88c-7.3,0-13-3-13-6.85s5.71-6.84,13-6.84,13,3,13,6.84S92.59,61.88,85.3,61.88ZM85.3,50a19.15,19.15,0,0,0-8.19,1.65c-1.94,1-3,2.21-3,3.42s1.11,2.47,3,3.43a21.13,21.13,0,0,0,16.37,0c1.94-1,3-2.21,3-3.43s-1.11-2.46-3-3.42A19.14,19.14,0,0,0,85.3,50Z"/><ellipse class="cls-3" cx="85.3" cy="54.62" rx="3.04" ry="1.49"/><path class="cls-2" d="M85.3,57c-2.28,0-3.93-1-3.93-2.37S83,52.24,85.3,52.24s3.92,1,3.92,2.38S87.57,57,85.3,57Zm-2.14-2.37a4,4,0,0,0,4.27,0,4,4,0,0,0-4.27,0Z"/><path class="cls-4" d="M83.18,61c6.68,0,19.75,19.29,19.75,19.29a22.57,22.57,0,0,1-13,6.91c-3.44-1.12-6-15.06-6-15.06Z"/><path class="cls-2" d="M90,88.07a.84.84,0,0,1-.27,0c-2.32-.75-3.89-5.24-4.86-8.54-1.07-3.63-1.7-7.06-1.73-7.21a.28.28,0,0,1,0-.09L82.3,61.06a.87.87,0,0,1,.24-.67.86.86,0,0,1,.64-.28c3,0,7.44,3.35,13,10,4.09,4.81,7.4,9.67,7.43,9.72a.89.89,0,0,1-.1,1.12,23.4,23.4,0,0,1-13.45,7.16ZM84.85,72c.08.43.7,3.67,1.68,7,1.66,5.63,3,7,3.54,7.27a21.41,21.41,0,0,0,11.71-6.1c-1-1.43-3.71-5.22-6.9-9C92.19,68,87.44,62.94,84.14,62Z"/><path class="cls-1" d="M73.17,30.94V55c0,3.29,5.43,6,12.13,6s12.12-2.67,12.12-6V30.94Z"/><path class="cls-2" d="M85.3,61.85c-7.3,0-13-3-13-6.84V30.94a.88.88,0,0,1,.88-.89H97.42a.88.88,0,0,1,.88.89V55C98.3,58.85,92.59,61.85,85.3,61.85Zm-11.24-30V55c0,1.22,1.11,2.46,3,3.42a19,19,0,0,0,8.19,1.65,19,19,0,0,0,8.18-1.65c1.94-1,3-2.2,3-3.42V31.82Z"/><ellipse class="cls-1" cx="85.3" cy="30.94" rx="12.12" ry="5.96"/><path class="cls-2" d="M85.3,37.78c-7.3,0-13-3-13-6.84S78,24.1,85.3,24.1s13,3,13,6.84S92.59,37.78,85.3,37.78Zm0-11.92a19,19,0,0,0-8.19,1.66c-1.94.95-3,2.2-3,3.42s1.11,2.46,3,3.42A19,19,0,0,0,85.3,36a19,19,0,0,0,8.18-1.65c1.94-1,3-2.2,3-3.42s-1.11-2.47-3-3.42A19,19,0,0,0,85.3,25.86Z"/><ellipse class="cls-3" cx="85.3" cy="30.52" rx="3.04" ry="1.49"/><path class="cls-2" d="M85.3,32.9c-2.28,0-3.93-1-3.93-2.38S83,28.14,85.3,28.14s3.92,1,3.92,2.38S87.57,32.9,85.3,32.9Zm-2.14-2.38a4,4,0,0,0,4.27,0,4,4,0,0,0-4.27,0Z"/><path class="cls-4" d="M83.18,36.9c6.68,0,19.75,19.28,19.75,19.28a22.5,22.5,0,0,1-13,6.91C86.52,62,84,48,84,48Z"/><path class="cls-2" d="M90,64a.86.86,0,0,1-.27,0c-2.32-.75-3.89-5.23-4.86-8.54-1.07-3.63-1.7-7.06-1.73-7.2a.34.34,0,0,1,0-.1L82.3,37a.85.85,0,0,1,.24-.66.87.87,0,0,1,.64-.29c3,0,7.44,3.35,13,10,4.09,4.8,7.4,9.67,7.43,9.72a.88.88,0,0,1-.1,1.11A23.28,23.28,0,0,1,90.11,64ZM84.85,47.92c.08.42.7,3.67,1.68,7,1.66,5.62,3,7,3.54,7.27a21.55,21.55,0,0,0,11.71-6.1c-1-1.44-3.71-5.23-6.9-9-2.69-3.16-7.44-8.26-10.74-9.18Z"/><path class="cls-1" d="M73.17,6.84V30.91c0,3.29,5.43,6,12.13,6s12.12-2.67,12.12-6V6.84Z"/><path class="cls-2" d="M85.3,37.76c-7.3,0-13-3-13-6.85V6.84A.87.87,0,0,1,73.17,6H97.42a.87.87,0,0,1,.88.88V30.91C98.3,34.75,92.59,37.76,85.3,37.76Zm-11.24-30V30.91c0,1.22,1.11,2.47,3,3.42a21,21,0,0,0,16.37,0c1.94-.95,3-2.2,3-3.42V7.73Z"/><ellipse class="cls-1" cx="85.3" cy="6.84" rx="12.12" ry="5.96"/><path class="cls-2" d="M85.3,13.69c-7.3,0-13-3-13-6.85S78,0,85.3,0s13,3,13,6.84S92.59,13.69,85.3,13.69Zm0-11.92a19.15,19.15,0,0,0-8.19,1.65c-1.94,1-3,2.2-3,3.42s1.11,2.47,3,3.42a19,19,0,0,0,8.19,1.66,19,19,0,0,0,8.18-1.66c1.94-.95,3-2.2,3-3.42s-1.11-2.46-3-3.42A19.14,19.14,0,0,0,85.3,1.77Z"/><ellipse class="cls-3" cx="85.3" cy="6.42" rx="3.04" ry="1.49"/><path class="cls-2" d="M85.3,8.8c-2.28,0-3.93-1-3.93-2.38S83,4.05,85.3,4.05s3.92,1,3.92,2.37S87.57,8.8,85.3,8.8ZM83.16,6.42a4,4,0,0,0,4.27,0,4,4,0,0,0-4.27,0Z"/><path class="cls-4" d="M83.18,12.8c6.68,0,19.75,19.29,19.75,19.29A22.57,22.57,0,0,1,90,39c-3.44-1.12-6-15.07-6-15.07Z"/><path class="cls-2" d="M90,39.88a.84.84,0,0,1-.27,0c-2.32-.76-3.89-5.24-4.86-8.54-1.07-3.63-1.7-7.06-1.73-7.21a.28.28,0,0,1,0-.09L82.3,12.86a.89.89,0,0,1,.88-.94c3,0,7.44,3.35,13,10,4.09,4.8,7.4,9.67,7.43,9.72a.89.89,0,0,1-.1,1.12,23.4,23.4,0,0,1-13.45,7.16ZM84.85,23.82c.08.43.7,3.67,1.68,7,1.66,5.63,3,7,3.54,7.27A21.41,21.41,0,0,0,101.78,32c-1-1.44-3.71-5.23-6.9-9-2.69-3.16-7.44-8.27-10.74-9.18Z"/><path class="cls-1" d="M49.08,151.42v24.07c0,3.29,5.42,6,12.12,6s12.12-2.67,12.12-6V151.42Z"/><path class="cls-2" d="M61.2,182.33c-7.29,0-13-3-13-6.84V151.42a.89.89,0,0,1,.89-.89H73.32a.89.89,0,0,1,.89.89v24.07C74.21,179.33,68.49,182.33,61.2,182.33ZM50,152.3v23.19c0,1.22,1.11,2.46,3.06,3.42a19,19,0,0,0,8.18,1.65,19,19,0,0,0,8.18-1.65c1.94-1,3.06-2.2,3.06-3.42V152.3Z"/><ellipse class="cls-1" cx="61.2" cy="151.42" rx="12.12" ry="5.96"/><path class="cls-2" d="M61.2,158.26c-7.29,0-13-3-13-6.84s5.72-6.84,13-6.84,13,3,13,6.84S68.49,158.26,61.2,158.26Zm0-11.92A19,19,0,0,0,53,148c-2,.95-3.06,2.2-3.06,3.42s1.11,2.46,3.06,3.42a19,19,0,0,0,8.18,1.65,19,19,0,0,0,8.18-1.65c1.94-1,3.06-2.2,3.06-3.42S71.32,149,69.38,148A19,19,0,0,0,61.2,146.34Z"/><ellipse class="cls-3" cx="61.2" cy="151" rx="3.04" ry="1.49"/><path class="cls-2" d="M61.2,153.38c-2.27,0-3.93-1-3.93-2.38s1.66-2.38,3.93-2.38,3.92,1,3.92,2.38S63.47,153.38,61.2,153.38ZM59.06,151a4.06,4.06,0,0,0,4.28,0,4.06,4.06,0,0,0-4.28,0Z"/><path class="cls-4" d="M59.09,157.38c6.68,0,19.74,19.28,19.74,19.28a22.46,22.46,0,0,1-13,6.91c-3.44-1.11-6-15.06-6-15.06Z"/><path class="cls-2" d="M65.87,184.46a.87.87,0,0,1-.28-.05c-2.32-.75-3.88-5.23-4.86-8.54-1.07-3.63-1.7-7.06-1.73-7.2s0-.07,0-.1l-.78-11.13a.88.88,0,0,1,.23-.67.92.92,0,0,1,.65-.28c3,0,7.43,3.35,13,10,4.08,4.8,7.39,9.67,7.42,9.72a.87.87,0,0,1-.1,1.11A23.23,23.23,0,0,1,66,184.44ZM60.75,168.4c.08.42.7,3.67,1.68,7,1.66,5.62,3,7,3.54,7.27a21.52,21.52,0,0,0,11.71-6.1c-1-1.44-3.71-5.23-6.9-9-2.69-3.16-7.43-8.26-10.73-9.18Z"/><path class="cls-1" d="M49.08,127.32v24.07c0,3.29,5.42,6,12.12,6s12.12-2.67,12.12-6V127.32Z"/><path class="cls-2" d="M61.2,158.24c-7.29,0-13-3-13-6.85V127.32a.88.88,0,0,1,.89-.88H73.32a.88.88,0,0,1,.89.88v24.07C74.21,155.23,68.49,158.24,61.2,158.24ZM50,128.21v23.18c0,1.22,1.11,2.47,3.06,3.42a19,19,0,0,0,8.18,1.66,19,19,0,0,0,8.18-1.66c1.94-.95,3.06-2.2,3.06-3.42V128.21Z"/><ellipse class="cls-1" cx="61.2" cy="127.32" rx="12.12" ry="5.96"/><path class="cls-2" d="M61.2,134.17c-7.29,0-13-3-13-6.85s5.72-6.84,13-6.84,13,3,13,6.84S68.49,134.17,61.2,134.17Zm0-11.92A19.1,19.1,0,0,0,53,123.9c-2,1-3.06,2.2-3.06,3.42s1.11,2.47,3.06,3.42a19,19,0,0,0,8.18,1.66,19,19,0,0,0,8.18-1.66c1.94-1,3.06-2.2,3.06-3.42s-1.12-2.46-3.06-3.42A19.1,19.1,0,0,0,61.2,122.25Z"/><ellipse class="cls-3" cx="61.2" cy="126.9" rx="3.04" ry="1.49"/><path class="cls-2" d="M61.2,129.28c-2.27,0-3.93-1-3.93-2.38s1.66-2.38,3.93-2.38,3.92,1,3.92,2.38S63.47,129.28,61.2,129.28Zm-2.14-2.38a4.06,4.06,0,0,0,4.28,0,4.06,4.06,0,0,0-4.28,0Z"/><path class="cls-4" d="M59.09,133.28c6.68,0,19.74,19.29,19.74,19.29a22.52,22.52,0,0,1-13,6.91c-3.44-1.12-6-15.07-6-15.07Z"/><path class="cls-2" d="M65.87,160.36a.86.86,0,0,1-.28,0c-2.32-.76-3.88-5.24-4.86-8.54-1.07-3.63-1.7-7.06-1.73-7.21s0-.06,0-.09l-.78-11.14a.85.85,0,0,1,.23-.66.88.88,0,0,1,.65-.28c3,0,7.43,3.35,13,9.95,4.08,4.8,7.39,9.67,7.42,9.72a.88.88,0,0,1-.1,1.12A23.35,23.35,0,0,1,66,160.35ZM60.75,144.3c.08.43.7,3.67,1.68,7,1.66,5.63,3,7,3.54,7.27a21.38,21.38,0,0,0,11.71-6.1c-1-1.44-3.71-5.23-6.9-9-2.69-3.16-7.43-8.27-10.73-9.18Z"/><path class="cls-1" d="M49.08,103.23V127.3c0,3.29,5.42,6,12.12,6s12.12-2.67,12.12-6V103.23Z"/><path class="cls-2" d="M61.2,134.14c-7.29,0-13-3-13-6.84V103.23a.89.89,0,0,1,.89-.89H73.32a.89.89,0,0,1,.89.89V127.3C74.21,131.13,68.49,134.14,61.2,134.14ZM50,104.11V127.3c0,1.22,1.11,2.46,3.06,3.42a19.1,19.1,0,0,0,8.18,1.65,19.1,19.1,0,0,0,8.18-1.65c1.94-1,3.06-2.2,3.06-3.42V104.11Z"/><ellipse class="cls-1" cx="61.2" cy="103.23" rx="12.12" ry="5.96"/><path class="cls-2" d="M61.2,110.07c-7.29,0-13-3-13-6.84s5.72-6.85,13-6.85,13,3,13,6.85S68.49,110.07,61.2,110.07Zm0-11.92A19,19,0,0,0,53,99.81c-2,1-3.06,2.2-3.06,3.42s1.11,2.46,3.06,3.42a19.1,19.1,0,0,0,8.18,1.65,19.1,19.1,0,0,0,8.18-1.65c1.94-1,3.06-2.2,3.06-3.42s-1.12-2.47-3.06-3.42A19,19,0,0,0,61.2,98.15Z"/><ellipse class="cls-3" cx="61.2" cy="102.81" rx="3.04" ry="1.49"/><path class="cls-2" d="M61.2,105.19c-2.27,0-3.93-1-3.93-2.38s1.66-2.38,3.93-2.38,3.92,1,3.92,2.38S63.47,105.19,61.2,105.19Zm-2.14-2.38a4.06,4.06,0,0,0,4.28,0,4.06,4.06,0,0,0-4.28,0Z"/><path class="cls-4" d="M59.09,109.19c6.68,0,19.74,19.28,19.74,19.28a22.46,22.46,0,0,1-13,6.91c-3.44-1.11-6-15.06-6-15.06Z"/><path class="cls-2" d="M65.87,136.26a.86.86,0,0,1-.28,0c-2.32-.75-3.88-5.23-4.86-8.54-1.07-3.63-1.7-7.06-1.73-7.2s0-.07,0-.1l-.78-11.13a.86.86,0,0,1,.23-.67.88.88,0,0,1,.65-.28c3,0,7.43,3.35,13,10,4.08,4.8,7.39,9.67,7.42,9.71a.88.88,0,0,1-.1,1.12A23.29,23.29,0,0,1,66,136.25ZM60.75,120.2c.08.43.7,3.68,1.68,7,1.66,5.63,3,7,3.54,7.27a21.38,21.38,0,0,0,11.71-6.1c-1-1.43-3.71-5.22-6.9-9-2.69-3.16-7.43-8.26-10.73-9.18Z"/><path class="cls-1" d="M49.08,79.13V103.2c0,3.29,5.42,6,12.12,6s12.12-2.67,12.12-6V79.13Z"/><path class="cls-2" d="M61.2,110c-7.29,0-13-3-13-6.84V79.13a.88.88,0,0,1,.89-.88H73.32a.88.88,0,0,1,.89.88V103.2C74.21,107,68.49,110,61.2,110ZM50,80V103.2c0,1.22,1.11,2.47,3.06,3.42a19,19,0,0,0,8.18,1.66,19,19,0,0,0,8.18-1.66c1.94-1,3.06-2.2,3.06-3.42V80Z"/><ellipse class="cls-1" cx="61.2" cy="79.13" rx="12.12" ry="5.96"/><path class="cls-2" d="M61.2,86c-7.29,0-13-3-13-6.84s5.72-6.84,13-6.84,13,3,13,6.84S68.49,86,61.2,86Zm0-11.91A19,19,0,0,0,53,75.71c-2,1-3.06,2.2-3.06,3.42S51.07,81.6,53,82.55a19,19,0,0,0,8.18,1.66,19,19,0,0,0,8.18-1.66c1.94-1,3.06-2.2,3.06-3.42s-1.12-2.46-3.06-3.42A19,19,0,0,0,61.2,74.06Z"/><ellipse class="cls-3" cx="61.2" cy="78.71" rx="3.04" ry="1.49"/><path class="cls-2" d="M61.2,81.09c-2.27,0-3.93-1-3.93-2.38s1.66-2.38,3.93-2.38,3.92,1,3.92,2.38S63.47,81.09,61.2,81.09Zm-2.14-2.38a4.06,4.06,0,0,0,4.28,0,4.06,4.06,0,0,0-4.28,0Z"/><path class="cls-4" d="M59.09,85.09c6.68,0,19.74,19.28,19.74,19.28a22.4,22.4,0,0,1-13,6.91c-3.44-1.11-6-15.06-6-15.06Z"/><path class="cls-2" d="M65.87,112.17a1.26,1.26,0,0,1-.28,0c-2.32-.76-3.88-5.24-4.86-8.55C59.66,100,59,96.52,59,96.38s0-.06,0-.1l-.78-11.13a.85.85,0,0,1,.23-.66.88.88,0,0,1,.65-.28c3,0,7.43,3.34,13,10,4.08,4.8,7.39,9.67,7.42,9.72a.87.87,0,0,1-.1,1.11A23.31,23.31,0,0,1,66,112.16ZM60.75,96.11c.08.42.7,3.67,1.68,7,1.66,5.63,3,7,3.54,7.27a21.52,21.52,0,0,0,11.71-6.1c-1-1.44-3.71-5.23-6.9-9-2.69-3.16-7.43-8.26-10.73-9.17Z"/><path class="cls-1" d="M49.08,55V79.11c0,3.29,5.42,6,12.12,6s12.12-2.66,12.12-6V55Z"/><path class="cls-2" d="M61.2,86c-7.29,0-13-3-13-6.84V55a.89.89,0,0,1,.89-.88H73.32a.89.89,0,0,1,.89.88V79.11C74.21,82.94,68.49,86,61.2,86ZM50,55.92V79.11c0,1.21,1.11,2.46,3.06,3.42a19.1,19.1,0,0,0,8.18,1.65,19.1,19.1,0,0,0,8.18-1.65c1.94-1,3.06-2.21,3.06-3.42V55.92Z"/><ellipse class="cls-1" cx="61.2" cy="55.03" rx="12.12" ry="5.96"/><path class="cls-2" d="M61.2,61.88c-7.29,0-13-3-13-6.85s5.72-6.84,13-6.84,13,3,13,6.84S68.49,61.88,61.2,61.88ZM61.2,50A19.1,19.1,0,0,0,53,51.61c-2,1-3.06,2.21-3.06,3.42S51.07,57.5,53,58.46a19.1,19.1,0,0,0,8.18,1.65,19.1,19.1,0,0,0,8.18-1.65c1.94-1,3.06-2.21,3.06-3.43s-1.12-2.46-3.06-3.42A19.1,19.1,0,0,0,61.2,50Z"/><ellipse class="cls-3" cx="61.2" cy="54.62" rx="3.04" ry="1.49"/><path class="cls-2" d="M61.2,57c-2.27,0-3.93-1-3.93-2.37s1.66-2.38,3.93-2.38,3.92,1,3.92,2.38S63.47,57,61.2,57Zm-2.14-2.37a4.06,4.06,0,0,0,4.28,0,4.06,4.06,0,0,0-4.28,0Z"/><path class="cls-4" d="M59.09,61c6.68,0,19.74,19.29,19.74,19.29a22.52,22.52,0,0,1-13,6.91c-3.44-1.12-6-15.06-6-15.06Z"/><path class="cls-2" d="M65.87,88.07a.86.86,0,0,1-.28,0c-2.32-.75-3.88-5.24-4.86-8.54C59.66,75.86,59,72.43,59,72.28s0-.06,0-.09l-.78-11.13a.86.86,0,0,1,.23-.67.88.88,0,0,1,.65-.28c3,0,7.43,3.35,13,10,4.08,4.81,7.39,9.67,7.42,9.72a.88.88,0,0,1-.1,1.12A23.35,23.35,0,0,1,66,88.06ZM60.75,72c.08.43.7,3.67,1.68,7,1.66,5.63,3,7,3.54,7.27a21.38,21.38,0,0,0,11.71-6.1c-1-1.43-3.71-5.22-6.9-9C68.09,68,63.35,62.94,60.05,62Z"/><path class="cls-1" d="M49.08,30.94V55c0,3.29,5.42,6,12.12,6s12.12-2.67,12.12-6V30.94Z"/><path class="cls-2" d="M61.2,61.85c-7.29,0-13-3-13-6.84V30.94a.89.89,0,0,1,.89-.89H73.32a.89.89,0,0,1,.89.89V55C74.21,58.85,68.49,61.85,61.2,61.85ZM50,31.82V55c0,1.22,1.11,2.46,3.06,3.42a19,19,0,0,0,8.18,1.65,19,19,0,0,0,8.18-1.65c1.94-1,3.06-2.2,3.06-3.42V31.82Z"/><ellipse class="cls-1" cx="61.2" cy="30.94" rx="12.12" ry="5.96"/><path class="cls-2" d="M61.2,37.78c-7.29,0-13-3-13-6.84s5.72-6.84,13-6.84,13,3,13,6.84S68.49,37.78,61.2,37.78Zm0-11.92A19,19,0,0,0,53,27.52c-2,.95-3.06,2.2-3.06,3.42S51.07,33.4,53,34.36A19,19,0,0,0,61.2,36a19,19,0,0,0,8.18-1.65c1.94-1,3.06-2.2,3.06-3.42s-1.12-2.47-3.06-3.42A19,19,0,0,0,61.2,25.86Z"/><ellipse class="cls-3" cx="61.2" cy="30.52" rx="3.04" ry="1.49"/><path class="cls-2" d="M61.2,32.9c-2.27,0-3.93-1-3.93-2.38s1.66-2.38,3.93-2.38,3.92,1,3.92,2.38S63.47,32.9,61.2,32.9Zm-2.14-2.38a4.06,4.06,0,0,0,4.28,0,4.06,4.06,0,0,0-4.28,0Z"/><path class="cls-4" d="M59.09,36.9c6.68,0,19.74,19.28,19.74,19.28a22.46,22.46,0,0,1-13,6.91C62.43,62,59.87,48,59.87,48Z"/><path class="cls-2" d="M65.87,64a.87.87,0,0,1-.28,0c-2.32-.75-3.88-5.23-4.86-8.54-1.07-3.63-1.7-7.06-1.73-7.2s0-.07,0-.1L58.21,37a.84.84,0,0,1,.23-.66.89.89,0,0,1,.65-.29c3,0,7.43,3.35,13,10,4.08,4.8,7.39,9.67,7.42,9.72a.87.87,0,0,1-.1,1.11A23.23,23.23,0,0,1,66,64ZM60.75,47.92c.08.42.7,3.67,1.68,7,1.66,5.62,3,7,3.54,7.27a21.52,21.52,0,0,0,11.71-6.1c-1-1.44-3.71-5.23-6.9-9-2.69-3.16-7.43-8.26-10.73-9.18Z"/><path class="cls-1" d="M49.08,6.84V30.91c0,3.29,5.42,6,12.12,6s12.12-2.67,12.12-6V6.84Z"/><path class="cls-2" d="M61.2,37.76c-7.29,0-13-3-13-6.85V6.84A.88.88,0,0,1,49.08,6H73.32a.88.88,0,0,1,.89.88V30.91C74.21,34.75,68.49,37.76,61.2,37.76ZM50,7.73V30.91c0,1.22,1.11,2.47,3.06,3.42A19,19,0,0,0,61.2,36a19,19,0,0,0,8.18-1.66c1.94-.95,3.06-2.2,3.06-3.42V7.73Z"/><ellipse class="cls-1" cx="61.2" cy="6.84" rx="12.12" ry="5.96"/><path class="cls-2" d="M61.2,13.69c-7.29,0-13-3-13-6.85S53.91,0,61.2,0s13,3,13,6.84S68.49,13.69,61.2,13.69Zm0-11.92A19.1,19.1,0,0,0,53,3.42c-2,1-3.06,2.2-3.06,3.42S51.07,9.31,53,10.26a19,19,0,0,0,8.18,1.66,19,19,0,0,0,8.18-1.66c1.94-.95,3.06-2.2,3.06-3.42s-1.12-2.46-3.06-3.42A19.1,19.1,0,0,0,61.2,1.77Z"/><ellipse class="cls-3" cx="61.2" cy="6.42" rx="3.04" ry="1.49"/><path class="cls-2" d="M61.2,8.8c-2.27,0-3.93-1-3.93-2.38s1.66-2.37,3.93-2.37,3.92,1,3.92,2.37S63.47,8.8,61.2,8.8ZM59.06,6.42a4.06,4.06,0,0,0,4.28,0,4.06,4.06,0,0,0-4.28,0Z"/><path class="cls-4" d="M59.09,12.8c6.68,0,19.74,19.29,19.74,19.29a22.52,22.52,0,0,1-13,6.91c-3.44-1.12-6-15.07-6-15.07Z"/><path class="cls-2" d="M65.87,39.88a.86.86,0,0,1-.28,0c-2.32-.76-3.88-5.24-4.86-8.54C59.66,27.67,59,24.24,59,24.09S59,24,59,24l-.78-11.14a.85.85,0,0,1,.23-.66.88.88,0,0,1,.65-.28c3,0,7.43,3.35,13,10,4.08,4.8,7.39,9.67,7.42,9.72a.88.88,0,0,1-.1,1.12A23.35,23.35,0,0,1,66,39.87ZM60.75,23.82c.08.43.7,3.67,1.68,7,1.66,5.63,3,7,3.54,7.27A21.38,21.38,0,0,0,77.68,32c-1-1.44-3.71-5.23-6.9-9-2.69-3.16-7.43-8.27-10.73-9.18Z"/><path class="cls-1" d="M25,151.42v24.07c0,3.29,5.43,6,12.12,6s12.13-2.67,12.13-6V151.42Z"/><path class="cls-2" d="M37.1,182.33c-7.29,0-13-3-13-6.84V151.42a.88.88,0,0,1,.88-.89H49.23a.88.88,0,0,1,.88.89v24.07C50.11,179.33,44.4,182.33,37.1,182.33Zm-11.24-30v23.19c0,1.22,1.12,2.46,3.06,3.42a19,19,0,0,0,8.18,1.65,19,19,0,0,0,8.19-1.65c1.94-1,3.05-2.2,3.05-3.42V152.3Z"/><ellipse class="cls-1" cx="37.1" cy="151.42" rx="12.12" ry="5.96"/><path class="cls-2" d="M37.1,158.26c-7.29,0-13-3-13-6.84s5.71-6.84,13-6.84,13,3,13,6.84S44.4,158.26,37.1,158.26Zm0-11.92A19,19,0,0,0,28.92,148c-1.94.95-3.06,2.2-3.06,3.42s1.12,2.46,3.06,3.42a19,19,0,0,0,8.18,1.65,19,19,0,0,0,8.19-1.65c1.94-1,3.05-2.2,3.05-3.42S47.23,149,45.29,148A19,19,0,0,0,37.1,146.34Z"/><ellipse class="cls-3" cx="37.1" cy="151" rx="3.04" ry="1.49"/><path class="cls-2" d="M37.1,153.38c-2.27,0-3.92-1-3.92-2.38s1.65-2.38,3.92-2.38S41,149.62,41,151,39.38,153.38,37.1,153.38ZM35,151a3.14,3.14,0,0,0,2.14.61,3.1,3.1,0,0,0,2.14-.61,3.1,3.1,0,0,0-2.14-.61A3.14,3.14,0,0,0,35,151Z"/><path class="cls-4" d="M35,157.38c6.68,0,19.75,19.28,19.75,19.28a22.5,22.5,0,0,1-13,6.91c-3.44-1.11-6-15.06-6-15.06Z"/><path class="cls-2" d="M41.77,184.46a.86.86,0,0,1-.27-.05c-2.33-.75-3.89-5.23-4.86-8.54-1.07-3.63-1.71-7.06-1.73-7.2a.34.34,0,0,1,0-.1l-.79-11.13a.89.89,0,0,1,.24-.67.9.9,0,0,1,.64-.28c3,0,7.43,3.35,13,10,4.09,4.8,7.4,9.67,7.43,9.72a.88.88,0,0,1-.1,1.11,23.28,23.28,0,0,1-13.45,7.16ZM36.66,168.4c.08.42.7,3.67,1.68,7,1.66,5.62,3,7,3.54,7.27a21.55,21.55,0,0,0,11.71-6.1c-1-1.44-3.71-5.23-6.9-9C44,164.42,39.25,159.32,36,158.4Z"/><path class="cls-1" d="M25,127.32v24.07c0,3.29,5.43,6,12.12,6s12.13-2.67,12.13-6V127.32Z"/><path class="cls-2" d="M37.1,158.24c-7.29,0-13-3-13-6.85V127.32a.87.87,0,0,1,.88-.88H49.23a.87.87,0,0,1,.88.88v24.07C50.11,155.23,44.4,158.24,37.1,158.24Zm-11.24-30v23.18c0,1.22,1.12,2.47,3.06,3.42a19,19,0,0,0,8.18,1.66,19,19,0,0,0,8.19-1.66c1.94-.95,3.05-2.2,3.05-3.42V128.21Z"/><ellipse class="cls-1" cx="37.1" cy="127.32" rx="12.12" ry="5.96"/><path class="cls-2" d="M37.1,134.17c-7.29,0-13-3-13-6.85s5.71-6.84,13-6.84,13,3,13,6.84S44.4,134.17,37.1,134.17Zm0-11.92a19.14,19.14,0,0,0-8.18,1.65c-1.94,1-3.06,2.2-3.06,3.42s1.12,2.47,3.06,3.42a19,19,0,0,0,8.18,1.66,19,19,0,0,0,8.19-1.66c1.94-1,3.05-2.2,3.05-3.42s-1.11-2.46-3.05-3.42A19.15,19.15,0,0,0,37.1,122.25Z"/><ellipse class="cls-3" cx="37.1" cy="126.9" rx="3.04" ry="1.49"/><path class="cls-2" d="M37.1,129.28c-2.27,0-3.92-1-3.92-2.38s1.65-2.38,3.92-2.38,3.93,1,3.93,2.38S39.38,129.28,37.1,129.28ZM35,126.9a3.09,3.09,0,0,0,2.14.61,3,3,0,0,0,2.14-.61,3.1,3.1,0,0,0-2.14-.61A3.14,3.14,0,0,0,35,126.9Z"/><path class="cls-4" d="M35,133.28c6.68,0,19.75,19.29,19.75,19.29a22.57,22.57,0,0,1-13,6.91c-3.44-1.12-6-15.07-6-15.07Z"/><path class="cls-2" d="M41.77,160.36a.84.84,0,0,1-.27,0c-2.33-.76-3.89-5.24-4.86-8.54-1.07-3.63-1.71-7.06-1.73-7.21a.28.28,0,0,1,0-.09l-.79-11.14a.89.89,0,0,1,.88-.94c3,0,7.43,3.35,13,9.95,4.09,4.8,7.4,9.67,7.43,9.72a.89.89,0,0,1-.1,1.12,23.4,23.4,0,0,1-13.45,7.16ZM36.66,144.3c.08.43.7,3.67,1.68,7,1.66,5.63,3,7,3.54,7.27a21.41,21.41,0,0,0,11.71-6.1c-1-1.44-3.71-5.23-6.9-9-2.69-3.16-7.44-8.27-10.74-9.18Z"/><path class="cls-1" d="M25,103.23V127.3c0,3.29,5.43,6,12.12,6s12.13-2.67,12.13-6V103.23Z"/><path class="cls-2" d="M37.1,134.14c-7.29,0-13-3-13-6.84V103.23a.88.88,0,0,1,.88-.89H49.23a.88.88,0,0,1,.88.89V127.3C50.11,131.13,44.4,134.14,37.1,134.14Zm-11.24-30V127.3c0,1.22,1.12,2.46,3.06,3.42a19.14,19.14,0,0,0,8.18,1.65,19.15,19.15,0,0,0,8.19-1.65c1.94-1,3.05-2.2,3.05-3.42V104.11Z"/><ellipse class="cls-1" cx="37.1" cy="103.23" rx="12.12" ry="5.96"/><path class="cls-2" d="M37.1,110.07c-7.29,0-13-3-13-6.84s5.71-6.85,13-6.85,13,3,13,6.85S44.4,110.07,37.1,110.07Zm0-11.92a19,19,0,0,0-8.18,1.66c-1.94,1-3.06,2.2-3.06,3.42s1.12,2.46,3.06,3.42a19.14,19.14,0,0,0,8.18,1.65,19.15,19.15,0,0,0,8.19-1.65c1.94-1,3.05-2.2,3.05-3.42s-1.11-2.47-3.05-3.42A19,19,0,0,0,37.1,98.15Z"/><ellipse class="cls-3" cx="37.1" cy="102.81" rx="3.04" ry="1.49"/><path class="cls-2" d="M37.1,105.19c-2.27,0-3.92-1-3.92-2.38s1.65-2.38,3.92-2.38,3.93,1,3.93,2.38S39.38,105.19,37.1,105.19ZM35,102.81a3.14,3.14,0,0,0,2.14.61,3.1,3.1,0,0,0,2.14-.61,3,3,0,0,0-2.14-.61A3.09,3.09,0,0,0,35,102.81Z"/><path class="cls-4" d="M35,109.19c6.68,0,19.75,19.28,19.75,19.28a22.5,22.5,0,0,1-13,6.91c-3.44-1.11-6-15.06-6-15.06Z"/><path class="cls-2" d="M41.77,136.26a.84.84,0,0,1-.27,0c-2.33-.75-3.89-5.23-4.86-8.54-1.07-3.63-1.71-7.06-1.73-7.2a.38.38,0,0,1,0-.1l-.79-11.13a.87.87,0,0,1,.24-.67.86.86,0,0,1,.64-.28c3,0,7.43,3.35,13,10,4.09,4.8,7.4,9.67,7.43,9.71a.89.89,0,0,1-.1,1.12,23.34,23.34,0,0,1-13.45,7.16ZM36.66,120.2c.08.43.7,3.68,1.68,7,1.66,5.63,3,7,3.54,7.27a21.41,21.41,0,0,0,11.71-6.1c-1-1.43-3.71-5.22-6.9-9-2.69-3.16-7.44-8.26-10.74-9.18Z"/><path class="cls-1" d="M25,79.13V103.2c0,3.29,5.43,6,12.12,6s12.13-2.67,12.13-6V79.13Z"/><path class="cls-2" d="M37.1,110c-7.29,0-13-3-13-6.84V79.13a.87.87,0,0,1,.88-.88H49.23a.87.87,0,0,1,.88.88V103.2C50.11,107,44.4,110,37.1,110ZM25.86,80V103.2c0,1.22,1.12,2.47,3.06,3.42a19,19,0,0,0,8.18,1.66,19,19,0,0,0,8.19-1.66c1.94-1,3.05-2.2,3.05-3.42V80Z"/><ellipse class="cls-1" cx="37.1" cy="79.13" rx="12.12" ry="5.96"/><path class="cls-2" d="M37.1,86c-7.29,0-13-3-13-6.84s5.71-6.84,13-6.84,13,3,13,6.84S44.4,86,37.1,86Zm0-11.91a19,19,0,0,0-8.18,1.65c-1.94,1-3.06,2.2-3.06,3.42S27,81.6,28.92,82.55a19,19,0,0,0,8.18,1.66,19,19,0,0,0,8.19-1.66c1.94-1,3.05-2.2,3.05-3.42s-1.11-2.46-3.05-3.42A19,19,0,0,0,37.1,74.06Z"/><ellipse class="cls-3" cx="37.1" cy="78.71" rx="3.04" ry="1.49"/><path class="cls-2" d="M37.1,81.09c-2.27,0-3.92-1-3.92-2.38s1.65-2.38,3.92-2.38,3.93,1,3.93,2.38S39.38,81.09,37.1,81.09ZM35,78.71a3.09,3.09,0,0,0,2.14.61,3,3,0,0,0,2.14-.61,3.1,3.1,0,0,0-2.14-.61A3.14,3.14,0,0,0,35,78.71Z"/><path class="cls-4" d="M35,85.09c6.68,0,19.75,19.28,19.75,19.28a22.44,22.44,0,0,1-13,6.91c-3.44-1.11-6-15.06-6-15.06Z"/><path class="cls-2" d="M41.77,112.17a1.26,1.26,0,0,1-.27,0c-2.33-.76-3.89-5.24-4.86-8.55-1.07-3.62-1.71-7.06-1.73-7.2a.31.31,0,0,1,0-.1l-.79-11.13a.89.89,0,0,1,.88-.94c3,0,7.43,3.34,13,10,4.09,4.8,7.4,9.67,7.43,9.72a.88.88,0,0,1-.1,1.11,23.37,23.37,0,0,1-13.45,7.17ZM36.66,96.11c.08.42.7,3.67,1.68,7,1.66,5.63,3,7,3.54,7.27a21.55,21.55,0,0,0,11.71-6.1c-1-1.44-3.71-5.23-6.9-9C44,92.13,39.25,87,36,86.12Z"/><path class="cls-1" d="M25,55V79.11c0,3.29,5.43,6,12.12,6s12.13-2.66,12.13-6V55Z"/><path class="cls-2" d="M37.1,86c-7.29,0-13-3-13-6.84V55a.88.88,0,0,1,.88-.88H49.23a.88.88,0,0,1,.88.88V79.11C50.11,82.94,44.4,86,37.1,86Zm-11.24-30V79.11c0,1.21,1.12,2.46,3.06,3.42a19.14,19.14,0,0,0,8.18,1.65,19.15,19.15,0,0,0,8.19-1.65c1.94-1,3.05-2.21,3.05-3.42V55.92Z"/><ellipse class="cls-1" cx="37.1" cy="55.03" rx="12.12" ry="5.96"/><path class="cls-2" d="M37.1,61.88c-7.29,0-13-3-13-6.85s5.71-6.84,13-6.84,13,3,13,6.84S44.4,61.88,37.1,61.88ZM37.1,50a19.14,19.14,0,0,0-8.18,1.65c-1.94,1-3.06,2.21-3.06,3.42S27,57.5,28.92,58.46a19.14,19.14,0,0,0,8.18,1.65,19.15,19.15,0,0,0,8.19-1.65c1.94-1,3.05-2.21,3.05-3.43s-1.11-2.46-3.05-3.42A19.15,19.15,0,0,0,37.1,50Z"/><ellipse class="cls-3" cx="37.1" cy="54.62" rx="3.04" ry="1.49"/><path class="cls-2" d="M37.1,57c-2.27,0-3.92-1-3.92-2.37s1.65-2.38,3.92-2.38,3.93,1,3.93,2.38S39.38,57,37.1,57ZM35,54.62a3.14,3.14,0,0,0,2.14.61,3.1,3.1,0,0,0,2.14-.61A3,3,0,0,0,37.1,54,3.09,3.09,0,0,0,35,54.62Z"/><path class="cls-4" d="M35,61c6.68,0,19.75,19.29,19.75,19.29a22.57,22.57,0,0,1-13,6.91c-3.44-1.12-6-15.06-6-15.06Z"/><path class="cls-2" d="M41.77,88.07a.84.84,0,0,1-.27,0c-2.33-.75-3.89-5.24-4.86-8.54-1.07-3.63-1.71-7.06-1.73-7.21a.28.28,0,0,1,0-.09l-.79-11.13a.87.87,0,0,1,.24-.67.86.86,0,0,1,.64-.28c3,0,7.43,3.35,13,10,4.09,4.81,7.4,9.67,7.43,9.72a.89.89,0,0,1-.1,1.12,23.4,23.4,0,0,1-13.45,7.16ZM36.66,72c.08.43.7,3.67,1.68,7,1.66,5.63,3,7,3.54,7.27a21.41,21.41,0,0,0,11.71-6.1c-1-1.43-3.71-5.22-6.9-9C44,68,39.25,62.94,36,62Z"/><path class="cls-1" d="M25,30.94V55c0,3.29,5.43,6,12.12,6s12.13-2.67,12.13-6V30.94Z"/><path class="cls-2" d="M37.1,61.85c-7.29,0-13-3-13-6.84V30.94a.88.88,0,0,1,.88-.89H49.23a.88.88,0,0,1,.88.89V55C50.11,58.85,44.4,61.85,37.1,61.85Zm-11.24-30V55c0,1.22,1.12,2.46,3.06,3.42a19,19,0,0,0,8.18,1.65,19,19,0,0,0,8.19-1.65c1.94-1,3.05-2.2,3.05-3.42V31.82Z"/><ellipse class="cls-1" cx="37.1" cy="30.94" rx="12.12" ry="5.96"/><path class="cls-2" d="M37.1,37.78c-7.29,0-13-3-13-6.84s5.71-6.84,13-6.84,13,3,13,6.84S44.4,37.78,37.1,37.78Zm0-11.92a19,19,0,0,0-8.18,1.66c-1.94.95-3.06,2.2-3.06,3.42S27,33.4,28.92,34.36A19,19,0,0,0,37.1,36a19,19,0,0,0,8.19-1.65c1.94-1,3.05-2.2,3.05-3.42s-1.11-2.47-3.05-3.42A19,19,0,0,0,37.1,25.86Z"/><ellipse class="cls-3" cx="37.1" cy="30.52" rx="3.04" ry="1.49"/><path class="cls-2" d="M37.1,32.9c-2.27,0-3.92-1-3.92-2.38s1.65-2.38,3.92-2.38,3.93,1,3.93,2.38S39.38,32.9,37.1,32.9ZM35,30.52a3.14,3.14,0,0,0,2.14.61,3.1,3.1,0,0,0,2.14-.61,3.1,3.1,0,0,0-2.14-.61A3.14,3.14,0,0,0,35,30.52Z"/><path class="cls-4" d="M35,36.9c6.68,0,19.75,19.28,19.75,19.28a22.5,22.5,0,0,1-13,6.91C38.33,62,35.78,48,35.78,48Z"/><path class="cls-2" d="M41.77,64a.86.86,0,0,1-.27,0c-2.33-.75-3.89-5.23-4.86-8.54-1.07-3.63-1.71-7.06-1.73-7.2a.34.34,0,0,1,0-.1L34.11,37a.85.85,0,0,1,.24-.66A.87.87,0,0,1,35,36c3,0,7.43,3.35,13,10,4.09,4.8,7.4,9.67,7.43,9.72a.88.88,0,0,1-.1,1.11A23.28,23.28,0,0,1,41.92,64ZM36.66,47.92c.08.42.7,3.67,1.68,7,1.66,5.62,3,7,3.54,7.27a21.55,21.55,0,0,0,11.71-6.1c-1-1.44-3.71-5.23-6.9-9C44,43.94,39.25,38.84,36,37.92Z"/><path class="cls-1" d="M25,6.84V30.91c0,3.29,5.43,6,12.12,6s12.13-2.67,12.13-6V6.84Z"/><path class="cls-2" d="M37.1,37.76c-7.29,0-13-3-13-6.85V6.84A.87.87,0,0,1,25,6H49.23a.87.87,0,0,1,.88.88V30.91C50.11,34.75,44.4,37.76,37.1,37.76Zm-11.24-30V30.91c0,1.22,1.12,2.47,3.06,3.42A19,19,0,0,0,37.1,36a19,19,0,0,0,8.19-1.66c1.94-.95,3.05-2.2,3.05-3.42V7.73Z"/><ellipse class="cls-1" cx="37.1" cy="6.84" rx="12.12" ry="5.96"/><path class="cls-2" d="M37.1,13.69c-7.29,0-13-3-13-6.85S29.81,0,37.1,0s13,3,13,6.84S44.4,13.69,37.1,13.69Zm0-11.92a19.14,19.14,0,0,0-8.18,1.65c-1.94,1-3.06,2.2-3.06,3.42S27,9.31,28.92,10.26a19,19,0,0,0,8.18,1.66,19,19,0,0,0,8.19-1.66c1.94-.95,3.05-2.2,3.05-3.42s-1.11-2.46-3.05-3.42A19.15,19.15,0,0,0,37.1,1.77Z"/><ellipse class="cls-3" cx="37.1" cy="6.42" rx="3.04" ry="1.49"/><path class="cls-2" d="M37.1,8.8c-2.27,0-3.92-1-3.92-2.38s1.65-2.37,3.92-2.37S41,5.05,41,6.42,39.38,8.8,37.1,8.8ZM35,6.42A3.09,3.09,0,0,0,37.1,7a3,3,0,0,0,2.14-.61,3.1,3.1,0,0,0-2.14-.61A3.14,3.14,0,0,0,35,6.42Z"/><path class="cls-4" d="M35,12.8c6.68,0,19.75,19.29,19.75,19.29a22.57,22.57,0,0,1-13,6.91c-3.44-1.12-6-15.07-6-15.07Z"/><path class="cls-2" d="M41.77,39.88a.84.84,0,0,1-.27,0c-2.33-.76-3.89-5.24-4.86-8.54-1.07-3.63-1.71-7.06-1.73-7.21a.28.28,0,0,1,0-.09l-.79-11.14a.89.89,0,0,1,.88-.94c3,0,7.43,3.35,13,10,4.09,4.8,7.4,9.67,7.43,9.72a.89.89,0,0,1-.1,1.12,23.4,23.4,0,0,1-13.45,7.16ZM36.66,23.82c.08.43.7,3.67,1.68,7,1.66,5.63,3,7,3.54,7.27A21.41,21.41,0,0,0,53.59,32c-1-1.44-3.71-5.23-6.9-9C44,19.85,39.25,14.74,36,13.83Z"/><path class="cls-1" d="M.88,151.42v24.07c0,3.29,5.43,6,12.13,6s12.12-2.67,12.12-6V151.42Z"/><path class="cls-2" d="M13,182.33c-7.3,0-13-3-13-6.84V151.42a.89.89,0,0,1,.88-.89H25.13a.89.89,0,0,1,.89.89v24.07C26,179.33,20.3,182.33,13,182.33Zm-11.24-30v23.19c0,1.22,1.11,2.46,3.06,3.42A19,19,0,0,0,13,180.56a19,19,0,0,0,8.18-1.65c1.94-1,3.06-2.2,3.06-3.42V152.3Z"/><ellipse class="cls-1" cx="13.01" cy="151.42" rx="12.12" ry="5.96"/><path class="cls-2" d="M13,158.26c-7.3,0-13-3-13-6.84s5.71-6.84,13-6.84,13,3,13,6.84S20.3,158.26,13,158.26Zm0-11.92A19,19,0,0,0,4.83,148c-1.95.95-3.06,2.2-3.06,3.42s1.11,2.46,3.06,3.42A19,19,0,0,0,13,156.49a19,19,0,0,0,8.18-1.65c1.94-1,3.06-2.2,3.06-3.42S23.13,149,21.19,148A19,19,0,0,0,13,146.34Z"/><ellipse class="cls-3" cx="13.01" cy="151" rx="3.04" ry="1.49"/><path class="cls-2" d="M13,153.38c-2.28,0-3.93-1-3.93-2.38s1.65-2.38,3.93-2.38,3.92,1,3.92,2.38S15.28,153.38,13,153.38ZM10.87,151a3.1,3.1,0,0,0,2.14.61,3.12,3.12,0,0,0,2.14-.61,3.12,3.12,0,0,0-2.14-.61A3.1,3.1,0,0,0,10.87,151Z"/><path class="cls-4" d="M10.9,157.38c6.68,0,19.74,19.28,19.74,19.28a22.5,22.5,0,0,1-13,6.91c-3.43-1.11-6-15.06-6-15.06Z"/><path class="cls-2" d="M17.67,184.46a.86.86,0,0,1-.27-.05c-2.32-.75-3.89-5.23-4.86-8.54-1.07-3.63-1.7-7.06-1.73-7.2s0-.07,0-.1L10,157.44a.89.89,0,0,1,.89-.95c3,0,7.43,3.35,13.05,10,4.08,4.8,7.39,9.67,7.42,9.72a.87.87,0,0,1-.1,1.11,23.28,23.28,0,0,1-13.45,7.16ZM12.56,168.4c.08.42.7,3.67,1.68,7,1.66,5.62,3,7,3.54,7.27a21.52,21.52,0,0,0,11.71-6.1c-1-1.44-3.71-5.23-6.9-9-2.69-3.16-7.43-8.26-10.74-9.18Z"/><path class="cls-1" d="M.88,127.32v24.07c0,3.29,5.43,6,12.13,6s12.12-2.67,12.12-6V127.32Z"/><path class="cls-2" d="M13,158.24c-7.3,0-13-3-13-6.85V127.32a.88.88,0,0,1,.88-.88H25.13a.88.88,0,0,1,.89.88v24.07C26,155.23,20.3,158.24,13,158.24Zm-11.24-30v23.18c0,1.22,1.11,2.47,3.06,3.42A19,19,0,0,0,13,156.47a19,19,0,0,0,8.18-1.66c1.94-.95,3.06-2.2,3.06-3.42V128.21Z"/><ellipse class="cls-1" cx="13.01" cy="127.32" rx="12.12" ry="5.96"/><path class="cls-2" d="M13,134.17c-7.3,0-13-3-13-6.85s5.71-6.84,13-6.84,13,3,13,6.84S20.3,134.17,13,134.17Zm0-11.92a19.1,19.1,0,0,0-8.18,1.65c-1.95,1-3.06,2.2-3.06,3.42s1.11,2.47,3.06,3.42A19,19,0,0,0,13,132.4a19,19,0,0,0,8.18-1.66c1.94-1,3.06-2.2,3.06-3.42s-1.12-2.46-3.06-3.42A19.14,19.14,0,0,0,13,122.25Z"/><ellipse class="cls-3" cx="13.01" cy="126.9" rx="3.04" ry="1.49"/><path class="cls-2" d="M13,129.28c-2.28,0-3.93-1-3.93-2.38s1.65-2.38,3.93-2.38,3.92,1,3.92,2.38S15.28,129.28,13,129.28Zm-2.14-2.38a3,3,0,0,0,2.14.61,3.07,3.07,0,0,0,2.14-.61,3.12,3.12,0,0,0-2.14-.61A3.1,3.1,0,0,0,10.87,126.9Z"/><path class="cls-4" d="M10.9,133.28c6.68,0,19.74,19.29,19.74,19.29a22.57,22.57,0,0,1-13,6.91c-3.43-1.12-6-15.07-6-15.07Z"/><path class="cls-2" d="M17.67,160.36a.84.84,0,0,1-.27,0c-2.32-.76-3.89-5.24-4.86-8.54-1.07-3.63-1.7-7.06-1.73-7.21s0-.06,0-.09L10,133.34a.9.9,0,0,1,.24-.66.88.88,0,0,1,.65-.28c3,0,7.43,3.35,13.05,9.95,4.08,4.8,7.39,9.67,7.42,9.72a.88.88,0,0,1-.1,1.12,23.4,23.4,0,0,1-13.45,7.16ZM12.56,144.3c.08.43.7,3.67,1.68,7,1.66,5.63,3,7,3.54,7.27a21.38,21.38,0,0,0,11.71-6.1c-1-1.44-3.71-5.23-6.9-9-2.69-3.16-7.43-8.27-10.74-9.18Z"/><path class="cls-1" d="M.88,103.23V127.3c0,3.29,5.43,6,12.13,6s12.12-2.67,12.12-6V103.23Z"/><path class="cls-2" d="M13,134.14c-7.3,0-13-3-13-6.84V103.23a.89.89,0,0,1,.88-.89H25.13a.89.89,0,0,1,.89.89V127.3C26,131.13,20.3,134.14,13,134.14Zm-11.24-30V127.3c0,1.22,1.11,2.46,3.06,3.42A19.1,19.1,0,0,0,13,132.37a19.14,19.14,0,0,0,8.18-1.65c1.94-1,3.06-2.2,3.06-3.42V104.11Z"/><ellipse class="cls-1" cx="13.01" cy="103.23" rx="12.12" ry="5.96"/><path class="cls-2" d="M13,110.07c-7.3,0-13-3-13-6.84s5.71-6.85,13-6.85,13,3,13,6.85S20.3,110.07,13,110.07Zm0-11.92a19,19,0,0,0-8.18,1.66c-1.95,1-3.06,2.2-3.06,3.42s1.11,2.46,3.06,3.42A19.1,19.1,0,0,0,13,108.3a19.14,19.14,0,0,0,8.18-1.65c1.94-1,3.06-2.2,3.06-3.42s-1.12-2.47-3.06-3.42A19,19,0,0,0,13,98.15Z"/><ellipse class="cls-3" cx="13.01" cy="102.81" rx="3.04" ry="1.49"/><path class="cls-2" d="M13,105.19c-2.28,0-3.93-1-3.93-2.38s1.65-2.38,3.93-2.38,3.92,1,3.92,2.38S15.28,105.19,13,105.19Zm-2.14-2.38a3.1,3.1,0,0,0,2.14.61,3.12,3.12,0,0,0,2.14-.61A3.07,3.07,0,0,0,13,102.2,3,3,0,0,0,10.87,102.81Z"/><path class="cls-4" d="M10.9,109.19c6.68,0,19.74,19.28,19.74,19.28a22.5,22.5,0,0,1-13,6.91c-3.43-1.11-6-15.06-6-15.06Z"/><path class="cls-2" d="M17.67,136.26a.84.84,0,0,1-.27,0c-2.32-.75-3.89-5.23-4.86-8.54-1.07-3.63-1.7-7.06-1.73-7.2s0-.07,0-.1L10,109.25a.91.91,0,0,1,.24-.67.88.88,0,0,1,.65-.28c3,0,7.43,3.35,13.05,10,4.08,4.8,7.39,9.67,7.42,9.71a.88.88,0,0,1-.1,1.12,23.34,23.34,0,0,1-13.45,7.16ZM12.56,120.2c.08.43.7,3.68,1.68,7,1.66,5.63,3,7,3.54,7.27a21.38,21.38,0,0,0,11.71-6.1c-1-1.43-3.71-5.22-6.9-9-2.69-3.16-7.43-8.26-10.74-9.18Z"/><path class="cls-1" d="M.88,79.13V103.2c0,3.29,5.43,6,12.13,6s12.12-2.67,12.12-6V79.13Z"/><path class="cls-2" d="M13,110c-7.3,0-13-3-13-6.84V79.13a.88.88,0,0,1,.88-.88H25.13a.88.88,0,0,1,.89.88V103.2C26,107,20.3,110,13,110ZM1.77,80V103.2c0,1.22,1.11,2.47,3.06,3.42A19,19,0,0,0,13,108.28a19,19,0,0,0,8.18-1.66c1.94-1,3.06-2.2,3.06-3.42V80Z"/><ellipse class="cls-1" cx="13.01" cy="79.13" rx="12.12" ry="5.96"/><path class="cls-2" d="M13,86c-7.3,0-13-3-13-6.84s5.71-6.84,13-6.84,13,3,13,6.84S20.3,86,13,86Zm0-11.91a19,19,0,0,0-8.18,1.65c-1.95,1-3.06,2.2-3.06,3.42s1.11,2.47,3.06,3.42A19,19,0,0,0,13,84.21a19,19,0,0,0,8.18-1.66c1.94-1,3.06-2.2,3.06-3.42s-1.12-2.46-3.06-3.42A19,19,0,0,0,13,74.06Z"/><ellipse class="cls-3" cx="13.01" cy="78.71" rx="3.04" ry="1.49"/><path class="cls-2" d="M13,81.09c-2.28,0-3.93-1-3.93-2.38s1.65-2.38,3.93-2.38,3.92,1,3.92,2.38S15.28,81.09,13,81.09Zm-2.14-2.38a3,3,0,0,0,2.14.61,3.07,3.07,0,0,0,2.14-.61A3.12,3.12,0,0,0,13,78.1,3.1,3.1,0,0,0,10.87,78.71Z"/><path class="cls-4" d="M10.9,85.09c6.68,0,19.74,19.28,19.74,19.28a22.44,22.44,0,0,1-13,6.91c-3.43-1.11-6-15.06-6-15.06Z"/><path class="cls-2" d="M17.67,112.17a1.26,1.26,0,0,1-.27,0c-2.32-.76-3.89-5.24-4.86-8.55-1.07-3.62-1.7-7.06-1.73-7.2s0-.06,0-.1L10,85.15a.9.9,0,0,1,.24-.66.88.88,0,0,1,.65-.28c3,0,7.43,3.34,13.05,10,4.08,4.8,7.39,9.67,7.42,9.72a.87.87,0,0,1-.1,1.11,23.37,23.37,0,0,1-13.45,7.17ZM12.56,96.11c.08.42.7,3.67,1.68,7,1.66,5.63,3,7,3.54,7.27a21.52,21.52,0,0,0,11.71-6.1c-1-1.44-3.71-5.23-6.9-9C19.9,92.13,15.16,87,11.85,86.12Z"/><path class="cls-1" d="M.88,55V79.11c0,3.29,5.43,6,12.13,6s12.12-2.66,12.12-6V55Z"/><path class="cls-2" d="M13,86c-7.3,0-13-3-13-6.84V55a.89.89,0,0,1,.88-.88H25.13A.89.89,0,0,1,26,55V79.11C26,82.94,20.3,86,13,86Zm-11.24-30V79.11c0,1.21,1.11,2.46,3.06,3.42A19.1,19.1,0,0,0,13,84.18a19.14,19.14,0,0,0,8.18-1.65c1.94-1,3.06-2.21,3.06-3.42V55.92Z"/><ellipse class="cls-1" cx="13.01" cy="55.03" rx="12.12" ry="5.96"/><path class="cls-2" d="M13,61.88c-7.3,0-13-3-13-6.85s5.71-6.84,13-6.84,13,3,13,6.84S20.3,61.88,13,61.88ZM13,50a19.1,19.1,0,0,0-8.18,1.65c-1.95,1-3.06,2.21-3.06,3.42s1.11,2.47,3.06,3.43A19.1,19.1,0,0,0,13,60.11a19.14,19.14,0,0,0,8.18-1.65c1.94-1,3.06-2.21,3.06-3.43s-1.12-2.46-3.06-3.42A19.14,19.14,0,0,0,13,50Z"/><ellipse class="cls-3" cx="13.01" cy="54.62" rx="3.04" ry="1.49"/><path class="cls-2" d="M13,57c-2.28,0-3.93-1-3.93-2.37s1.65-2.38,3.93-2.38,3.92,1,3.92,2.38S15.28,57,13,57Zm-2.14-2.37a3.1,3.1,0,0,0,2.14.61,3.12,3.12,0,0,0,2.14-.61A3.07,3.07,0,0,0,13,54,3,3,0,0,0,10.87,54.62Z"/><path class="cls-4" d="M10.9,61c6.68,0,19.74,19.29,19.74,19.29a22.57,22.57,0,0,1-13,6.91c-3.43-1.12-6-15.06-6-15.06Z"/><path class="cls-2" d="M17.67,88.07a.84.84,0,0,1-.27,0c-2.32-.75-3.89-5.24-4.86-8.54-1.07-3.63-1.7-7.06-1.73-7.21s0-.06,0-.09L10,61.06a.91.91,0,0,1,.24-.67.88.88,0,0,1,.65-.28c3,0,7.43,3.35,13.05,10,4.08,4.81,7.39,9.67,7.42,9.72a.88.88,0,0,1-.1,1.12,23.4,23.4,0,0,1-13.45,7.16ZM12.56,72c.08.43.7,3.67,1.68,7,1.66,5.63,3,7,3.54,7.27a21.38,21.38,0,0,0,11.71-6.1c-1-1.43-3.71-5.22-6.9-9C19.9,68,15.16,62.94,11.85,62Z"/></g></g></svg>