<svg xmlns="http://www.w3.org/2000/svg" viewBox="0 0 31.53 39.88"><defs><style>.cls-1{fill:#f1f2f2;}.cls-2{fill:#354a5f;}.cls-3{fill:#939598;}.cls-4{fill:#e6e7e8;}</style></defs><g id="Layer_2" data-name="Layer 2"><g id="Layer_3" data-name="Layer 3"><path class="cls-1" d="M.88,6.84V30.91c0,3.29,5.43,6,12.13,6s12.12-2.67,12.12-6V6.84Z"/><path class="cls-2" d="M13,37.76c-7.3,0-13-3-13-6.85V6.84A.88.88,0,0,1,.88,6H25.13a.88.88,0,0,1,.89.88V30.91C26,34.75,20.3,37.76,13,37.76ZM1.77,7.73V30.91c0,1.22,1.11,2.47,3.06,3.42A19,19,0,0,0,13,36a19,19,0,0,0,8.18-1.66c1.94-.95,3.06-2.2,3.06-3.42V7.73Z"/><ellipse class="cls-1" cx="13.01" cy="6.84" rx="12.12" ry="5.96"/><path class="cls-2" d="M13,13.69c-7.3,0-13-3-13-6.85S5.71,0,13,0,26,3,26,6.84,20.3,13.69,13,13.69ZM13,1.77A19.1,19.1,0,0,0,4.83,3.42c-1.95,1-3.06,2.2-3.06,3.42s1.11,2.47,3.06,3.42A19,19,0,0,0,13,11.92a19,19,0,0,0,8.18-1.66c1.94-.95,3.06-2.2,3.06-3.42s-1.12-2.46-3.06-3.42A19.14,19.14,0,0,0,13,1.77Z"/><ellipse class="cls-3" cx="13.01" cy="6.42" rx="3.04" ry="1.49"/><path class="cls-2" d="M13,8.8c-2.28,0-3.93-1-3.93-2.38S10.73,4.05,13,4.05s3.92,1,3.92,2.37S15.28,8.8,13,8.8ZM10.87,6.42A3,3,0,0,0,13,7a3.07,3.07,0,0,0,2.14-.61A3.12,3.12,0,0,0,13,5.81,3.1,3.1,0,0,0,10.87,6.42Z"/><path class="cls-4" d="M10.9,12.8c6.68,0,19.74,19.29,19.74,19.29a22.57,22.57,0,0,1-13,6.91c-3.43-1.12-6-15.07-6-15.07Z"/><path class="cls-2" d="M17.67,39.88a.84.84,0,0,1-.27,0c-2.32-.76-3.89-5.24-4.86-8.54-1.07-3.63-1.7-7.06-1.73-7.21s0-.06,0-.09L10,12.86a.9.9,0,0,1,.24-.66.88.88,0,0,1,.65-.28c3,0,7.43,3.35,13.05,10,4.08,4.8,7.39,9.67,7.42,9.72a.88.88,0,0,1-.1,1.12,23.4,23.4,0,0,1-13.45,7.16ZM12.56,23.82c.08.43.7,3.67,1.68,7,1.66,5.63,3,7,3.54,7.27A21.38,21.38,0,0,0,29.49,32c-1-1.44-3.71-5.23-6.9-9-2.69-3.16-7.43-8.27-10.74-9.18Z"/></g></g></svg>