<svg width="102" height="129" viewBox="0 0 102 129" fill="none" xmlns="http://www.w3.org/2000/svg">
<g clip-path="url(#clip0)">
<path d="M2.84682 22.1254V99.9847C2.84682 110.627 20.413 119.393 42.0875 119.393C63.7621 119.393 81.2959 110.756 81.2959 99.9847V22.1254H2.84682Z" fill="#F1F2F2"/>
<path d="M42.0552 122.142C18.4396 122.142 0 112.438 0 99.9847V22.1254C0.0333236 21.3931 0.347903 20.7019 0.878215 20.1957C1.40853 19.6895 2.11369 19.4075 2.84681 19.4082H81.2959C81.6725 19.4039 82.0461 19.4744 82.3953 19.6155C82.7444 19.7567 83.0621 19.9657 83.3298 20.2304C83.5976 20.4952 83.8102 20.8104 83.9553 21.1579C84.1004 21.5054 84.1751 21.8782 84.1751 22.2548V99.9847C84.1104 112.406 65.6708 122.142 42.0552 122.142ZM5.72598 25.0043V99.9847C5.72598 103.931 9.31684 107.974 15.6251 111.047C23.9264 114.783 32.9538 116.628 42.0552 116.449C51.165 116.643 60.2039 114.809 68.5176 111.08C74.7935 108.007 78.4167 103.963 78.4167 100.017V25.0043H5.72598Z" fill="#354A5F"/>
<path d="M42.0875 41.4042C63.7417 41.4042 81.2959 32.7728 81.2959 22.1254C81.2959 11.478 63.7417 2.84656 42.0875 2.84656C20.4333 2.84656 2.87916 11.478 2.87916 22.1254C2.87916 32.7728 20.4333 41.4042 42.0875 41.4042Z" fill="#F1F2F2"/>
<path d="M42.0552 44.2831C18.4396 44.2831 0 34.579 0 22.1254C0 9.67177 18.4719 0 42.0552 0C65.6384 0 84.1104 9.70411 84.1104 22.1254C84.1104 34.5466 65.6708 44.2831 42.0552 44.2831ZM42.0552 5.72543C32.9596 5.53729 23.9348 7.35976 15.6251 11.0627C9.31684 14.2974 5.72598 18.179 5.72598 22.1254C5.72598 26.0717 9.31684 30.1151 15.6251 33.1881C23.9289 36.9124 32.9562 38.7464 42.0552 38.5577C51.165 38.7512 60.2039 36.9171 68.5176 33.1881C74.7935 30.1151 78.4167 26.0717 78.4167 22.1254C78.4167 18.179 74.7935 14.168 68.5176 11.0627C60.1967 7.35917 51.1612 5.53677 42.0552 5.72543Z" fill="#354A5F"/>
<path d="M42.0875 25.5865C47.5189 25.5865 51.922 23.4286 51.922 20.7668C51.922 18.1049 47.5189 15.9471 42.0875 15.9471C36.6561 15.9471 32.2531 18.1049 32.2531 20.7668C32.2531 23.4286 36.6561 25.5865 42.0875 25.5865Z" fill="#939598"/>
<path d="M42.0552 28.4654C34.6794 28.4654 29.3416 25.2307 29.3416 20.7668C29.3416 16.3029 34.7117 13.1005 42.0552 13.1005C49.3987 13.1005 54.7365 16.3352 54.7365 20.7668C54.7365 25.1983 49.431 28.4654 42.0552 28.4654ZM35.1646 20.7668C37.1395 22.2451 39.6033 22.916 42.0552 22.6429C44.5284 22.874 46.9985 22.17 48.9781 20.6697C46.9781 19.2179 44.5147 18.5504 42.0552 18.7936C39.5937 18.5801 37.14 19.2828 35.1646 20.7668Z" fill="#354A5F"/>
<path d="M35.2616 41.4042C56.8715 41.4042 99.1208 103.802 99.1208 103.802C87.995 115.743 73.1885 123.612 57.0656 126.153C45.9695 122.531 37.6556 77.4064 37.6556 77.4064L35.2616 41.4042Z" fill="#E6E7E8"/>
<path d="M57.1627 129C56.8734 129.047 56.5785 129.047 56.2892 129C48.784 126.542 43.705 112.05 40.5671 101.376C37.1056 89.6337 35.0675 78.5386 34.9705 78.0534C34.8734 77.5682 34.9705 77.8593 34.9705 77.7623L32.3501 41.5983C32.3298 41.2086 32.3881 40.8188 32.5215 40.452C32.6549 40.0853 32.8606 39.7491 33.1265 39.4634C33.3952 39.1751 33.7209 38.9458 34.0828 38.7899C34.4448 38.634 34.8352 38.5549 35.2293 38.5577C44.9343 38.5577 59.2655 49.3939 77.4462 70.9047C90.6451 86.4313 101.353 102.184 101.45 102.346C101.827 102.893 102.002 103.554 101.942 104.216C101.883 104.878 101.595 105.498 101.127 105.969C89.6132 118.327 74.2972 126.479 57.6156 129.129L57.1627 129ZM40.6318 77.0507C40.8906 78.4416 42.8963 88.922 46.0666 99.6936C51.4367 117.905 55.7716 122.337 57.5185 123.21C71.9077 120.803 85.1671 113.908 95.4006 103.511C92.1655 98.8526 83.3987 86.593 73.079 74.3982C64.3768 64.1765 49.0428 47.6472 38.3349 44.7036L40.6318 77.0507Z" fill="#354A5F"/>
</g>
<defs>
<clipPath id="clip0">
<rect width="102" height="129" fill="white"/>
</clipPath>
</defs>
</svg>
