<svg xmlns="http://www.w3.org/2000/svg" viewBox="0 0 139.85 223.58"><defs><style>.cls-1{fill:#010101;opacity:0.38;}.cls-2{fill:#adbfc6;}.cls-3{fill:#fff;}.cls-4{fill:#f2f2f2;}.cls-5{fill:#e8e8e8;}</style></defs><g id="Layer_2" data-name="Layer 2"><g id="Layer_3" data-name="Layer 3"><path class="cls-1" d="M137,110.6H7a68.56,68.56,0,0,0,130,0Z"/><path class="cls-1" d="M139.74,106.25v-4.36A2.72,2.72,0,0,0,137,99.17H89.48a43.2,43.2,0,0,0,10.94-7.62h17.69a7.26,7.26,0,0,0,6.71-5.29l14.89-62.34a4.11,4.11,0,0,0-4.18-5.29h-33.3C94.36,10.28,83.75,5.12,72,5.12S49.7,10.28,41.83,18.63H8.54a4.11,4.11,0,0,0-4.18,5.29L19.25,86.26A7.24,7.24,0,0,0,26,91.55h17.7a43.15,43.15,0,0,0,10.93,7.62H6.94a2.72,2.72,0,0,0-2.72,2.72v4.36A2.72,2.72,0,0,0,6.94,109H137A2.72,2.72,0,0,0,139.74,106.25Z"/><path class="cls-1" d="M102.46,223.35V161.22a2.72,2.72,0,0,0-2.45-2.7,82.79,82.79,0,0,1-56,0,2.73,2.73,0,0,0-2.53,2.71v62.13Z"/><path class="cls-2" d="M73.26,13.51H4.32A4.11,4.11,0,0,0,.14,18.8L15,81.14a7.26,7.26,0,0,0,6.71,5.29H113.9a7.24,7.24,0,0,0,6.7-5.29L135.49,18.8a4.11,4.11,0,0,0-4.18-5.29Z"/><ellipse class="cls-3" cx="67.82" cy="49.05" rx="43.91" ry="49.05"/><path class="cls-4" d="M2.83,105.48a68.55,68.55,0,0,0,130,0Z"/><rect class="cls-5" y="94.05" width="135.53" height="9.8" rx="2.72"/><path class="cls-2" d="M39.81,153.39a2.72,2.72,0,0,0-2.52,2.71v64.76A2.72,2.72,0,0,0,40,223.58H95.52a2.72,2.72,0,0,0,2.72-2.72V156.1a2.72,2.72,0,0,0-2.44-2.7,82.82,82.82,0,0,1-56,0Z"/></g></g></svg>