<svg xmlns="http://www.w3.org/2000/svg" viewBox="0 0 178.23 179.28"><defs><style>.cls-1{fill:#6d6e71;}.cls-2{fill:#354a5f;}.cls-3{fill:#f1f2f2;}.cls-4{fill:#e6e7e8;}.cls-5{fill:#939598;}</style></defs><g id="Layer_2" data-name="Layer 2"><g id="Layer_3" data-name="Layer 3"><rect class="cls-1" x="100.04" y="17.82" width="74.74" height="65.87"/><path class="cls-2" d="M174.78,87.14H100a3.45,3.45,0,0,1-3.45-3.45V17.82A3.45,3.45,0,0,1,100,14.37h74.74a3.45,3.45,0,0,1,3.45,3.45V83.69A3.45,3.45,0,0,1,174.78,87.14Zm-71.29-6.9h67.84v-59H103.49Z"/><path class="cls-3" d="M3.45,50.75c0,26.13,10.41,47.31,23.25,47.31h93.92V50.75Z"/><path class="cls-2" d="M120.62,101.51H26.7c-15,0-26.7-22.3-26.7-50.76A3.45,3.45,0,0,1,3.45,47.3H120.62a3.46,3.46,0,0,1,3.45,3.45V98.06A3.46,3.46,0,0,1,120.62,101.51ZM7,54.2C7.35,65,9.59,75,13.36,82.68S21.94,94.61,26.7,94.61h90.47V54.2Z"/><path class="cls-3" d="M26.7,3.45c-12.84,0-23.25,21.18-23.25,47.3V175.84l7.82-8.13,7.83,8.13,7.82-8.13,7.83,8.13,7.82-8.13,7.83,8.13,7.82-8.13L66,175.84l7.83-8.13,7.82,8.13,7.83-8.13,7.82,8.13h0V50.75h23.25V3.45Z"/><path class="cls-2" d="M3.45,179.28A3.45,3.45,0,0,1,0,175.84V50.75C0,22.29,11.73,0,26.7,0h93.92a3.45,3.45,0,0,1,3.45,3.45v47.3a3.45,3.45,0,0,1-3.45,3.45h-19.8V175.84a3.45,3.45,0,0,1-3.45,3.44h0a3.47,3.47,0,0,1-2.48-1.05l-5.34-5.54-5.34,5.54a3.47,3.47,0,0,1-5,0l-5.34-5.54-5.34,5.54a3.47,3.47,0,0,1-5,0l-5.34-5.54-5.34,5.54a3.47,3.47,0,0,1-2.48,1.05h0a3.47,3.47,0,0,1-2.49-1.05l-5.34-5.54-5.34,5.54a3.47,3.47,0,0,1-5,0l-5.34-5.54-5.34,5.54a3.47,3.47,0,0,1-5,0l-5.34-5.54-5.34,5.54A3.42,3.42,0,0,1,3.45,179.28Zm23.47-15a3.48,3.48,0,0,1,2.49,1.06l5.34,5.54,5.34-5.54a3.46,3.46,0,0,1,2.48-1.06h0a3.48,3.48,0,0,1,2.49,1.06l5.34,5.54,5.34-5.54a3.43,3.43,0,0,1,5,0L66,170.86l5.34-5.54a3.5,3.5,0,0,1,2.49-1.06,3.46,3.46,0,0,1,2.48,1.06l5.34,5.54L87,165.32a3.44,3.44,0,0,1,5,0l1.92,2V50.75a3.45,3.45,0,0,1,3.45-3.45h19.8V6.9H26.7c-4.76,0-9.62,4.35-13.34,11.93C9.19,27.3,6.9,38.64,6.9,50.75V167.28l1.89-2a3.44,3.44,0,0,1,5,0l5.34,5.54,5.34-5.54A3.48,3.48,0,0,1,26.92,164.26Z"/><ellipse class="cls-4" cx="120.62" cy="50.75" rx="23.25" ry="47.3"/><path class="cls-2" d="M120.62,101.51c-15,0-26.7-22.3-26.7-50.76S105.65,0,120.62,0s26.7,22.29,26.7,50.75S135.59,101.51,120.62,101.51Zm0-94.61c-4.76,0-9.62,4.35-13.35,11.93-4.16,8.47-6.45,19.81-6.45,31.92s2.29,23.46,6.45,31.93c3.73,7.58,8.59,11.93,13.35,11.93s9.62-4.35,13.34-11.93c4.17-8.47,6.46-19.81,6.46-31.93S138.13,27.3,134,18.83C130.24,11.25,125.37,6.9,120.62,6.9Z"/><path class="cls-5" d="M122.25,38.89c-3.22,0-5.83,5.31-5.83,11.86s2.61,11.87,5.83,11.87l52.53,21.07V17.82Z"/><path class="cls-2" d="M174.78,87.14a3.55,3.55,0,0,1-1.28-.25L121.47,66c-5-.59-8.5-6.83-8.5-15.27s3.53-14.67,8.5-15.26l52-20.87a3.43,3.43,0,0,1,3.21.34,3.47,3.47,0,0,1,1.52,2.86V83.69a3.44,3.44,0,0,1-1.52,2.85A3.38,3.38,0,0,1,174.78,87.14Zm-52.42-28a3.24,3.24,0,0,1,1.18.25l47.79,19.17V22.92L123.54,42.09a3.46,3.46,0,0,1-1.18.25c-.75.41-2.49,3.36-2.49,8.41S121.61,58.76,122.36,59.17Z"/></g></g></svg>