<svg width="152" height="145" viewBox="0 0 152 145" fill="none" xmlns="http://www.w3.org/2000/svg">
<path d="M129.24 77.17C114.66 78.11 113.17 83.02 101.47 83.02C89.77 83.02 69.32 67.57 48 77.17C48 77.17 48.2 71.17 63.65 62.98C79.1 54.79 79.52 25.61 63.86 13.08C48.2 0.550014 27.36 -6.75998 8.77998 8.90001C-9.80002 24.56 6.89999 44.81 6.89999 44.81C6.89999 44.81 10.9 22.27 27.57 30.62C44.24 38.97 21.09 55.25 15.46 74C10.1 91.87 15.87 102.18 23.09 109.43C23.8229 110.168 24.2574 111.151 24.31 112.19L25.36 133.19C25.3936 133.95 25.5895 134.694 25.9345 135.372C26.2795 136.049 26.7655 136.646 27.36 137.12L35.9 143.86C36.8531 144.605 38.03 145.007 39.24 145H52.16C52.358 145.002 52.5531 144.952 52.7258 144.856C52.8984 144.759 53.0426 144.618 53.1439 144.448C53.2452 144.278 53.3 144.084 53.3028 143.886C53.3056 143.688 53.2564 143.493 53.16 143.32L51.85 140.91C51.7666 140.753 51.6468 140.619 51.5006 140.518C51.3544 140.417 51.1862 140.352 51.01 140.33L41.14 139C40.6934 138.578 40.3443 138.064 40.117 137.494C39.8897 136.923 39.7897 136.31 39.824 135.696C39.8583 135.083 40.026 134.485 40.3155 133.943C40.605 133.401 41.0092 132.929 41.5 132.56C44.14 130.56 47.39 127.8 49.07 125.22C49.07 125.22 55.33 127.1 68.9 127.1C82.47 127.1 90 124.15 90 124.15L103.47 142.65C103.632 142.869 103.844 143.047 104.086 143.17C104.329 143.293 104.598 143.358 104.87 143.36H117.25C117.57 143.36 117.884 143.271 118.156 143.102C118.429 142.933 118.648 142.692 118.791 142.405C118.933 142.118 118.993 141.797 118.962 141.478C118.932 141.159 118.814 140.855 118.62 140.6C118.489 140.423 118.325 140.273 118.136 140.16C117.947 140.047 117.738 139.972 117.52 139.94C115.47 139.688 113.576 138.72 112.171 137.207C110.766 135.693 109.94 133.733 109.84 131.67C109.21 123.73 110.04 116.84 116.72 108.91C123.4 100.98 128.63 96.38 132.8 96.38C136.66 96.38 141.94 98.7 151.27 88.38C151.421 88.2269 151.518 88.0292 151.548 87.8162C151.578 87.6033 151.538 87.3865 151.435 87.1979C151.331 87.0093 151.17 86.8591 150.975 86.7694C150.779 86.6797 150.56 86.6554 150.35 86.7C147.814 87.1871 145.187 86.694 143 85.32C137.59 82 135.19 76.79 129.24 77.17Z" fill="white"/>
<path d="M136.76 90.95C138.605 90.95 140.1 89.4547 140.1 87.61C140.1 85.7654 138.605 84.27 136.76 84.27C134.915 84.27 133.42 85.7654 133.42 87.61C133.42 89.4547 134.915 90.95 136.76 90.95Z" fill="#5B606A"/>
<path d="M127.82 84.35C127.749 84.5177 127.669 84.6813 127.58 84.84C127.43 85.13 127.23 85.54 127 85.96C126.771 86.3857 126.564 86.823 126.38 87.27C126.315 87.4497 126.261 87.6335 126.22 87.82C126.202 87.9561 126.202 88.094 126.22 88.23C126.202 88.3627 126.202 88.4973 126.22 88.63C126.257 88.8211 126.31 89.0085 126.38 89.19C126.46 89.39 126.57 89.61 126.67 89.83C126.77 90.05 126.89 90.28 127.01 90.5C127.25 90.92 127.45 91.33 127.6 91.63C127.685 91.7927 127.762 91.9596 127.83 92.13L127.73 92.29L127.33 92.05C127.21 91.98 127.05 91.89 126.88 91.77C126.681 91.6499 126.491 91.5163 126.31 91.37C126.091 91.2049 125.884 91.0244 125.69 90.83C125.461 90.6212 125.253 90.3901 125.07 90.14C124.863 89.8753 124.694 89.5824 124.57 89.27C124.44 88.9521 124.369 88.6133 124.36 88.27C124.386 87.5754 124.631 86.9068 125.06 86.36C125.413 85.8938 125.827 85.4768 126.29 85.12C126.605 84.8712 126.94 84.6471 127.29 84.45C127.55 84.3 127.71 84.23 127.71 84.23L127.82 84.35Z" fill="#BFC193"/>
<path d="M131.33 81.56C131.33 81.56 127.15 79.47 119.01 81.56C110.87 83.65 101.27 90.12 80.39 83C59.51 75.88 49.07 80.61 49.07 80.61C49.07 80.61 69.74 77.61 83.94 92.19C83.94 92.19 72.24 100.33 46.77 98.24C21.3 96.15 26.94 80.72 33.83 73.42C40.72 66.12 53.83 45.23 51.58 34.79C49.33 24.35 36.13 23.52 36.13 15.58C36.13 7.64002 49.91 12.66 49.91 12.66C49.91 12.66 44.1 4.31002 28 7.00002C11.9 9.69002 13.16 19.13 24.43 21.64C35.7 24.15 47.4 37.31 37 52.54C26.6 67.77 13.79 79.74 22.76 98.6C31.73 117.46 59.93 116.22 70.57 115C81.21 113.78 105.65 101 111.29 93.5C116.93 86 122.77 82.81 131.33 81.56Z" fill="black"/>
</svg>
